#N canvas 642 345 527 592 10;
#X obj 87 35 inlet;
#X obj 89 76 tgl 15 0 empty empty empty 17 7 0 10 -262144 -1 -1 0 1
;
#X obj 96 140 t b f;
#X obj 189 254 realtime;
#X msg 36 137 set 0;
#X obj 95 188 delay 500;
#X obj 186 289 < 500;
#X obj 187 335 sel 1;
#X obj 170 189 sel 0 1;
#X obj 186 373 outlet;
#X connect 0 0 1 0;
#X connect 1 0 2 0;
#X connect 2 0 5 0;
#X connect 2 1 8 0;
#X connect 3 0 6 0;
#X connect 4 0 1 0;
#X connect 5 0 4 0;
#X connect 6 0 7 0;
#X connect 7 0 9 0;
#X connect 8 0 3 1;
#X connect 8 1 3 0;
