#N canvas 0 22 1300 852 10;
#X obj 427 684 tabread4~ record;
#X obj 427 499 *~;
#X obj 479 85 r grain-size;
#X obj 603 92 r samp-rate;
#X obj 428 554 +~;
#X obj 725 327 r samp-rate;
#X obj 241 691 tabread~ hanning;
#X obj 269 647 *~ 256;
#X obj 369 754 *~;
#X obj 479 234 samphold~;
#X obj 516 454 samphold~;
#X obj 478 134 expr $f1 * $f2 / 1000;
#X obj 601 447 r~ \$1-grain-phase;
#X obj 356 398 r~ \$1-grain-phase;
#X obj 223 597 r~ \$1-grain-phase;
#X obj 389 43 loadbang;
#X obj 382 71 f \$1;
#X obj 196 277 s~ \$1-grain-phase;
#X obj 207 145 +~;
#X obj 210 39 r~ grain-phase;
#X obj 197 189 wrap~;
#X obj 524 192 r~ \$1-grain-phase;
#X obj 489 525 +~;
#X obj 758 446 noise~;
#X obj 755 487 samphold~;
#X obj 823 450 r~ \$1-grain-phase;
#X obj 754 541 *~;
#X obj 847 500 r ran-pos;
#X obj 792 578 expr $f1 * $f2 / 1000;
#X obj 969 529 r samp-rate;
#X obj 492 325 *~;
#X obj 700 137 noise~;
#X obj 697 178 samphold~;
#X obj 765 141 r~ \$1-grain-phase;
#X obj 697 223 *~;
#X obj 768 196 r ran-size;
#X obj 694 250 -~ 36;
#X obj 690 274 mtof~;
#X obj 754 227 / 2;
#X obj 427 587 /~ 1;
#X obj 507 560 r rec-dur;
#X obj 428 618 wrap~;
#X obj 427 655 *~ 1;
#X obj 588 568 r samp-rate;
#X obj 495 601 expr $f1 * $f2 / 1000;
#X obj 372 107 / 8;
#X obj 293 881 throw~ grains-l;
#X obj 470 880 throw~ grains-r;
#X obj 450 806 *~;
#X obj 315 801 *~;
#X obj 644 670 loadbang;
#X obj 637 698 f \$1;
#X obj 685 747 expr $f1 % 2;
#X obj 543 747 expr ($f1+1) % 2;
#X obj 609 350 r~ grain-offset;
#X obj 725 356 / 1000;
#X obj 603 401 *~ 44.1;
#X obj 87 313 r~ \$1-grain-phase;
#X obj 330 455 *~ 1;
#X obj 91 399 threshold~ 0.999 1 0.5 1;
#X obj 137 437 random 2;
#X obj 152 473 sel 0 1;
#X msg 152 503 -1;
#X msg 190 503 1;
#X obj 250 312 r grain-reversing;
#X obj 271 410 spigot;
#X obj 299 351 sel 0;
#X msg 310 380 1;
#X connect 0 0 8 1;
#X connect 1 0 4 0;
#X connect 2 0 11 0;
#X connect 3 0 11 1;
#X connect 4 0 39 0;
#X connect 5 0 55 0;
#X connect 6 0 8 0;
#X connect 7 0 6 0;
#X connect 8 0 49 0;
#X connect 8 0 48 0;
#X connect 9 0 30 0;
#X connect 10 0 22 0;
#X connect 11 0 9 0;
#X connect 12 0 10 1;
#X connect 13 0 58 0;
#X connect 14 0 7 0;
#X connect 15 0 16 0;
#X connect 16 0 45 0;
#X connect 18 0 20 0;
#X connect 19 0 18 0;
#X connect 20 0 17 0;
#X connect 21 0 9 1;
#X connect 22 0 4 1;
#X connect 23 0 24 0;
#X connect 24 0 26 0;
#X connect 25 0 24 1;
#X connect 26 0 22 1;
#X connect 27 0 28 0;
#X connect 28 0 26 1;
#X connect 29 0 28 1;
#X connect 30 0 1 1;
#X connect 31 0 32 0;
#X connect 32 0 34 0;
#X connect 33 0 32 1;
#X connect 34 0 36 0;
#X connect 35 0 38 0;
#X connect 36 0 37 0;
#X connect 37 0 30 1;
#X connect 38 0 34 1;
#X connect 39 0 41 0;
#X connect 40 0 44 0;
#X connect 41 0 42 0;
#X connect 42 0 0 0;
#X connect 43 0 44 1;
#X connect 44 0 39 1;
#X connect 44 0 42 1;
#X connect 45 0 18 1;
#X connect 48 0 47 0;
#X connect 49 0 46 0;
#X connect 50 0 51 0;
#X connect 51 0 53 0;
#X connect 51 0 52 0;
#X connect 52 0 48 1;
#X connect 53 0 49 1;
#X connect 54 0 56 0;
#X connect 55 0 56 1;
#X connect 56 0 10 0;
#X connect 57 0 59 0;
#X connect 58 0 1 0;
#X connect 59 0 60 0;
#X connect 60 0 61 0;
#X connect 61 0 62 0;
#X connect 61 1 63 0;
#X connect 62 0 65 0;
#X connect 63 0 65 0;
#X connect 64 0 65 1;
#X connect 64 0 66 0;
#X connect 65 0 58 1;
#X connect 66 0 67 0;
#X connect 67 0 58 1;
