#N canvas 43 275 1090 599 10;
#X obj 135 48 ctlin 13;
#X floatatom 136 72 5 0 0 0 - - -, f 5;
#X obj 176 224 mtof;
#X obj 151 100 moses 42;
#X floatatom 228 217 5 0 0 0 - - -, f 5;
#X msg 356 202 0;
#X msg 486 207 7;
#X floatatom 423 13 5 0 0 0 - - -, f 5;
#X obj 390 155 sel 0 1 2 3 4 5;
#X floatatom 480 259 5 0 0 0 - - -, f 5;
#X obj 484 85 s notenum;
#X obj 432 69 t f f;
#X floatatom 476 350 5 0 0 0 - - -, f 5;
#X obj 570 265 r notenum;
#X obj 202 343 clip~ -1 1;
#X obj 166 423 *~ 0.1;
#X floatatom 398 88 5 0 0 0 - - -, f 5;
#N canvas 0 22 377 608 counter 0;
#X obj 38 314 t f f;
#X obj 52 396 min;
#X obj 38 369 * -1;
#X obj 38 346 - 1;
#X floatatom 54 448 5 0 0 0 - - -, f 5;
#X obj 38 272 mod 20;
#X obj 38 292 / 20;
#X obj 52 420 * 20;
#X obj 38 204 tgl 15 0 empty empty empty 17 7 0 10 -262144 -1 -1 0
1;
#X obj 55 487 outlet;
#X obj 40 248 f;
#X obj 126 246 + 1;
#X obj 38 224 metro 33;
#X connect 0 0 3 0;
#X connect 0 1 1 1;
#X connect 1 0 7 0;
#X connect 2 0 1 0;
#X connect 3 0 2 0;
#X connect 4 0 9 0;
#X connect 5 0 6 0;
#X connect 6 0 0 0;
#X connect 7 0 4 0;
#X connect 8 0 12 0;
#X connect 10 0 11 0;
#X connect 10 0 5 0;
#X connect 11 0 10 1;
#X connect 12 0 10 0;
#X restore 576 35 pd counter;
#X obj 538 78 t b f;
#X obj 419 117 expr $f1 % 6;
#X obj 665 172 tgl 15 0 empty empty empty 17 7 0 10 -262144 -1 -1 0
1;
#X obj 666 229 tgl 15 0 empty empty empty 17 7 0 10 -262144 -1 -1 0
1;
#X obj 661 256 * 12;
#X obj 479 322 expr $f1 + ($f2/6*12) + 30 + $f3;
#X obj 632 283 t b f;
#X obj 194 306 *~ 2;
#X obj 303 353 tgl 15 0 empty empty empty 17 7 0 10 -262144 -1 -1 0
1;
#X obj 294 373 * 0.1;
#X msg 456 206 5;
#X obj 147 461 throw~ ther;
#X msg 425 202 3;
#X msg 525 208 7;
#X msg 388 200 2;
#X obj 422 42 expr ($f1 - 42) / 1;
#X obj 663 203 metro 88;
#X obj 811 178 t f f;
#X obj 825 260 min;
#X obj 811 233 * -1;
#X obj 811 210 - 1;
#X floatatom 825 306 5 0 0 0 - - -, f 5;
#X obj 811 112 f;
#X obj 859 113 + 1;
#X obj 811 68 tgl 15 0 empty empty empty 17 7 0 10 -262144 -1 -1 0
1;
#X obj 811 136 mod 40;
#X obj 811 156 / 40;
#X obj 825 284 * 40;
#X obj 811 88 metro 66;
#X obj 799 342 expr $f2 * 4 + 60;
#X obj 174 273 phasor~;
#X obj 301 311 r theron;
#X obj 670 63 loadbang;
#X connect 0 0 1 0;
#X connect 1 0 3 0;
#X connect 2 0 48 0;
#X connect 3 1 4 0;
#X connect 3 1 7 0;
#X connect 5 0 9 0;
#X connect 6 0 9 0;
#X connect 7 0 33 0;
#X connect 8 0 5 0;
#X connect 8 1 32 0;
#X connect 8 2 30 0;
#X connect 8 3 28 0;
#X connect 8 4 6 0;
#X connect 8 5 31 0;
#X connect 9 0 23 0;
#X connect 11 0 16 0;
#X connect 11 0 19 0;
#X connect 11 1 10 0;
#X connect 12 0 2 0;
#X connect 13 0 23 1;
#X connect 14 0 15 0;
#X connect 15 0 29 0;
#X connect 17 0 18 0;
#X connect 19 0 8 0;
#X connect 20 0 34 0;
#X connect 21 0 22 0;
#X connect 22 0 24 0;
#X connect 23 0 12 0;
#X connect 24 0 23 0;
#X connect 24 1 23 2;
#X connect 25 0 14 0;
#X connect 26 0 27 0;
#X connect 27 0 15 1;
#X connect 28 0 9 0;
#X connect 30 0 9 0;
#X connect 31 0 9 0;
#X connect 32 0 9 0;
#X connect 33 0 11 0;
#X connect 34 0 21 0;
#X connect 35 0 38 0;
#X connect 35 1 36 1;
#X connect 36 0 45 0;
#X connect 37 0 36 0;
#X connect 38 0 37 0;
#X connect 39 0 47 0;
#X connect 40 0 41 0;
#X connect 40 0 43 0;
#X connect 41 0 40 1;
#X connect 42 0 46 0;
#X connect 43 0 44 0;
#X connect 44 0 35 0;
#X connect 45 0 39 0;
#X connect 46 0 40 0;
#X connect 47 0 34 1;
#X connect 48 0 25 0;
#X connect 49 0 26 0;
#X connect 50 0 20 0;
#X connect 50 0 42 0;
