#N canvas 383 369 836 396 10;
#X obj 145 124 vsl 15 64 0 127 0 0 empty empty empty 0 -9 0 10 -262144
-1 -1 2232 1;
#X obj 120 223 hsl 64 15 0 127 0 0 empty empty empty -2 -8 0 10 -262144
-1 -1 2629 1;
#X obj 387 39 loadbang;
#X obj 387 67 f \$1;
#X obj 348 316 route 0;
#X obj 348 224 ctlin;
#X obj 348 254 pack 0 0;
#X floatatom 401 205 5 0 0 0 - - -, f 5;
#X obj 387 94 - 1;
#X obj 387 175 array get JOYPOTS 0 1;
#X obj 488 316 route 0;
#X obj 488 224 ctlin;
#X obj 488 254 pack 0 0;
#X floatatom 541 205 5 0 0 0 - - -, f 5;
#X obj 527 175 array get JOYPOTS 0 1;
#X obj 145 41 r \$0joyPotB;
#X obj 259 152 r \$0joyPotA;
#X obj 145 273 tgl 15 0 empty empty empty 17 7 0 10 -262144 -1 -1 127
1;
#X obj 631 286 route 0;
#X obj 631 254 pack 0 0;
#X obj 631 224 notein;
#X obj 670 175 array get JOYBUTTONS 0 1;
#X obj 631 316 s \$0joyBtn;
#X obj 260 199 r \$0joyBtn;
#X text 149 191 V;
#X text 149 240 H;
#X obj 90 374 outlet;
#X msg 91 330 /v \$1;
#X msg 131 330 /h \$1;
#X msg 171 330 /s \$1;
#X text 148 292 S;
#X msg 145 63 set \$1;
#X msg 259 174 set \$1;
#X msg 260 221 set \$1;
#X text 138 203 [/v];
#X text 139 252 [/h];
#X text 138 303 [/s];
#X obj 417 125 + 2;
#X obj 348 346 s \$0joyPotB;
#X obj 488 346 s \$0joyPotA;
#X obj 327 39 r reset;
#X msg 348 276 \$2 \$1;
#X msg 488 276 \$2 \$1;
#X connect 0 0 27 0;
#X connect 1 0 28 0;
#X connect 2 0 3 0;
#X connect 3 0 8 0;
#X connect 4 0 38 0;
#X connect 5 0 6 0;
#X connect 5 1 6 1;
#X connect 6 0 41 0;
#X connect 8 0 21 0;
#X connect 8 0 9 0;
#X connect 8 0 37 0;
#X connect 9 0 4 1;
#X connect 9 0 7 0;
#X connect 10 0 39 0;
#X connect 11 0 12 0;
#X connect 11 1 12 1;
#X connect 12 0 42 0;
#X connect 14 0 10 1;
#X connect 14 0 13 0;
#X connect 15 0 27 0;
#X connect 15 0 31 0;
#X connect 16 0 28 0;
#X connect 16 0 32 0;
#X connect 17 0 29 0;
#X connect 18 0 22 0;
#X connect 19 0 18 0;
#X connect 20 0 19 0;
#X connect 20 1 19 1;
#X connect 21 0 18 1;
#X connect 23 0 29 0;
#X connect 23 0 33 0;
#X connect 27 0 26 0;
#X connect 28 0 26 0;
#X connect 29 0 26 0;
#X connect 31 0 0 0;
#X connect 32 0 1 0;
#X connect 33 0 17 0;
#X connect 37 0 14 0;
#X connect 40 0 3 0;
#X connect 41 0 4 0;
#X connect 42 0 10 0;
#X coords 0 -1 1 1 100 220 1 100 100;
