#N canvas 0 23 937 621 10;
#X obj 346 60 inlet;
#X obj 337 117 bng 15 250 50 0 empty empty empty 17 7 0 10 -262144
-1 -1;
#X obj 418 319 tgl 15 0 empty empty empty 17 7 0 10 -262144 -1 -1 0
1;
#X msg 297 364 0;
#X obj 427 370 * 127;
#X obj 427 579 outlet;
#X obj 377 184 del \$2;
#X obj 354 209 del \$2;
#X obj 317 250 del \$2;
#X obj 294 274 del \$2;
#X obj 290 321 del \$2;
#X obj 599 326 symbol \$1;
#X obj 605 281 bng 15 250 50 0 empty empty empty 17 7 0 10 -262144
-1 -1;
#X obj 408 457 pack s 1;
#X obj 437 147 del \$2;
#X obj 444 531 route list;
#X connect 0 0 1 0;
#X connect 1 0 14 0;
#X connect 2 0 4 0;
#X connect 3 0 2 0;
#X connect 4 0 13 1;
#X connect 4 0 12 0;
#X connect 6 0 2 0;
#X connect 6 0 7 0;
#X connect 7 0 2 0;
#X connect 7 0 8 0;
#X connect 8 0 2 0;
#X connect 8 0 9 0;
#X connect 9 0 2 0;
#X connect 9 0 10 0;
#X connect 10 0 3 0;
#X connect 11 0 13 0;
#X connect 12 0 11 0;
#X connect 13 0 15 0;
#X connect 14 0 2 0;
#X connect 14 0 6 0;
#X connect 15 0 5 0;
#X connect 15 1 5 0;
