#N canvas 508 346 472 255 10;
#X obj 41 29 inlet;
#X obj 41 89 * 127;
#X obj 103 27 tgl 15 0 empty empty empty 17 7 0 10 -262144 -1 -1 0
1;
#X obj 41 148 list trim;
#X obj 111 201 outlet;
#X obj 136 28 f \$3;
#X obj 136 54 expr if($f1 <= 0 \, 1 \, $f1);
#X obj 41 202 s mo.in.\$1;
#X obj 41 126 list prepend /\$2;
#X connect 0 0 1 0;
#X connect 1 0 8 0;
#X connect 2 0 1 0;
#X connect 3 0 4 0;
#X connect 3 0 7 0;
#X connect 5 0 6 0;
#X connect 6 0 1 1;
#X connect 8 0 3 0;
