#N canvas 37 29 1378 646 10;
#X obj 222 121 vsl 15 64 0 127 0 0 empty empty empty 0 -9 0 10 -262144
-1 -1 0 1;
#X obj 134 121 vsl 15 64 0 127 0 0 empty empty empty 0 -9 0 10 -262144
-1 -1 0 1;
#X obj 222 313 tgl 15 0 empty empty S2_Switch -12 22 0 8 -262144 -1
-1 0 1;
#X obj 134 313 tgl 15 0 empty empty S1_Switch -12 22 0 8 -262144 -1
-1 0 1;
#X obj 183 215 tgl 15 0 empty empty empty 17 7 0 10 -262144 -1 -1 0
1;
#X obj 899 110 loadbang;
#X obj 899 158 f \$1;
#X obj 1049 424 route 0;
#X obj 1049 362 ctlin;
#X obj 1168 425 route 0;
#X obj 1168 363 ctlin;
#X obj 1049 392 pack 0 0;
#X obj 1168 393 pack 0 0;
#X floatatom 1102 343 5 0 0 0 - - -, f 5;
#X obj 163 38 r \$0potA;
#X obj 228 38 r \$0potB;
#X obj 1168 455 s \$0potB;
#X obj 1049 454 s \$0potA;
#X floatatom 1223 341 5 0 0 0 - - -, f 5;
#X obj 955 213 + 1;
#X obj 929 213 * 2;
#X obj 899 185 - 1;
#X obj 1088 313 array get POTS 0 1;
#X obj 1206 313 array get POTS 0 1;
#X obj 1299 424 route 0;
#X obj 1438 425 route 0;
#X obj 1299 392 pack 0 0;
#X obj 1438 393 pack 0 0;
#X obj 1338 313 array get BUTTONS 0 1;
#X obj 1476 313 array get BUTTONS 0 1;
#X obj 1299 454 s \$0btnA;
#X obj 1438 454 s \$0btnB;
#X obj 19 223 r \$0btnA;
#X obj 323 226 r \$0btnB;
#X obj 1299 362 notein;
#X obj 1438 363 notein;
#X obj 691 373 noteout;
#X obj 197 266 hsl 63 15 0 127 0 0 empty empty S2_LED 18 22 0 8 -262144
-1 -1 0 1;
#X obj 732 312 array get LEDS 0 1;
#X obj 691 338 f;
#X obj 691 312 t b f;
#X obj 531 373 noteout;
#X obj 110 266 hsl 63 15 0 127 0 0 empty empty S1_LED 18 22 0 8 -262144
-1 -1 0 1;
#X obj 572 312 array get LEDS 0 1;
#X obj 531 338 f;
#X obj 531 312 t b f;
#X floatatom 732 334 5 0 0 0 - - -, f 5;
#X floatatom 572 334 5 0 0 0 - - -, f 5;
#X obj 861 373 noteout;
#X obj 861 338 f;
#X obj 861 312 t b f;
#X floatatom 902 334 5 0 0 0 - - -, f 5;
#X text 1039 311 INPUTS:;
#X text 472 312 OUTPUTS:;
#X obj 861 287 * 127;
#X obj 29 535 outlet;
#X obj 16 9 inlet;
#X text 133 354 S1;
#X text 221 354 S2;
#X text 176 231 LED1;
#X text 212 189 Knob2;
#X text 122 188 Knob1;
#X msg 170 65 set \$1;
#X msg 23 497 /k1 \$1;
#X msg 73 497 /k2 \$1;
#X msg 245 65 set \$1;
#X msg 123 497 /s1 \$1;
#X msg 173 497 /s2 \$1;
#X msg 19 245 set \$1;
#X msg 323 248 set \$1;
#X obj 16 31 route /l1 /l2 /st;
#X text 122 200 [/k1];
#X text 212 200 [/k2];
#X text 173 243 [/st];
#X text 123 293 [/l1];
#X text 210 293 [/l2];
#X text 123 339 [/s1];
#X text 212 339 [/s2];
#X obj 174 266 tgl 15 0 empty empty empty 17 7 0 10 -262144 -1 -1 0
1;
#X obj 261 266 tgl 15 0 empty empty empty 17 7 0 10 -262144 -1 -1 0
1;
#N canvas 557 102 157 160 setter 0;
#X obj 31 42 == 127;
#X obj 31 64 sel 1;
#X msg 31 86 set 1;
#X msg 73 86 set 0;
#X obj 31 117 outlet;
#X obj 31 14 inlet;
#X connect 0 0 1 0;
#X connect 1 0 2 0;
#X connect 1 1 3 0;
#X connect 2 0 4 0;
#X connect 3 0 4 0;
#X connect 5 0 0 0;
#X restore 49 381 pd setter;
#X msg 95 439 set \$1;
#X obj 108 403 * 127;
#N canvas 557 102 157 160 setter 0;
#X obj 31 42 == 127;
#X obj 31 64 sel 1;
#X msg 31 86 set 1;
#X msg 73 86 set 0;
#X obj 31 117 outlet;
#X obj 31 14 inlet;
#X connect 0 0 1 0;
#X connect 1 0 2 0;
#X connect 1 1 3 0;
#X connect 2 0 4 0;
#X connect 3 0 4 0;
#X connect 5 0 0 0;
#X restore 209 381 pd setter;
#X msg 254 433 set \$1;
#X obj 254 405 * 127;
#X obj 900 134 del 1000;
#X obj 903 312 array get STRIPLEDS 0 1;
#X obj 846 110 r reset;
#X connect 0 0 64 0;
#X connect 1 0 63 0;
#X connect 2 0 67 0;
#X connect 3 0 66 0;
#X connect 4 0 54 0;
#X connect 5 0 86 0;
#X connect 6 0 21 0;
#X connect 7 0 17 0;
#X connect 8 0 11 1;
#X connect 8 1 11 0;
#X connect 9 0 16 0;
#X connect 10 0 12 1;
#X connect 10 1 12 0;
#X connect 11 0 7 0;
#X connect 12 0 9 0;
#X connect 14 0 62 0;
#X connect 14 0 63 0;
#X connect 15 0 65 0;
#X connect 15 0 64 0;
#X connect 19 0 23 0;
#X connect 19 0 29 0;
#X connect 19 0 38 0;
#X connect 20 0 19 0;
#X connect 20 0 22 0;
#X connect 20 0 28 0;
#X connect 20 0 43 0;
#X connect 21 0 20 0;
#X connect 21 0 87 0;
#X connect 22 0 7 1;
#X connect 22 0 13 0;
#X connect 23 0 9 1;
#X connect 23 0 18 0;
#X connect 24 0 30 0;
#X connect 25 0 31 0;
#X connect 26 0 24 0;
#X connect 27 0 25 0;
#X connect 28 0 24 1;
#X connect 29 0 25 1;
#X connect 32 0 68 0;
#X connect 32 0 66 0;
#X connect 33 0 67 0;
#X connect 33 0 69 0;
#X connect 34 0 26 0;
#X connect 34 1 26 1;
#X connect 35 0 27 0;
#X connect 35 1 27 1;
#X connect 37 0 40 0;
#X connect 37 0 83 0;
#X connect 38 0 39 1;
#X connect 38 0 46 0;
#X connect 39 0 36 0;
#X connect 40 0 39 0;
#X connect 40 1 36 1;
#X connect 42 0 45 0;
#X connect 42 0 80 0;
#X connect 43 0 44 1;
#X connect 43 0 47 0;
#X connect 44 0 41 0;
#X connect 45 0 44 0;
#X connect 45 1 41 1;
#X connect 49 0 48 0;
#X connect 50 0 49 0;
#X connect 50 1 48 1;
#X connect 54 0 50 0;
#X connect 56 0 70 0;
#X connect 62 0 1 0;
#X connect 63 0 55 0;
#X connect 64 0 55 0;
#X connect 65 0 0 0;
#X connect 66 0 55 0;
#X connect 67 0 55 0;
#X connect 68 0 3 0;
#X connect 69 0 2 0;
#X connect 70 0 42 0;
#X connect 70 1 37 0;
#X connect 70 2 4 0;
#X connect 78 0 82 0;
#X connect 79 0 85 0;
#X connect 80 0 78 0;
#X connect 81 0 42 0;
#X connect 82 0 81 0;
#X connect 82 0 45 0;
#X connect 83 0 79 0;
#X connect 84 0 37 0;
#X connect 85 0 84 0;
#X connect 85 0 40 0;
#X connect 86 0 6 0;
#X connect 87 0 49 1;
#X connect 87 0 51 0;
#X connect 88 0 86 0;
#X coords 0 -1 1 1 180 275 1 100 100;
