#N canvas 0 23 1440 851 10;
#X msg 87 349 read inputs.txt;
#X obj 87 373 text define -k inputs;
#A set POTS 0 1 2 3 4 5 6 7 8 9 10 11 \; JOYPOTS 30 31 32 33 \; USERPOTS
34 35 36 37 \; USERINS 38 39 40 41 \; JOYBUTTONS 110 111 \; BUTTONS
64 65 66 67 68 69 70 71 72 73 74 75 \; USERBUTTONS 76 77 78 79 \; LEDS
64 65 66 67 68 69 70 71 72 73 74 75 76 77 78 79 \; USERLEDS 76 77 78
79 \; SERVOS 12 13 \; MOTORPWMS 14 15 \; MOTORINS 16 17 \;;
#X obj 79 621 text get inputs;
#X floatatom 79 600 5 0 0 0 - - -, f 5;
#X obj 79 795 array set POTS;
#X floatatom 530 367 5 0 0 0 - - -, f 5;
#X obj 530 392 array get POTS 0 1;
#X obj 80 817 array set BUTTONS;
#X floatatom 657 366 5 0 0 0 - - -, f 5;
#X obj 657 417 print BUTTONS;
#X obj 530 418 print POTS;
#X obj 657 391 array get BUTTONS 0 1;
#X obj 36 754 print;
#X msg 100 665 all;
#X obj 79 726 route all;
#X obj 80 840 array set JOYPOTS;
#X floatatom 800 365 5 0 0 0 - - -, f 5;
#X obj 800 390 array get JOYPOTS 0 1;
#X obj 800 416 print JOYPOTS;
#X floatatom 950 365 5 0 0 0 - - -, f 5;
#X floatatom 530 457 5 0 0 0 - - -, f 5;
#X floatatom 657 456 5 0 0 0 - - -, f 5;
#X floatatom 800 455 5 0 0 0 - - -, f 5;
#X floatatom 950 455 5 0 0 0 - - -, f 5;
#X obj 950 390 array get JOYBUTTONS 0 1;
#X obj 950 416 print JOYBUTTONS;
#X obj 530 482 array get LEDS 0 1;
#X obj 800 480 array get MOTORPWMS 0 1;
#X obj 950 480 array get MOTORINS 0 1;
#X obj 530 508 print LEDS;
#X obj 657 481 array get SERVOS 0 1;
#X obj 657 507 print SERVOS;
#X obj 800 506 print MOTORPWMS;
#X obj 950 506 print MOTORINS;
#X obj 171 426 text size inputs;
#X obj 171 403 bng 15 250 50 0 empty empty empty 17 7 0 10 -262144
-1 -1;
#X obj 171 451 - 1;
#X obj 82 863 array set JOYBUTTONS;
#X obj 83 886 array set LEDS;
#X obj 84 908 array set SERVOS;
#X obj 84 930 array set MOTORPWMS;
#X obj 84 952 array set MOTORINS;
#X obj 120 502 !=;
#X msg 89 426 1;
#X msg 60 426 0;
#X obj 120 527 sel 0;
#X obj 89 451 metro 20;
#X obj 120 552 t b b;
#X obj 86 313 t b b b;
#X obj 86 290 loadbang;
#X obj 238 453 print NUM OF ARRAYS:;
#X obj 80 27 array define POTS 0;
#X obj 80 47 array define BUTTONS 0;
#X obj 80 67 array define JOYPOTS 0;
#X obj 80 87 array define JOYBUTTONS 0;
#X obj 80 107 array define LEDS 0;
#X obj 80 127 array define SERVOS 0;
#X obj 80 147 array define MOTORPWMS 0;
#X obj 80 167 array define MOTORINS 0;
#X obj 80 187 array define USERPOTS 0;
#X obj 80 207 array define USERBUTTONS 0;
#X obj 84 974 array set USERPOTS;
#X obj 84 996 array set USERBUTTONS;
#X floatatom 530 547 5 0 0 0 - - -, f 5;
#X floatatom 530 637 5 0 0 0 - - -, f 5;
#X obj 530 688 print LEDS;
#X obj 530 572 array get USERPOTS 0 1;
#X obj 530 662 array get USERBUTTONS 0 1;
#X obj 142 292 bng 15 250 50 0 empty empty empty 17 7 0 10 -262144
-1 -1;
#X obj 80 227 array define USERLEDS 0;
#X floatatom 700 637 5 0 0 0 - - -, f 5;
#X obj 700 688 print LEDS;
#X obj 700 662 array get USERLEDS 0 1;
#X obj 80 247 array define USERINS 0;
#X floatatom 700 547 5 0 0 0 - - -, f 5;
#X obj 700 572 array get USERINS 0 1;
#X obj 700 598 print USERINS;
#X obj 530 598 print USERPOTS;
#X obj 84 1016 array set USERLEDS;
#X obj 84 1037 array set USERINS;
#X obj 79 753 route POTS BUTTONS JOYPOTS JOYBUTTONS LEDS SERVOS MOTORPWMS
MOTORINS USERPOTS USERBUTTONS USERLEDS USERINS, f 139;
#X obj 79 698 momol.dict;
#X obj 120 477 momol.counter 0;
#X connect 0 0 1 0;
#X connect 2 0 81 0;
#X connect 3 0 2 0;
#X connect 5 0 6 0;
#X connect 6 0 10 0;
#X connect 8 0 11 0;
#X connect 11 0 9 0;
#X connect 13 0 81 0;
#X connect 14 0 12 0;
#X connect 14 0 80 0;
#X connect 16 0 17 0;
#X connect 17 0 18 0;
#X connect 19 0 24 0;
#X connect 20 0 26 0;
#X connect 21 0 30 0;
#X connect 22 0 27 0;
#X connect 23 0 28 0;
#X connect 24 0 25 0;
#X connect 26 0 29 0;
#X connect 27 0 32 0;
#X connect 28 0 33 0;
#X connect 30 0 31 0;
#X connect 34 0 36 0;
#X connect 34 0 50 0;
#X connect 35 0 34 0;
#X connect 36 0 42 1;
#X connect 36 0 82 1;
#X connect 42 0 45 0;
#X connect 43 0 46 0;
#X connect 44 0 46 0;
#X connect 45 0 47 0;
#X connect 46 0 82 0;
#X connect 47 0 13 0;
#X connect 47 1 44 0;
#X connect 48 0 43 0;
#X connect 48 1 35 0;
#X connect 48 2 0 0;
#X connect 49 0 48 0;
#X connect 63 0 66 0;
#X connect 64 0 67 0;
#X connect 66 0 77 0;
#X connect 67 0 65 0;
#X connect 68 0 48 0;
#X connect 70 0 72 0;
#X connect 72 0 71 0;
#X connect 74 0 75 0;
#X connect 75 0 76 0;
#X connect 80 0 4 0;
#X connect 80 1 7 0;
#X connect 80 2 15 0;
#X connect 80 3 37 0;
#X connect 80 4 38 0;
#X connect 80 5 39 0;
#X connect 80 6 40 0;
#X connect 80 7 41 0;
#X connect 80 8 61 0;
#X connect 80 9 62 0;
#X connect 80 10 78 0;
#X connect 80 11 79 0;
#X connect 81 0 14 0;
#X connect 82 0 3 0;
#X connect 82 0 42 0;
