#N canvas 207 91 1232 644 10;
#X obj 266 120 vsl 15 64 0 127 0 0 empty empty empty 0 -9 0 10 -262144
-1 -1 0 1;
#X obj 181 120 vsl 15 64 0 127 0 0 empty empty empty 0 -9 0 10 -262144
-1 -1 0 1;
#X obj 1539 10 loadbang;
#X obj 1539 424 route 0;
#X obj 1539 362 ctlin;
#X obj 1678 425 route 0;
#X obj 1678 363 ctlin;
#X obj 1539 392 pack 0 0;
#X obj 1678 393 pack 0 0;
#X floatatom 1592 343 5 0 0 0 - - -, f 5;
#X obj 576 65 r \$0potA;
#X obj 631 65 r \$0potB;
#X obj 1678 455 s \$0potB;
#X obj 1539 454 s \$0potA;
#X floatatom 1733 341 5 0 0 0 - - -, f 5;
#X obj 2199 424 route 0;
#X obj 2358 425 route 0;
#X obj 2199 392 pack 0 0;
#X obj 2358 393 pack 0 0;
#X obj 2199 454 s \$0btnA;
#X obj 2358 454 s \$0btnB;
#X obj 2199 362 notein;
#X obj 2358 363 notein;
#X obj 1111 503 noteout;
#X obj 1111 468 f;
#X obj 1111 442 t b f;
#X obj 1111 373 noteout;
#X obj 1111 338 f;
#X obj 1111 312 t b f;
#X floatatom 1152 464 5 0 0 0 - - -, f 5;
#X floatatom 1152 334 5 0 0 0 - - -, f 5;
#X text 1517 312 INPUTS:;
#X text 1042 282 OUTPUTS:;
#X obj 1152 312 array get USERLEDS 0 1;
#X obj 1152 442 array get USERLEDS 0 1;
#X obj 1301 503 noteout;
#X obj 1301 468 f;
#X obj 1301 442 t b f;
#X obj 1301 373 noteout;
#X obj 1301 338 f;
#X obj 1301 312 t b f;
#X floatatom 1342 464 5 0 0 0 - - -, f 5;
#X floatatom 1342 334 5 0 0 0 - - -, f 5;
#X obj 1342 312 array get USERLEDS 0 1;
#X obj 1342 442 array get USERLEDS 0 1;
#X msg 1539 52 0;
#X msg 1629 52 3;
#X msg 1569 52 1;
#X msg 1599 52 2;
#X obj 1815 424 route 0;
#X obj 1815 362 ctlin;
#X obj 1955 425 route 0;
#X obj 1955 363 ctlin;
#X obj 1815 392 pack 0 0;
#X obj 1955 393 pack 0 0;
#X floatatom 1868 343 5 0 0 0 - - -, f 5;
#X floatatom 2010 341 5 0 0 0 - - -, f 5;
#X obj 1815 454 s \$0potC;
#X obj 1955 455 s \$0potD;
#X obj 2515 424 route 0;
#X obj 2674 425 route 0;
#X obj 2515 392 pack 0 0;
#X obj 2674 393 pack 0 0;
#X obj 2515 362 notein;
#X obj 2674 363 notein;
#X obj 2515 454 s \$0btnC;
#X obj 2674 454 s \$0btnD;
#X obj 2238 313 array get USERBUTTONS 0 1;
#X obj 2396 313 array get USERBUTTONS 0 1;
#X obj 2554 313 array get USERBUTTONS 0 1;
#X obj 2712 313 array get USERBUTTONS 0 1;
#X obj 439 120 vsl 15 64 0 127 0 0 empty empty empty 0 -9 0 10 -262144
-1 -1 0 1;
#X obj 351 120 vsl 15 64 0 127 0 0 empty empty empty 0 -9 0 10 -262144
-1 -1 0 1;
#X obj 686 65 r \$0potC;
#X obj 741 65 r \$0potD;
#X obj 1111 287 r \$0uledA;
#X obj 1301 287 r \$0uledB;
#X obj 1111 417 r \$0uledC;
#X obj 1301 417 r \$0uledD;
#X obj 576 265 r \$0btnA;
#X obj 632 265 r \$0btnB;
#X obj 687 265 r \$0btnC;
#X obj 743 265 r \$0btnD;
#X obj 181 380 tgl 15 0 empty empty empty 17 7 0 10 -262144 -1 -1 0
1;
#X obj 265 380 tgl 15 0 empty empty empty 17 7 0 10 -262144 -1 -1 0
1;
#X obj 351 380 tgl 15 0 empty empty empty 17 7 0 10 -262144 -1 -1 0
1;
#X obj 437 380 tgl 15 0 empty empty empty 17 7 0 10 -262144 -1 -1 0
1;
#X text 184 188 1;
#X text 269 188 2;
#X text 355 188 3;
#X text 443 188 4;
#X text 113 139 Knob;
#X text 114 379 S;
#X text 182 398 5;
#X text 266 398 6;
#X text 354 398 7;
#X text 440 398 8;
#X obj 1578 313 array get USERPOTS 0 1;
#X obj 1716 313 array get USERPOTS 0 1;
#X obj 1854 313 array get USERPOTS 0 1;
#X obj 1993 313 array get USERPOTS 0 1;
#X obj 1539 614 route 0;
#X obj 1539 552 ctlin;
#X obj 1678 615 route 0;
#X obj 1678 553 ctlin;
#X obj 1539 582 pack 0 0;
#X obj 1678 583 pack 0 0;
#X floatatom 1592 533 5 0 0 0 - - -, f 5;
#X floatatom 1733 531 5 0 0 0 - - -, f 5;
#X obj 1815 614 route 0;
#X obj 1815 552 ctlin;
#X obj 1955 615 route 0;
#X obj 1955 553 ctlin;
#X obj 1815 582 pack 0 0;
#X obj 1955 583 pack 0 0;
#X floatatom 1868 533 5 0 0 0 - - -, f 5;
#X floatatom 2010 531 5 0 0 0 - - -, f 5;
#X obj 1578 503 array get USERINS 0 1;
#X obj 1716 503 array get USERINS 0 1;
#X obj 1854 503 array get USERINS 0 1;
#X obj 1993 503 array get USERINS 0 1;
#X obj 1539 644 s \$0inA;
#X obj 1678 645 s \$0inB;
#X obj 1815 644 s \$0inC;
#X obj 1955 645 s \$0inD;
#X obj 266 227 vsl 15 64 0 127 0 0 empty empty empty 0 -9 0 10 -262144
-1 -1 0 1;
#X obj 181 227 vsl 15 64 0 127 0 0 empty empty empty 0 -9 0 10 -262144
-1 -1 1700 1;
#X obj 439 227 vsl 15 64 0 127 0 0 empty empty empty 0 -9 0 10 -262144
-1 -1 0 1;
#X obj 351 227 vsl 15 64 0 127 0 0 empty empty empty 0 -9 0 10 -262144
-1 -1 0 1;
#X text 113 246 AN-In;
#X obj 576 175 r \$0inA;
#X obj 631 175 r \$0inB;
#X obj 686 175 r \$0inC;
#X obj 741 175 r \$0inD;
#X obj 19 13 inlet;
#X obj 215 330 tgl 15 0 empty empty empty 17 7 0 10 -262144 -1 -1 0
1;
#X obj 150 330 hsl 64 15 0 127 0 0 empty empty S5_LED 20 22 0 8 -262144
-1 -1 0 1;
#X msg 103 513 set \$1;
#X obj 103 489 * 127;
#X obj 102 538 s \$0uledA;
#X obj 300 330 tgl 15 0 empty empty empty 17 7 0 10 -262144 -1 -1 0
1;
#X obj 235 330 hsl 64 15 0 127 0 0 empty empty S6_LED 20 22 0 8 -262144
-1 -1 0 1;
#X msg 186 513 set \$1;
#X obj 186 489 * 127;
#X obj 185 538 s \$0uledB;
#X obj 387 330 tgl 15 0 empty empty empty 17 7 0 10 -262144 -1 -1 0
1;
#X obj 322 330 hsl 64 15 0 127 0 0 empty empty S7_LED 20 22 0 8 -262144
-1 -1 0 1;
#X msg 273 513 set \$1;
#X obj 273 489 * 127;
#X obj 473 330 tgl 15 0 empty empty empty 17 7 0 10 -262144 -1 -1 1
1;
#X obj 408 330 hsl 64 15 0 127 0 0 empty empty S8_LED 20 22 0 8 -262144
-1 -1 6300 1;
#X msg 359 513 set \$1;
#X obj 359 489 * 127;
#X obj 272 538 s \$0uledC;
#X obj 358 538 s \$0uledD;
#X text 113 330 LEDS;
#N canvas 557 102 157 160 setter 0;
#X obj 31 42 == 127;
#X obj 31 64 sel 1;
#X msg 31 86 set 1;
#X msg 73 86 set 0;
#X obj 31 117 outlet;
#X obj 31 14 inlet;
#X connect 0 0 1 0;
#X connect 1 0 2 0;
#X connect 1 1 3 0;
#X connect 2 0 4 0;
#X connect 3 0 4 0;
#X connect 5 0 0 0;
#X restore 42 458 pd setter;
#N canvas 557 102 157 160 setter 0;
#X obj 31 42 == 127;
#X obj 31 64 sel 1;
#X msg 31 86 set 1;
#X msg 73 86 set 0;
#X obj 31 117 outlet;
#X obj 31 14 inlet;
#X connect 0 0 1 0;
#X connect 1 0 2 0;
#X connect 1 1 3 0;
#X connect 2 0 4 0;
#X connect 3 0 4 0;
#X connect 5 0 0 0;
#X restore 124 458 pd setter;
#N canvas 557 102 157 160 setter 0;
#X obj 31 42 == 127;
#X obj 31 64 sel 1;
#X msg 31 86 set 1;
#X msg 73 86 set 0;
#X obj 31 117 outlet;
#X obj 31 14 inlet;
#X connect 0 0 1 0;
#X connect 1 0 2 0;
#X connect 1 1 3 0;
#X connect 2 0 4 0;
#X connect 3 0 4 0;
#X connect 5 0 0 0;
#X restore 212 458 pd setter;
#N canvas 557 102 157 160 setter 0;
#X obj 31 42 == 127;
#X obj 31 64 sel 1;
#X msg 31 86 set 1;
#X msg 73 86 set 0;
#X obj 31 117 outlet;
#X obj 31 14 inlet;
#X connect 0 0 1 0;
#X connect 1 0 2 0;
#X connect 1 1 3 0;
#X connect 2 0 4 0;
#X connect 3 0 4 0;
#X connect 5 0 0 0;
#X restore 301 458 pd setter;
#X obj 19 35 route /l1 /l2 /l3 /l4;
#X msg 576 87 set \$1;
#X msg 631 87 set \$1;
#X msg 686 87 set \$1;
#X msg 741 87 set \$1;
#X msg 576 197 set \$1;
#X msg 631 197 set \$1;
#X msg 686 197 set \$1;
#X msg 741 197 set \$1;
#X msg 576 287 set \$1;
#X msg 632 287 set \$1;
#X msg 687 287 set \$1;
#X msg 743 287 set \$1;
#X obj 933 249 outlet;
#X msg 576 228 /an1 \$1;
#X msg 628 228 /an2 \$1;
#X msg 681 228 /an3 \$1;
#X msg 735 228 /an4 \$1;
#X msg 576 118 /k1 \$1;
#X msg 631 118 /k2 \$1;
#X msg 686 118 /k3 \$1;
#X msg 741 118 /k4 \$1;
#X text 916 221 MAIN OUTLET:;
#X text 172 202 [/k1];
#X text 255 202 [/k2];
#X text 342 202 [/k3];
#X text 429 202 [/k4];
#X text 168 307 [/an1];
#X text 253 307 [/an2];
#X text 338 307 [/an3];
#X text 426 307 [/an4];
#X text 171 356 [/l1];
#X text 254 356 [/l2];
#X text 340 356 [/l3];
#X text 427 356 [/l4];
#X text 171 412 [/s1];
#X text 255 412 [/s2];
#X text 341 412 [/s3];
#X text 427 412 [/s4];
#X text 184 295 1;
#X text 269 295 2;
#X text 355 295 3;
#X text 443 295 4;
#X msg 567 333 /s1 \$1;
#X msg 617 333 /s2 \$1;
#X msg 667 333 /s3 \$1;
#X msg 718 333 /s4 \$1;
#X connect 0 0 179 0;
#X connect 1 0 178 0;
#X connect 2 0 45 0;
#X connect 2 0 46 0;
#X connect 2 0 47 0;
#X connect 2 0 48 0;
#X connect 3 0 13 0;
#X connect 4 0 7 1;
#X connect 4 1 7 0;
#X connect 5 0 12 0;
#X connect 6 0 8 1;
#X connect 6 1 8 0;
#X connect 7 0 3 0;
#X connect 8 0 5 0;
#X connect 10 0 161 0;
#X connect 10 0 178 0;
#X connect 11 0 162 0;
#X connect 11 0 179 0;
#X connect 15 0 19 0;
#X connect 16 0 20 0;
#X connect 17 0 15 0;
#X connect 18 0 16 0;
#X connect 21 0 17 0;
#X connect 21 1 17 1;
#X connect 22 0 18 0;
#X connect 22 1 18 1;
#X connect 24 0 23 0;
#X connect 25 0 24 0;
#X connect 25 1 23 1;
#X connect 27 0 26 0;
#X connect 28 0 27 0;
#X connect 28 1 26 1;
#X connect 33 0 27 1;
#X connect 33 0 30 0;
#X connect 34 0 24 1;
#X connect 34 0 29 0;
#X connect 36 0 35 0;
#X connect 37 0 36 0;
#X connect 37 1 35 1;
#X connect 39 0 38 0;
#X connect 40 0 39 0;
#X connect 40 1 38 1;
#X connect 43 0 39 1;
#X connect 43 0 42 0;
#X connect 44 0 36 1;
#X connect 44 0 41 0;
#X connect 45 0 33 0;
#X connect 45 0 67 0;
#X connect 45 0 97 0;
#X connect 45 0 117 0;
#X connect 46 0 44 0;
#X connect 46 0 70 0;
#X connect 46 0 100 0;
#X connect 46 0 120 0;
#X connect 47 0 43 0;
#X connect 47 0 68 0;
#X connect 47 0 98 0;
#X connect 47 0 118 0;
#X connect 48 0 34 0;
#X connect 48 0 69 0;
#X connect 48 0 99 0;
#X connect 48 0 119 0;
#X connect 49 0 57 0;
#X connect 50 0 53 1;
#X connect 50 1 53 0;
#X connect 51 0 58 0;
#X connect 52 0 54 1;
#X connect 52 1 54 0;
#X connect 53 0 49 0;
#X connect 54 0 51 0;
#X connect 59 0 65 0;
#X connect 60 0 66 0;
#X connect 61 0 59 0;
#X connect 62 0 60 0;
#X connect 63 0 61 0;
#X connect 63 1 61 1;
#X connect 64 0 62 0;
#X connect 64 1 62 1;
#X connect 67 0 15 1;
#X connect 68 0 16 1;
#X connect 69 0 59 1;
#X connect 70 0 60 1;
#X connect 71 0 181 0;
#X connect 72 0 180 0;
#X connect 73 0 163 0;
#X connect 73 0 180 0;
#X connect 74 0 164 0;
#X connect 74 0 181 0;
#X connect 75 0 28 0;
#X connect 76 0 40 0;
#X connect 77 0 25 0;
#X connect 78 0 37 0;
#X connect 79 0 169 0;
#X connect 79 0 203 0;
#X connect 80 0 170 0;
#X connect 80 0 204 0;
#X connect 81 0 171 0;
#X connect 81 0 205 0;
#X connect 82 0 172 0;
#X connect 82 0 206 0;
#X connect 83 0 203 0;
#X connect 84 0 204 0;
#X connect 85 0 205 0;
#X connect 86 0 206 0;
#X connect 97 0 3 1;
#X connect 97 0 9 0;
#X connect 98 0 5 1;
#X connect 98 0 14 0;
#X connect 99 0 49 1;
#X connect 99 0 55 0;
#X connect 100 0 51 1;
#X connect 100 0 56 0;
#X connect 101 0 121 0;
#X connect 102 0 105 1;
#X connect 102 1 105 0;
#X connect 103 0 122 0;
#X connect 104 0 106 1;
#X connect 104 1 106 0;
#X connect 105 0 101 0;
#X connect 106 0 103 0;
#X connect 109 0 123 0;
#X connect 110 0 113 1;
#X connect 110 1 113 0;
#X connect 111 0 124 0;
#X connect 112 0 114 1;
#X connect 112 1 114 0;
#X connect 113 0 109 0;
#X connect 114 0 111 0;
#X connect 117 0 101 1;
#X connect 117 0 107 0;
#X connect 118 0 103 1;
#X connect 118 0 108 0;
#X connect 119 0 109 1;
#X connect 119 0 115 0;
#X connect 120 0 111 1;
#X connect 120 0 116 0;
#X connect 125 0 175 0;
#X connect 126 0 174 0;
#X connect 127 0 177 0;
#X connect 128 0 176 0;
#X connect 130 0 165 0;
#X connect 130 0 174 0;
#X connect 131 0 166 0;
#X connect 131 0 175 0;
#X connect 132 0 167 0;
#X connect 132 0 176 0;
#X connect 133 0 168 0;
#X connect 133 0 177 0;
#X connect 134 0 160 0;
#X connect 135 0 138 0;
#X connect 136 0 139 0;
#X connect 136 0 156 0;
#X connect 137 0 136 0;
#X connect 138 0 137 0;
#X connect 138 0 139 0;
#X connect 140 0 143 0;
#X connect 141 0 144 0;
#X connect 141 0 157 0;
#X connect 142 0 141 0;
#X connect 143 0 142 0;
#X connect 143 0 144 0;
#X connect 145 0 148 0;
#X connect 146 0 153 0;
#X connect 146 0 158 0;
#X connect 147 0 146 0;
#X connect 148 0 147 0;
#X connect 148 0 153 0;
#X connect 149 0 152 0;
#X connect 150 0 154 0;
#X connect 150 0 159 0;
#X connect 151 0 150 0;
#X connect 152 0 151 0;
#X connect 152 0 154 0;
#X connect 156 0 135 0;
#X connect 157 0 140 0;
#X connect 158 0 145 0;
#X connect 159 0 149 0;
#X connect 160 0 136 0;
#X connect 160 1 141 0;
#X connect 160 2 146 0;
#X connect 160 3 150 0;
#X connect 161 0 1 0;
#X connect 162 0 0 0;
#X connect 163 0 72 0;
#X connect 164 0 71 0;
#X connect 165 0 126 0;
#X connect 166 0 125 0;
#X connect 167 0 128 0;
#X connect 168 0 127 0;
#X connect 169 0 83 0;
#X connect 170 0 84 0;
#X connect 171 0 85 0;
#X connect 172 0 86 0;
#X connect 174 0 173 0;
#X connect 175 0 173 0;
#X connect 176 0 173 0;
#X connect 177 0 173 0;
#X connect 178 0 173 0;
#X connect 179 0 173 0;
#X connect 180 0 173 0;
#X connect 181 0 173 0;
#X connect 203 0 173 0;
#X connect 204 0 173 0;
#X connect 205 0 173 0;
#X connect 206 0 173 0;
#X coords 0 -1 1 1 400 330 1 100 100;
