#N canvas 576 22 711 421 10;
#X msg 144 169 send silence 1;
#X obj 43 102 netreceive 3001;
#X obj 46 144 print;
#N canvas 425 182 965 459 senders 0;
#X obj 605 188 inlet;
#X floatatom 72 196 0 0 0 0 - - -;
#X obj 72 169 netsend;
#X floatatom 223 194 0 0 0 0 - - -;
#X obj 223 167 netsend;
#X msg 220 136 connect 192.168.1.3 3001;
#X floatatom 376 192 0 0 0 0 - - -;
#X obj 376 165 netsend;
#X floatatom 238 303 0 0 0 0 - - -;
#X obj 238 276 netsend;
#X floatatom 406 302 0 0 0 0 - - -;
#X obj 406 275 netsend;
#X floatatom 72 305 0 0 0 0 - - -;
#X obj 72 278 netsend;
#X msg 69 138 connect 192.168.1.2 3001;
#X msg 379 134 connect 192.168.1.4 3001;
#X msg 69 247 connect 192.168.1.5 3001;
#X msg 235 245 connect 192.168.1.6 3001;
#X msg 403 244 connect 192.168.1.7 3001;
#X obj 1 155 loadbang, f 2;
#X connect 0 0 2 0;
#X connect 0 0 4 0;
#X connect 0 0 7 0;
#X connect 0 0 13 0;
#X connect 0 0 9 0;
#X connect 0 0 11 0;
#X connect 2 0 1 0;
#X connect 4 0 3 0;
#X connect 5 0 4 0;
#X connect 7 0 6 0;
#X connect 9 0 8 0;
#X connect 11 0 10 0;
#X connect 13 0 12 0;
#X connect 14 0 2 0;
#X connect 15 0 7 0;
#X connect 16 0 13 0;
#X connect 17 0 9 0;
#X connect 18 0 11 0;
#X connect 19 0 14 0;
#X connect 19 0 5 0;
#X connect 19 0 15 0;
#X connect 19 0 16 0;
#X connect 19 0 17 0;
#X connect 19 0 18 0;
#X restore 298 266 pd senders;
#X msg 307 153 send foo \$1;
#X obj 307 117 random 100;
#X obj 302 77 metro 250;
#X obj 298 38 tgl 15 0 empty empty empty 17 7 0 10 -262144 -1 -1 0
1;
#X connect 0 0 3 0;
#X connect 1 0 2 0;
#X connect 4 0 3 0;
#X connect 5 0 4 0;
#X connect 6 0 5 0;
#X connect 7 0 6 0;
