#N canvas 338 285 972 653 10;
#X obj 395 205 netsend;
#X floatatom 391 240 5 0 0 0 - - -, f 5;
#X obj 224 206 netsend;
#X floatatom 220 241 5 0 0 0 - - -, f 5;
#X obj 557 206 netsend;
#X floatatom 553 241 5 0 0 0 - - -, f 5;
#X msg 229 150 connect 192.168.1.2 3001;
#X msg 400 149 connect 192.168.1.3 3001;
#X msg 562 150 connect 192.168.1.4 3001;
#X obj 208 371 netsend;
#X floatatom 204 406 5 0 0 0 - - -, f 5;
#X msg 213 315 connect 192.168.1.5 3001;
#X obj 392 382 netsend;
#X floatatom 388 417 5 0 0 0 - - -, f 5;
#X msg 397 326 connect 192.168.1.6 3001;
#X obj 552 386 netsend;
#X floatatom 548 421 5 0 0 0 - - -, f 5;
#X msg 557 330 connect 192.168.1.7 3001;
#X obj 563 100 delay 1000;
#X obj 382 90 delay 1000;
#X obj 211 281 delay 1000;
#X obj 556 288 delay 1000;
#X obj 409 283 delay 1000;
#X obj 289 21 loadbang;
#X obj 29 151 inlet;
#X obj 293 53 delay 20000;
#X obj 239 94 metro 60000;
#X connect 0 0 1 0;
#X connect 2 0 3 0;
#X connect 4 0 5 0;
#X connect 6 0 2 0;
#X connect 7 0 0 0;
#X connect 8 0 4 0;
#X connect 9 0 10 0;
#X connect 11 0 9 0;
#X connect 12 0 13 0;
#X connect 14 0 12 0;
#X connect 15 0 16 0;
#X connect 17 0 15 0;
#X connect 18 0 8 0;
#X connect 18 0 20 0;
#X connect 19 0 7 0;
#X connect 19 0 18 0;
#X connect 20 0 11 0;
#X connect 20 0 22 0;
#X connect 21 0 17 0;
#X connect 22 0 14 0;
#X connect 22 0 21 0;
#X connect 23 0 25 0;
#X connect 24 0 2 0;
#X connect 24 0 0 0;
#X connect 24 0 4 0;
#X connect 24 0 9 0;
#X connect 24 0 12 0;
#X connect 24 0 15 0;
#X connect 25 0 26 0;
#X connect 26 0 6 0;
#X connect 26 0 19 0;
