#N canvas 565 187 736 493 10;
#X msg 147 127 send foo \$1;
#X obj 142 82 random 100;
#X obj 139 46 metro 100;
#X obj 137 11 tgl 15 0 empty empty empty 17 7 0 10 -262144 -1 -1 0
1;
#X obj 395 205 netsend;
#X floatatom 391 240 5 0 0 0 - - -, f 5;
#X obj 224 206 netsend;
#X floatatom 220 241 5 0 0 0 - - -, f 5;
#X obj 293 53 loadbang;
#X obj 557 206 netsend;
#X floatatom 553 241 5 0 0 0 - - -, f 5;
#X msg 229 150 connect 192.168.1.2 3001;
#X msg 400 149 connect 192.168.1.3 3001;
#X msg 562 150 connect 192.168.1.4 3001;
#X connect 0 0 6 0;
#X connect 0 0 4 0;
#X connect 1 0 0 0;
#X connect 2 0 1 0;
#X connect 3 0 2 0;
#X connect 4 0 5 0;
#X connect 6 0 7 0;
#X connect 8 0 11 0;
#X connect 8 0 12 0;
#X connect 8 0 13 0;
#X connect 9 0 10 0;
#X connect 11 0 6 0;
#X connect 12 0 4 0;
#X connect 13 0 9 0;
