#N canvas 145 111 972 653 10;
#X msg 147 127 send foo \$1;
#X obj 142 82 random 100;
#X obj 139 46 metro 100;
#X obj 137 11 tgl 15 0 empty empty empty 17 7 0 10 -262144 -1 -1 0
1;
#X obj 395 205 netsend;
#X floatatom 391 240 5 0 0 0 - - -, f 5;
#X obj 224 206 netsend;
#X floatatom 220 241 5 0 0 0 - - -, f 5;
#X obj 293 53 loadbang;
#X obj 557 206 netsend;
#X floatatom 553 241 5 0 0 0 - - -, f 5;
#X msg 229 150 connect 192.168.1.2 3001;
#X msg 400 149 connect 192.168.1.3 3001;
#X msg 562 150 connect 192.168.1.4 3001;
#X obj 208 371 netsend;
#X floatatom 204 406 5 0 0 0 - - -, f 5;
#X msg 213 315 connect 192.168.1.5 3001;
#X obj 392 382 netsend;
#X floatatom 388 417 5 0 0 0 - - -, f 5;
#X msg 397 326 connect 192.168.1.6 3001;
#X obj 552 386 netsend;
#X floatatom 548 421 5 0 0 0 - - -, f 5;
#X msg 557 330 connect 192.168.1.7 3001;
#X obj 563 111 delay 1000;
#X obj 382 90 delay 1000;
#X obj 224 281 delay 1000;
#X obj 146 234 print;
#X connect 0 0 6 0;
#X connect 0 0 4 0;
#X connect 1 0 0 0;
#X connect 2 0 1 0;
#X connect 3 0 2 0;
#X connect 4 0 5 0;
#X connect 6 0 7 0;
#X connect 6 0 26 0;
#X connect 8 0 11 0;
#X connect 8 0 24 0;
#X connect 9 0 10 0;
#X connect 11 0 6 0;
#X connect 12 0 4 0;
#X connect 13 0 9 0;
#X connect 14 0 15 0;
#X connect 16 0 14 0;
#X connect 17 0 18 0;
#X connect 19 0 17 0;
#X connect 20 0 21 0;
#X connect 22 0 20 0;
#X connect 23 0 13 0;
#X connect 23 0 25 0;
#X connect 24 0 12 0;
#X connect 24 0 23 0;
#X connect 25 0 16 0;
