#N canvas 431 556 760 347 10;
#X obj 75 31 notein;
#X floatatom 57 88 5 0 0 0 - - -, f 5;
#X floatatom 96 82 5 0 0 0 - - -, f 5;
#X floatatom 160 87 5 0 0 0 - - -, f 5;
#X floatatom 199 81 5 0 0 0 - - -, f 5;
#X obj 178 30 ctlin;
#X obj 54 130 loadbang;
#X obj 49 174 del 4000;
#X floatatom 354 70 5 0 0 0 - - -, f 5;
#X obj 467 39 notein;
#X obj 473 103 swap;
#X obj 499 137 == 61;
#X obj 471 167 spigot;
#X floatatom 472 198 5 0 0 0 - - -, f 5;
#X obj 588 133 noteout;
#X msg 57 271 \; pd midi-properties;
#X obj 595 85 makenote 64 250;
#X floatatom 595 38 5 0 0 0 - - -, f 5;
#X msg 59 220 \; pd midi-dialog 1 0 0 0 0 0 0 0 0 1 0 0 0 0 0 0 0 0
0 0;
#X obj 300 98 hsl 128 15 0 127 0 0 empty empty empty -2 -8 0 10 -262144
-1 -1 500 1;
#X obj 357 30 ctlin 23;
#X connect 0 0 1 0;
#X connect 0 1 2 0;
#X connect 5 0 3 0;
#X connect 5 1 4 0;
#X connect 6 0 7 0;
#X connect 7 0 18 0;
#X connect 9 0 10 0;
#X connect 9 1 10 1;
#X connect 10 0 12 0;
#X connect 10 1 11 0;
#X connect 11 0 12 1;
#X connect 12 0 13 0;
#X connect 16 0 14 0;
#X connect 16 1 14 1;
#X connect 17 0 16 0;
#X connect 20 0 8 0;
#X connect 20 0 19 0;
