#N canvas 0 23 1366 667 10;
#X obj 215 138 tabwrite~ record;
#X msg 290 63 bang;
#X msg 319 91 stop;
#X obj 141 96 vu 15 80 empty empty -1 -8 0 8 -66577 -1 1 0;
#X floatatom 84 159 5 0 0 0 - - -, f 5;
#X obj 84 113 env~;
#X obj 84 136 - 101;
#X obj 213 166 table record;
#X obj 1024 206 metro 1;
#X obj 1024 311 i;
#X obj 1060 311 + 1;
#X obj 1052 272 t 0;
#X obj 1036 237 r stoprec;
#X obj 351 26 r startrec;
#X obj 367 61 r stoprec;
#X obj 941 355 i;
#X obj 936 303 r stoprec;
#X obj 1006 467 s rec-dur;
#X obj 363 538 vu 15 80 empty empty -1 -8 0 8 -66577 -1 1 0;
#X obj 172 439 *~;
#X obj 206 13 adc~ 1;
#X obj 216 43 *~ 1;
#X floatatom 261 11 5 0 0 0 - - -, f 5;
#X obj 179 578 dac~;
#X obj 497 69 samplerate~;
#X obj 497 42 r pd-dsp-started;
#X obj 498 104 s samp-rate;
#X floatatom 1279 336 5 0 0 0 - - -, f 5;
#X obj 1275 366 s grain-offset;
#N canvas 0 22 724 528 (subpatch) 0;
#X array hanning 256 float 1;
#A 0 0 0.000150591 0.000602275 0.00135478 0.00240764 0.00376022 0.00541174
0.00736117 0.00960734 0.0121489 0.0149843 0.0181119 0.0215298 0.0252359
0.0292279 0.0335035 0.0380601 0.042895 0.0480052 0.0533877 0.0590392
0.0649563 0.0711355 0.077573 0.084265 0.0912073 0.0983959 0.105826
0.113494 0.121395 0.129524 0.137876 0.146446 0.155229 0.16422 0.173413
0.182803 0.192384 0.20215 0.212095 0.222214 0.2325 0.242948 0.25355
0.264301 0.275194 0.286222 0.297379 0.308658 0.320052 0.331555 0.343159
0.354857 0.366643 0.378509 0.390449 0.402454 0.414519 0.426634 0.438794
0.450991 0.463218 0.475466 0.487729 0.5 0.512271 0.524534 0.536782
0.549009 0.561205 0.573365 0.585481 0.597545 0.609551 0.62149 0.633357
0.645143 0.656841 0.668445 0.679948 0.691342 0.702621 0.713778 0.724806
0.735699 0.74645 0.757052 0.767499 0.777786 0.787905 0.79785 0.807616
0.817197 0.826587 0.83578 0.844771 0.853554 0.862124 0.870476 0.878605
0.886506 0.894174 0.901605 0.908793 0.915736 0.922428 0.928865 0.935044
0.940961 0.946613 0.951995 0.957106 0.96194 0.966497 0.970773 0.974765
0.978471 0.981889 0.985016 0.987852 0.990393 0.992639 0.994589 0.99624
0.997593 0.998645 0.999398 0.999849 1 0.999849 0.999398 0.998645 0.997592
0.996239 0.994588 0.992638 0.990392 0.987851 0.985015 0.981887 0.978469
0.974763 0.970771 0.966495 0.961939 0.957104 0.951993 0.946611 0.940959
0.935042 0.928863 0.922425 0.915733 0.908791 0.901602 0.894171 0.886503
0.878602 0.870473 0.862121 0.853551 0.844768 0.835777 0.826584 0.817194
0.807613 0.797847 0.787901 0.777782 0.767496 0.757048 0.746446 0.735695
0.724802 0.713774 0.702617 0.691338 0.679944 0.668441 0.656837 0.645139
0.633353 0.621486 0.609547 0.597541 0.585477 0.573361 0.561201 0.549004
0.536778 0.52453 0.512266 0.499996 0.487725 0.475462 0.463213 0.450987
0.43879 0.42663 0.414515 0.40245 0.390445 0.378505 0.366639 0.354853
0.343155 0.331551 0.320048 0.308654 0.297375 0.286218 0.27519 0.264297
0.253547 0.242944 0.232497 0.222211 0.212092 0.202146 0.19238 0.182799
0.17341 0.164217 0.155226 0.146443 0.137873 0.129521 0.121392 0.113491
0.105823 0.0983929 0.0912044 0.0842621 0.0775702 0.0711328 0.0649537
0.0590367 0.0533853 0.0480029 0.0428928 0.038058 0.0335015 0.029226
0.025234 0.0215281 0.0181104 0.0149829 0.0121476 0.00960615 0.0073601
0.00541082 0.00375944 0.00240701 0.00135431 0.000601947 0.000150442
;
#X coords 0 1 256 0 40 30 1;
#X restore 943 43 graph;
#X text 927 61 0;
#X text 927 38 1;
#X text 930 77 0;
#X text 966 77 256;
#X obj 1367 207 r rec-dur;
#X floatatom 867 397 5 0 0 0 - - -, f 5;
#N canvas 371 310 1238 628 setup 0;
#X obj 60 41 loadbang;
#X msg 35 175 \; pd dsp 1;
#X obj 63 96 del 2000;
#X msg 169 101 \; record resize 882000;
#X msg 152 146 \; pd midi-dialog 1 0 0 0 0 0 0 0 0 1 0 0 0 0 0 0 0
0 0 0;
#X msg 103 233 \; pd midi-properties;
#X msg 230 232 \; pd audio-properties;
#X msg 127 181 \; pd audio-dialog 2 0 0 0 1 0 0 0 2 0 0 0 2 0 0 0 44100
25 0 64;
#X obj 708 221 noteout;
#X obj 755 263 r pd-dsp-stopped;
#X obj 742 321 bng 15 250 50 0 empty empty empty 17 7 0 10 -262144
-1 -1;
#X obj 647 311 bng 15 250 50 0 empty empty empty 17 7 0 10 -262144
-1 -1;
#X obj 643 265 r pd-dsp-started;
#X msg 655 345 63 120;
#X msg 739 346 63 0;
#X obj 973 129 metro 22;
#X obj 951 50 loadbang;
#X msg 969 86 1, f 2;
#X obj 974 173 s bangs;
#X obj 702 93 snapshot~;
#X obj 664 54 r bangs;
#X obj 710 133 expr ($f1 * 0.5 + 0.5) * 127;
#X msg 707 174 63 \$1;
#X obj 733 52 osc~ 0.3;
#X connect 0 0 3 0;
#X connect 0 0 2 0;
#X connect 2 0 1 0;
#X connect 2 0 4 0;
#X connect 9 0 10 0;
#X connect 10 0 14 0;
#X connect 11 0 13 0;
#X connect 12 0 11 0;
#X connect 13 0 8 0;
#X connect 14 0 8 0;
#X connect 15 0 18 0;
#X connect 16 0 17 0;
#X connect 17 0 15 0;
#X connect 19 0 21 0;
#X connect 20 0 19 0;
#X connect 21 0 22 0;
#X connect 22 0 8 0;
#X connect 23 0 19 0;
#X restore 642 41 pd setup;
#X obj 1275 156 phasor~ 0.5;
#X obj 1276 202 snapshot~;
#X obj 1274 245 * 1000;
#X obj 1222 23 r rec-dur;
#X obj 1218 66 expr 1000 / $f1;
#X floatatom 1217 97 5 0 0 0 - - -, f 5;
#X obj 1284 125 * 1;
#X obj 1313 98 t b f;
#N canvas 85 54 1359 595 controls 1;
#X floatatom 71 411 5 0 0 0 - - -, f 5;
#X obj 78 538 s pitch;
#X obj 70 36 vsl 15 128 0 127 0 0 empty empty empty 0 -9 0 10 -262144
-1 -1 9400 1;
#X obj 257 299 s grain-size;
#X obj 258 74 vsl 15 128 0 127 0 0 empty empty empty 0 -9 0 10 -262144
-1 -1 700 1;
#X obj 418 81 vsl 15 128 0 127 0 0 empty empty empty 0 -9 0 10 -262144
-1 -1 8700 1;
#X obj 420 321 s speed;
#X obj 655 457 tgl 15 0 empty empty empty 17 7 0 10 -262144 -1 -1 0
1;
#N canvas 360 55 1029 719 record-controls 0;
#X obj 332 497 outlet;
#X obj 150 116 key;
#X obj 149 220 t 1;
#X obj 195 220 t 0;
#X obj 151 150 change;
#X text 96 69 type "1" to start;
#X text 104 85 type "2" to stop;
#X obj 318 123 ctlin;
#X obj 318 188 spigot, f 11;
#X obj 130 311 spigot;
#X obj 196 282 tgl 15 0 empty empty empty 17 7 0 10 -262144 -1 -1 0
1;
#X obj 316 152 swap;
#X text 395 188 only non-zero ctl data;
#X obj 148 187 sel 49 50;
#X floatatom 355 227 5 0 0 0 - - -, f 5;
#X obj 284 226 sel 45 41;
#X obj 282 371 spigot;
#X obj 644 465 tgl 15 0 empty empty empty 17 7 0 10 -262144 -1 -1 1
1;
#X obj 643 412 loadbang;
#X msg 648 439 1;
#X text 333 96 nanokontrol 2 record/play;
#X obj 270 270 bng 15 250 50 0 empty empty empty 17 7 0 10 -262144
-1 -1;
#X msg 293 274 1;
#X msg 332 275 0;
#X obj 539 132 notein;
#X obj 545 196 swap;
#X obj 571 230 == 61;
#X obj 543 260 spigot;
#X obj 546 298 > 0;
#X obj 550 338 tgl 15 0 empty empty empty 17 7 0 10 -262144 -1 -1 0
1;
#X obj 573 415 spigot;
#X obj 715 66 notein;
#X obj 721 130 swap;
#X obj 719 194 spigot;
#X obj 722 232 > 0;
#X text 534 91 momentary record button;
#X obj 747 164 == 62;
#X obj 723 261 sel 1;
#X obj 727 316 del 1000;
#X obj 724 290 t b b;
#X msg 724 344 1;
#X obj 784 346 0;
#X obj 789 319 del 20000;
#X text 770 77 wait 1 second then record 20 seconds;
#X obj 785 235 bng 15 250 50 0 empty empty empty 17 7 0 10 -262144
-1 -1;
#X connect 1 0 4 0;
#X connect 2 0 9 0;
#X connect 3 0 9 0;
#X connect 4 0 13 0;
#X connect 7 0 11 0;
#X connect 7 1 11 1;
#X connect 8 0 14 0;
#X connect 8 0 15 0;
#X connect 9 0 0 0;
#X connect 10 0 9 1;
#X connect 11 0 8 0;
#X connect 11 1 8 1;
#X connect 13 0 2 0;
#X connect 13 1 3 0;
#X connect 15 0 21 0;
#X connect 15 0 22 0;
#X connect 15 1 23 0;
#X connect 16 0 0 0;
#X connect 17 0 30 1;
#X connect 18 0 19 0;
#X connect 19 0 17 0;
#X connect 22 0 16 0;
#X connect 23 0 16 0;
#X connect 24 0 25 0;
#X connect 24 1 25 1;
#X connect 25 0 27 0;
#X connect 25 1 26 0;
#X connect 26 0 27 1;
#X connect 27 0 28 0;
#X connect 28 0 29 0;
#X connect 29 0 30 0;
#X connect 30 0 0 0;
#X connect 31 0 32 0;
#X connect 31 1 32 1;
#X connect 32 0 33 0;
#X connect 32 1 36 0;
#X connect 33 0 34 0;
#X connect 34 0 37 0;
#X connect 36 0 33 1;
#X connect 37 0 39 0;
#X connect 38 0 40 0;
#X connect 39 0 38 0;
#X connect 39 1 42 0;
#X connect 40 0 30 0;
#X connect 41 0 30 0;
#X connect 42 0 41 0;
#X connect 44 0 39 0;
#X restore 654 420 pd record-controls;
#X obj 147 362 loadbang;
#X msg 146 421 100;
#X obj 476 265 loadbang;
#X floatatom 418 295 5 0 0 0 - - -, f 5;
#X msg 475 324 0.25;
#N canvas 0 23 587 310 out 0;
#X obj 112 112 sel 0 1;
#X obj 93 190 s stoprec;
#X obj 173 189 s startrec;
#X obj 208 116 s record-start-stop;
#X msg 264 187 \; record const 0;
#X obj 191 150 t b b;
#X obj 222 20 inlet;
#X obj 375 178 noteout;
#X obj 375 111 t b f;
#X obj 424 109 * 127;
#X obj 381 154 pack 60 0;
#X connect 0 0 1 0;
#X connect 0 1 5 0;
#X connect 5 0 2 0;
#X connect 5 1 4 0;
#X connect 6 0 0 0;
#X connect 6 0 3 0;
#X connect 6 0 8 0;
#X connect 8 0 10 0;
#X connect 8 1 9 0;
#X connect 9 0 10 1;
#X connect 10 0 7 0;
#X restore 655 491 pd out;
#X obj 591 80 vsl 15 128 0 127 0 0 empty empty empty 0 -9 0 10 -262144
-1 -1 0 1;
#X obj 664 264 loadbang;
#X floatatom 591 294 5 0 0 0 - - -, f 5;
#X obj 590 240 expr $f1/127 * 1000;
#X msg 663 323 0;
#X obj 593 320 s ran-pos;
#X obj 748 83 vsl 15 128 0 127 0 0 empty empty empty 0 -9 0 10 -262144
-1 -1 0 1;
#X obj 821 267 loadbang;
#X floatatom 748 297 5 0 0 0 - - -, f 5;
#X msg 820 326 0;
#X obj 750 323 s ran-size;
#X obj 922 82 vsl 15 128 0 127 0 0 empty empty empty 0 -9 0 10 -262144
-1 -1 0 1;
#X obj 995 266 loadbang;
#X floatatom 922 296 5 0 0 0 - - -, f 5;
#X obj 146 386 del 2000;
#X obj 475 289 del 2000;
#X obj 663 288 del 2000;
#X obj 820 291 del 2000;
#X obj 994 290 del 2000;
#X obj 78 266 mtof;
#X floatatom 77 301 5 0 0 0 - - -, f 5;
#X obj 65 1 ctlin 20;
#X obj 78 325 expr $f1 / 2.2;
#X obj 258 40 ctlin 17;
#X obj 422 29 ctlin 16;
#X obj 595 28 ctlin 15;
#X obj 72 505 spigot 1;
#X obj 288 373 notein;
#X obj 294 437 swap;
#X obj 292 501 spigot;
#X obj 320 471 == 64;
#X obj 119 476 tgl 15 0 empty empty empty 17 7 0 10 -262144 -1 -1 1
1;
#N canvas 603 48 660 537 scale 0;
#X obj 96 19 inlet;
#X obj 107 407 outlet;
#X floatatom 105 123 5 0 0 0 - - -, f 5;
#X obj 219 106 loadbang;
#X obj 203 133 del 2000;
#X obj 105 81 expr pow(($f1) \, 2)/16129;
#X msg 203 168 1;
#X obj 285 138 r rec-dur;
#X obj 287 171 t b f;
#X msg 352 202 100;
#X obj 360 116 loadbang;
#X obj 110 255 expr $f1 * ($f2 * 0.9 - 50) + 50;
#X connect 0 0 5 0;
#X connect 2 0 11 0;
#X connect 3 0 4 0;
#X connect 4 0 6 0;
#X connect 5 0 2 0;
#X connect 6 0 2 0;
#X connect 7 0 8 0;
#X connect 8 0 11 0;
#X connect 8 1 11 1;
#X connect 9 0 11 1;
#X connect 10 0 9 0;
#X connect 11 0 1 0;
#X restore 259 233 pd scale;
#X floatatom 253 263 5 0 0 0 - - -, f 5;
#X obj 417 241 expr $f1/127 * 2 - 1;
#X obj 752 31 ctlin 14;
#X obj 924 322 s vol;
#X obj 926 30 ctlin 19;
#X msg 994 325 1;
#X obj 747 243 expr $f1/127 * 50;
#X obj 921 242 expr $f1/64;
#N canvas 0 22 1003 600 change-audio-settings 0;
#X obj 239 48 ctlin 19;
#X obj 290 117 == 0;
#X obj 253 224 spigot;
#X obj 151 46 notein;
#X obj 157 110 swap;
#X obj 155 174 spigot;
#X obj 183 144 == 64;
#X obj 252 257 > 0;
#X obj 252 295 sel 1;
#X obj 318 295 bng 15 250 50 0 empty empty empty 17 7 0 10 -262144
-1 -1;
#X obj 309 342 i;
#X obj 363 344 + 1;
#X obj 389 317 >= 8;
#X obj 392 356 sel 1;
#X msg 390 383 0;
#X msg 393 446 \; pd audio-dialog \$1 0 0 0 1 0 0 0 \$1 0 0 0 2 0 0
0 44100 25 0 64;
#X floatatom 327 95 5 0 0 0 - - -, f 5;
#X msg 147 491 \; pd dsp 1;
#X obj 157 443 del 30;
#X obj 226 439 makenote 100 50;
#X obj 221 381 t b b f;
#X msg 234 416 60;
#X obj 234 500 noteout;
#X connect 0 0 1 0;
#X connect 0 0 16 0;
#X connect 1 0 2 1;
#X connect 2 0 7 0;
#X connect 3 0 4 0;
#X connect 3 1 4 1;
#X connect 4 0 5 0;
#X connect 4 1 6 0;
#X connect 5 0 2 0;
#X connect 6 0 5 1;
#X connect 7 0 8 0;
#X connect 8 0 10 0;
#X connect 9 0 10 0;
#X connect 10 0 11 0;
#X connect 10 0 12 0;
#X connect 10 0 20 0;
#X connect 11 0 10 1;
#X connect 12 0 13 0;
#X connect 13 0 14 0;
#X connect 14 0 10 1;
#X connect 18 0 17 0;
#X connect 19 0 22 0;
#X connect 19 1 22 1;
#X connect 20 0 18 0;
#X connect 20 1 21 0;
#X connect 20 2 15 0;
#X connect 21 0 19 0;
#X restore 836 418 pd change-audio-settings;
#X obj 293 529 > 0;
#X obj 297 554 sel 1;
#X msg 175 453 1;
#X obj 197 423 loadbang;
#X obj 68 190 moses 96;
#X obj 143 229 expr $f1 / 1.5 - 7;
#X obj 26 234 expr $f1 / 3 + 25;
#N canvas 419 25 947 713 loop 1;
#X obj 130 29 inlet;
#X obj 107 589 outlet;
#X obj 254 35 notein;
#X obj 260 99 swap;
#X obj 258 163 spigot;
#X obj 286 133 == 63;
#X floatatom 319 522 5 0 0 0 - - -, f 5;
#X obj 280 489 pipe 1000;
#X obj 517 304 metro 1;
#X obj 517 409 i;
#X obj 553 409 + 1;
#X obj 545 370 t 0;
#X obj 434 453 i;
#X obj 426 266 tgl 15 0 empty empty empty 17 7 0 10 -262144 -1 -1 0
1;
#X obj 267 198 > 0;
#X obj 426 329 sel 0;
#X floatatom 420 503 5 0 0 0 - - -, f 5;
#X obj 252 383 spigot;
#X msg 328 415 clear;
#X obj 345 362 sel 1;
#X obj 268 240 sel 1;
#X obj 272 284 tgl 15 0 empty empty empty 17 7 0 10 -262144 -1 -1 1
1;
#X obj 114 390 spigot 1;
#X obj 164 475 spigot;
#X obj 165 320 == 0;
#X connect 0 0 17 0;
#X connect 0 0 22 0;
#X connect 2 0 3 0;
#X connect 2 1 3 1;
#X connect 3 0 4 0;
#X connect 3 1 5 0;
#X connect 4 0 14 0;
#X connect 5 0 4 1;
#X connect 6 0 7 0;
#X connect 7 0 6 0;
#X connect 7 0 23 0;
#X connect 8 0 9 0;
#X connect 9 0 10 0;
#X connect 9 0 12 1;
#X connect 10 0 9 1;
#X connect 11 0 9 1;
#X connect 12 0 16 0;
#X connect 13 0 8 0;
#X connect 13 0 15 0;
#X connect 13 0 17 1;
#X connect 13 0 19 0;
#X connect 14 0 13 0;
#X connect 14 0 20 0;
#X connect 15 0 12 0;
#X connect 15 0 11 0;
#X connect 16 0 7 1;
#X connect 17 0 7 0;
#X connect 18 0 7 0;
#X connect 19 0 18 0;
#X connect 20 0 21 0;
#X connect 21 0 23 1;
#X connect 21 0 24 0;
#X connect 22 0 1 0;
#X connect 23 0 1 0;
#X connect 24 0 22 1;
#X restore 61 442 pd loop;
#X connect 0 0 64 0;
#X connect 2 0 61 0;
#X connect 4 0 47 0;
#X connect 5 0 49 0;
#X connect 7 0 14 0;
#X connect 8 0 7 0;
#X connect 9 0 29 0;
#X connect 10 0 0 0;
#X connect 11 0 30 0;
#X connect 12 0 6 0;
#X connect 13 0 12 0;
#X connect 15 0 18 0;
#X connect 16 0 31 0;
#X connect 17 0 20 0;
#X connect 18 0 17 0;
#X connect 19 0 17 0;
#X connect 21 0 54 0;
#X connect 22 0 32 0;
#X connect 23 0 25 0;
#X connect 24 0 23 0;
#X connect 26 0 55 0;
#X connect 27 0 33 0;
#X connect 28 0 51 0;
#X connect 29 0 10 0;
#X connect 30 0 13 0;
#X connect 31 0 19 0;
#X connect 32 0 24 0;
#X connect 33 0 53 0;
#X connect 34 0 35 0;
#X connect 35 0 37 0;
#X connect 36 0 2 0;
#X connect 37 0 0 0;
#X connect 38 0 4 0;
#X connect 39 0 5 0;
#X connect 40 0 15 0;
#X connect 41 0 1 0;
#X connect 42 0 43 0;
#X connect 42 1 43 1;
#X connect 43 0 44 0;
#X connect 43 1 45 0;
#X connect 44 0 57 0;
#X connect 45 0 44 1;
#X connect 46 0 41 1;
#X connect 47 0 48 0;
#X connect 48 0 3 0;
#X connect 49 0 12 0;
#X connect 50 0 21 0;
#X connect 52 0 26 0;
#X connect 53 0 28 0;
#X connect 54 0 23 0;
#X connect 55 0 28 0;
#X connect 57 0 58 0;
#X connect 58 0 46 0;
#X connect 59 0 46 0;
#X connect 60 0 59 0;
#X connect 61 0 63 0;
#X connect 61 1 62 0;
#X connect 62 0 34 0;
#X connect 63 0 34 0;
#X connect 64 0 41 0;
#X restore 735 46 pd controls;
#X obj 1357 64 r speed;
#X obj 1018 158 r record-start-stop;
#X obj 600 318 soundfiler;
#X obj 613 239 openpanel;
#X obj 643 169 bng 15 250 50 0 empty empty empty 17 7 0 10 -262144
-1 -1;
#X msg 604 281 read \$1 record;
#X obj 744 317 r samp-rate;
#X floatatom 709 391 5 0 0 0 - - -, f 5;
#X floatatom 1160 52 5 0 0 0 - - -, f 5;
#X obj 649 353 expr $f1 / $f2 * 1000;
#X obj 664 435 s rec-dur;
#X obj 173 515 *~ 1;
#X floatatom 391 443 5 0 0 0 - - -, f 5;
#X msg 699 236 \; record const 0;
#X obj 636 202 t b b;
#X obj 879 464 s reset-phase;
#X obj 927 393 t b f;
#X obj 1429 97 r reset-phase;
#N canvas 0 22 1095 852 master-phasor 0;
#X floatatom 62 591 5 0 0 0 - - -, f 5;
#X obj 57 619 / 100;
#X obj 139 473 expr 1000/$f1;
#X obj 134 426 r grain-size;
#X obj 163 558 samphold~;
#X obj 165 692 *~ 1;
#X obj 380 385 phasor~ 6;
#X obj 342 262 +~;
#X obj 469 106 loadbang;
#X obj 512 173 del 3000;
#X msg 457 198 1;
#X msg 512 212 0;
#X obj 472 137 t b b;
#X obj 736 261 r rec-dur;
#X obj 731 294 t b;
#X text 593 155 temporarily set the phasor frequency to 1 so the phasor
doesn't get stuck at zero \, thereby never triggering the samphold
;
#X obj 52 543 r pitch;
#X msg 472 359 0;
#X obj 725 329 del 10;
#X obj 545 291 r pd-dsp-started;
#X obj 418 285 r reset-phase;
#X obj 158 754 delwrite~ \$0-rate 1;
#X obj 324 96 delread~ \$0-rate;
#X obj 428 547 s~ grain-phase;
#X obj 201 346 s~ grain-phase-freq;
#X connect 0 0 1 0;
#X connect 1 0 5 1;
#X connect 2 0 4 0;
#X connect 3 0 2 0;
#X connect 4 0 5 0;
#X connect 5 0 21 0;
#X connect 6 0 4 1;
#X connect 6 0 23 0;
#X connect 7 0 6 0;
#X connect 7 0 24 0;
#X connect 8 0 12 0;
#X connect 9 0 11 0;
#X connect 10 0 7 1;
#X connect 11 0 7 1;
#X connect 12 0 10 0;
#X connect 12 1 9 0;
#X connect 13 0 14 0;
#X connect 14 0 18 0;
#X connect 16 0 0 0;
#X connect 17 0 6 1;
#X connect 19 0 17 0;
#X connect 20 0 17 0;
#X connect 22 0 7 0;
#X restore 668 101 pd master-phasor;
#X msg 1425 129 0;
#X obj 469 45 bng 15 250 50 0 empty empty empty 17 7 0 10 -262144 -1
-1;
#X obj 395 419 r vol;
#X obj 12 163 noteout;
#X obj 18 139 pack 62 0;
#X obj 18 106 t b f;
#X obj 21 37 dbtorms;
#X obj 19 73 * 500;
#X obj 1210 154 r bangs;
#N canvas 0 22 381 280 mute 0;
#X obj 65 67 r startrec;
#X obj 63 122 line~;
#X obj 157 57 r rec-dur;
#X msg 61 92 0 10;
#X msg 160 99 1 1000;
#X obj 65 151 outlet~;
#X connect 0 0 3 0;
#X connect 1 0 5 0;
#X connect 2 0 4 0;
#X connect 3 0 1 0;
#X connect 4 0 1 0;
#X restore 360 383 pd mute;
#X obj 239 439 *~;
#X obj 240 515 *~ 1;
#X obj 133 348 catch~ grains-l;
#X obj 273 350 catch~ grains-r;
#N canvas 0 22 781 1019 meter 0;
#X floatatom 217 251 5 0 0 0 - - -, f 5;
#X obj 217 205 env~;
#X obj 217 228 - 101;
#X obj 124 360 noteout;
#X obj 130 303 t b f;
#X obj 133 234 dbtorms;
#X obj 131 270 * 500;
#X obj 130 336 pack 61 0;
#X obj 208 176 *~ 0.5;
#X obj 218 137 inlet~;
#X obj 237 296 outlet;
#X connect 0 0 10 0;
#X connect 1 0 2 0;
#X connect 1 0 5 0;
#X connect 2 0 0 0;
#X connect 4 0 7 0;
#X connect 4 1 7 1;
#X connect 5 0 6 0;
#X connect 6 0 4 0;
#X connect 7 0 3 0;
#X connect 8 0 1 0;
#X connect 9 0 8 0;
#X restore 365 501 pd meter;
#X obj 30 230 grain-phasor 0;
#X obj 164 228 grain-phasor 1;
#X obj 287 229 grain-phasor 2;
#X obj 413 231 grain-phasor 3;
#X obj 32 255 grain-phasor 4;
#X obj 165 252 grain-phasor 5;
#X obj 294 251 grain-phasor 6;
#X obj 422 251 grain-phasor 7;
#X connect 1 0 0 0;
#X connect 2 0 0 0;
#X connect 4 0 3 0;
#X connect 5 0 6 0;
#X connect 5 0 71 0;
#X connect 6 0 4 0;
#X connect 8 0 9 0;
#X connect 9 0 10 0;
#X connect 9 0 15 1;
#X connect 10 0 9 1;
#X connect 11 0 9 1;
#X connect 12 0 11 0;
#X connect 13 0 1 0;
#X connect 14 0 2 0;
#X connect 15 0 35 0;
#X connect 15 0 62 0;
#X connect 16 0 15 0;
#X connect 19 0 57 0;
#X connect 20 0 21 0;
#X connect 21 0 0 0;
#X connect 21 0 5 0;
#X connect 22 0 21 1;
#X connect 24 0 26 0;
#X connect 25 0 24 0;
#X connect 27 0 28 0;
#X connect 34 0 39 1;
#X connect 37 0 38 0;
#X connect 38 0 39 0;
#X connect 39 0 27 0;
#X connect 40 0 41 0;
#X connect 40 0 54 0;
#X connect 41 0 42 0;
#X connect 42 0 43 0;
#X connect 43 0 37 0;
#X connect 44 0 43 0;
#X connect 44 1 43 1;
#X connect 46 0 44 0;
#X connect 47 0 8 0;
#X connect 48 0 55 0;
#X connect 49 0 51 0;
#X connect 50 0 60 0;
#X connect 51 0 48 0;
#X connect 52 0 55 1;
#X connect 55 0 53 0;
#X connect 55 0 56 0;
#X connect 57 0 23 0;
#X connect 57 0 79 0;
#X connect 58 0 57 1;
#X connect 58 0 76 1;
#X connect 60 0 49 0;
#X connect 60 1 59 0;
#X connect 62 0 61 0;
#X connect 62 1 17 0;
#X connect 63 0 65 0;
#X connect 65 0 37 1;
#X connect 66 0 24 0;
#X connect 67 0 58 0;
#X connect 69 0 68 0;
#X connect 70 0 69 0;
#X connect 70 1 69 1;
#X connect 71 0 72 0;
#X connect 72 0 70 0;
#X connect 73 0 38 0;
#X connect 74 0 19 1;
#X connect 74 0 75 1;
#X connect 75 0 76 0;
#X connect 76 0 23 1;
#X connect 76 0 79 0;
#X connect 77 0 19 0;
#X connect 78 0 75 0;
#X connect 79 0 18 0;
