#N canvas 0 23 1440 828 10;
#X text 37 21 ===========;
#X text 133 8 . ____ ._____ _ .......___ .;
#X text 133 18 .| __ )| ____| |....../ _ |.;
#X text 133 38 .| |_) | |___| |___ / ___ |.;
#X text 133 48 .|____/|_____|_____/_/..._|.io;
#X text 133 58 ............................;
#X text 133 28 .| __ || __|.| |...../ _| |.;
#X text 39 11 Caress;
#X obj 42 101 mo.init;
#X obj 114 101 mo.ui;
#X obj 120 735 dac~ 27 28 29 30;
#X obj 527 101 mo.strip 1;
#X text 118 594 SCOPE ========, f 9;
#X obj 120 652 route /scope1 /scope2 /scope3 /scope4;
#X obj 120 625 r toScope;
#X obj 727 101 mo.strip 4;
#X obj 527 388 s mo.out.s1;
#X obj 727 387 s mo.out.s2;
#X obj 527 73 r mo.in.s1;
#X obj 727 72 r mo.in.s2;
#X obj 114 448 s mo.out.ui;
#X obj 115 77 r mo.in.ui;
#X obj 752 619 ali.gain;
#X obj 821 619 ali.gain;
#X obj 483 1123 dac~ 1 2;
#X text 479 1081 DAC ========, f 9;
#X obj 752 543 adc~ 1 2, f 12;
#X text 749 520 PIEZOS 1 \, 2;
#X obj 752 785 ali.gain;
#X obj 893 786 ali.gain;
#X obj 833 892 r mo.out.ui;
#X obj 555 830 ali.gain, f 16;
#X obj 743 955 ali.gain2;
#X obj 670 832 mo.r ui k1;
#X obj 743 1019 ali.gain2;
#X obj 834 1001 mo.r ui k4, f 11;
#X obj 833 915 route /k2;
#X obj 752 731 resonators~ 480 0.5 1;
#X obj 902 735 resonators~ 880 0.5 1;
#X floatatom 1579 892 5 0 0 0 - - -, f 5;
#X msg 1876 682 indian-roots_Chakoa-8.coll indian-roots_Chakoa-9.coll
indian-roots_Dhalki-2.coll indian-roots_Duggi-4.coll indian-roots_Hand-Dhal.coll
indian-roots_khol.coll indian-roots_Madal.coll indian-roots_Manjeera-1.coll
indian-roots_Mirdangam-1.coll indian-roots_Mirdangam-4.coll indian-roots_Mirdangam-15.coll
indian-roots_Mirdangam-low-1.coll indian-roots_Stick-Dhal-1.coll indian-roots_Stick-Dhal-8.coll
indian-swar_DH1LDGE.max indian-swar_DH1TIN.max indian-swar_NG1GE.max
indian-swar_NG1NA.max indian-swar_PK1DIN.max indian-swar_PK1GE.max
indian-swar_PK1LOWTA.max;
#X floatatom 1645 807 5 0 0 0 - - -, f 5;
#X obj 1584 923 ali.res-model-loader;
#X text 1901 846 list of resonance model collections (max style text
file) they should all be in the search path;
#X obj 903 681 *~ 100;
#X obj 752 677 *~ 100;
#X obj 677 723 loadbang;
#X msg 677 748 127;
#X obj 1322 633 loadbang;
#X obj 1356 925 ali.res-model-loader;
#X floatatom 1338 887 5 0 0 0 - - -, f 5;
#X floatatom 1423 809 5 0 0 0 - - -, f 5;
#X obj 1645 759 ali.scale 0 127 1 18;
#X obj 1423 753 ali.scale 0 127 1 18;
#X obj 1423 723 mo.r s1 k2;
#X obj 1423 775 int;
#X obj 1645 781 int;
#X obj 1645 736 mo.r s2 k2;
#X obj 883 454 mo.r s1 k1;
#X obj 964 454 mo.r s2 k1;
#X msg 969 685 clear;
#X msg 1032 687 clear;
#X obj 1004 566 mo.r s1 s1;
#X obj 1087 567 mo.r s2 s1;
#X obj 1004 639 mo.s s1 l1;
#X obj 833 952 loadbang;
#X msg 833 974 127;
#X obj 681 563 loadbang;
#X msg 681 588 80;
#X obj 1004 617 tgl 15 0 empty empty empty 17 7 0 10 -262144 -1 -1
127 127;
#X obj 1087 617 tgl 15 0 empty empty empty 17 7 0 10 -262144 -1 -1
127 127;
#X obj 1004 590 sel 0;
#X obj 1087 590 sel 0;
#X obj 1087 640 mo.s s2 l1;
#X obj 1159 567 loadbang;
#X msg 1159 592 127;
#X obj 1423 855 t 127 b f b 0;
#X obj 1645 838 t 127 b f b 0;
#X obj 881 529 mo.s s1 st;
#X obj 964 530 mo.s s2 st;
#X obj 881 504 / 127;
#X obj 964 505 / 127;
#X obj 281 550 adc~ 7 8 9 10, f 17;
#X msg 1339 658 30;
#X obj 962 105 mo.joy 1;
#X obj 1091 105 mo.joy 2;
#X obj 962 342 s mo.in.j1;
#X obj 1091 344 s mo.in.j2;
#X obj 1427 329 ali.res-transform;
#X connect 9 0 20 0;
#X connect 11 0 16 0;
#X connect 14 0 13 0;
#X connect 15 0 17 0;
#X connect 18 0 11 0;
#X connect 19 0 15 0;
#X connect 21 0 9 0;
#X connect 22 0 45 0;
#X connect 23 0 44 0;
#X connect 26 0 22 0;
#X connect 26 1 23 0;
#X connect 28 0 32 0;
#X connect 28 0 32 1;
#X connect 29 0 32 0;
#X connect 29 0 32 1;
#X connect 30 0 36 0;
#X connect 31 0 32 0;
#X connect 31 0 32 1;
#X connect 32 0 34 0;
#X connect 32 1 34 1;
#X connect 33 0 31 1;
#X connect 34 0 24 0;
#X connect 34 1 24 1;
#X connect 35 0 34 2;
#X connect 36 0 32 2;
#X connect 37 0 28 0;
#X connect 38 0 29 0;
#X connect 39 0 42 0;
#X connect 40 0 42 2;
#X connect 40 0 49 2;
#X connect 41 0 77 0;
#X connect 42 0 38 0;
#X connect 44 0 38 0;
#X connect 45 0 37 0;
#X connect 46 0 47 0;
#X connect 47 0 28 1;
#X connect 47 0 29 1;
#X connect 48 0 40 0;
#X connect 48 0 83 0;
#X connect 49 0 37 0;
#X connect 50 0 49 0;
#X connect 51 0 76 0;
#X connect 52 0 56 0;
#X connect 53 0 55 0;
#X connect 54 0 53 0;
#X connect 55 0 51 0;
#X connect 56 0 41 0;
#X connect 57 0 52 0;
#X connect 58 0 22 1;
#X connect 58 0 80 0;
#X connect 59 0 23 1;
#X connect 59 0 81 0;
#X connect 60 0 37 0;
#X connect 61 0 38 0;
#X connect 62 0 71 0;
#X connect 63 0 72 0;
#X connect 65 0 66 0;
#X connect 66 0 34 2;
#X connect 66 0 32 2;
#X connect 67 0 68 0;
#X connect 68 0 22 1;
#X connect 68 0 23 1;
#X connect 69 0 64 0;
#X connect 69 0 22 1;
#X connect 70 0 73 0;
#X connect 70 0 23 1;
#X connect 71 0 69 0;
#X connect 72 0 70 0;
#X connect 74 0 75 0;
#X connect 75 0 70 0;
#X connect 75 0 69 0;
#X connect 76 0 28 1;
#X connect 76 1 50 0;
#X connect 76 2 49 1;
#X connect 76 3 60 0;
#X connect 76 4 28 1;
#X connect 77 0 29 1;
#X connect 77 1 39 0;
#X connect 77 2 42 1;
#X connect 77 3 61 0;
#X connect 77 4 29 1;
#X connect 80 0 78 0;
#X connect 81 0 79 0;
#X connect 82 0 10 0;
#X connect 82 1 10 1;
#X connect 82 2 10 2;
#X connect 82 3 10 3;
#X connect 83 0 39 0;
#X connect 83 0 50 0;
#X connect 84 0 86 0;
#X connect 85 0 87 0;
