#N canvas 0 23 1440 828 10;
#X text 37 21 ===========;
#X text 133 8 . ____ ._____ _ .......___ .;
#X text 133 18 .| __ )| ____| |....../ _ |.;
#X text 133 38 .| |_) | |___| |___ / ___ |.;
#X text 133 48 .|____/|_____|_____/_/..._|.io;
#X text 133 58 ............................;
#X text 133 28 .| __ || __|.| |...../ _| |.;
#X text 39 11 Caress;
#X obj 42 101 mo.init;
#X obj 114 101 mo.ui;
#X obj 868 543 ali.gain;
#X obj 937 543 ali.gain;
#X obj 370 664 dac~ 1 2;
#X obj 120 691 dac~ 27 28 29 30;
#X obj 527 101 mo.strip 1;
#X obj 1017 771 send~ ali.loop-pedal-audio;
#X text 368 593 DAC ========, f 9;
#X text 118 594 SCOPE ========, f 9;
#X obj 120 652 route /scope1 /scope2 /scope3 /scope4;
#X obj 120 625 r toScope;
#X obj 868 467 adc~ 1 2, f 12;
#X text 865 444 PIEZOS 1 \, 2;
#X obj 727 101 mo.strip 4;
#X obj 188 1005 == 1;
#X obj 188 1027 tgl 15 0 empty empty empty 17 7 0 10 -262144 -1 -1
1 1;
#X obj 868 709 ali.gain;
#X obj 187 866 loadbang;
#X msg 187 928 1;
#X obj 527 388 s mo.out.s1;
#X obj 727 387 s mo.out.s2;
#X obj 527 73 r mo.in.s1;
#X obj 727 72 r mo.in.s2;
#X obj 187 952 s loopIn;
#X obj 188 982 r loopIn;
#X obj 251 903 sel 0;
#X msg 251 925 1;
#X obj 251 951 s loopIn;
#X obj 115 954 r loopIn;
#X floatatom 115 976 5 0 0 0 - - -, f 5;
#X obj 329 903 sel 0;
#X obj 329 951 s loopIn;
#X msg 329 925 2;
#X obj 329 1028 tgl 15 0 empty empty empty 17 7 0 10 -262144 -1 -1
0 1;
#X obj 1009 710 ali.gain;
#X obj 329 983 r loopIn;
#X obj 329 1006 == 2;
#X text 56 973 LOOP OUT:;
#X text 1856 26 ===========;
#X obj 251 867 mo.r s1 s1;
#X obj 114 448 s mo.out.ui;
#X obj 908 776 r mo.out.ui;
#X obj 1586 95 mo.r ui s1;
#X obj 1656 95 mo.r ui s2;
#X obj 1726 95 mo.r ui s3;
#X obj 1586 121 sel 127;
#X obj 115 77 r mo.in.ui;
#X obj 190 1058 mo.s s1 l1 127;
#X obj 1489 176 mo.s ui l1 127;
#X obj 329 867 mo.r s1 s2;
#X obj 329 1060 mo.s s1 l2 127;
#X obj 1242 720 ali.gain, f 16;
#N canvas 573 106 526 376 verb 0;
#X obj 16 277 rev3~ 100 90 600 20;
#X obj 16 310 ali.gain2;
#X obj 18 58 vsl 15 128 0 127 0 0 empty empty empty 0 -9 0 10 -262144
-1 -1 0 1;
#X obj 14 344 outlet~;
#X obj 71 344 outlet~;
#X obj 18 21 r verbGain;
#X obj 235 23 inlet~;
#X obj 280 23 inlet~;
#X obj 323 23 inlet;
#X text 391 18 1 L in;
#X text 392 38 2 R in;
#X text 392 58 3 Mix (0-127);
#X floatatom 239 178 0 0 120 0 - - -;
#X text 280 178 level \, dB;
#X floatatom 274 200 0 0 100 0 - - -;
#X text 315 200 liveness \, 0-100;
#X floatatom 309 224 4 0 5000 0 - - -, f 4;
#X floatatom 344 247 0 0 100 0 - - -;
#X text 357 222 crossover frequency \, Hz.;
#X text 380 249 HF damping \, percent;
#X obj 275 82 r verbSize;
#X obj 343 81 r verbDecay;
#X obj 274 113 ali.scale 0 1 75 99;
#X obj 341 145 ali.scale 0 1 100 1000;
#X connect 0 0 1 0;
#X connect 0 1 1 1;
#X connect 1 0 3 0;
#X connect 1 1 4 0;
#X connect 2 0 1 2;
#X connect 5 0 2 0;
#X connect 6 0 0 0;
#X connect 7 0 0 1;
#X connect 8 0 2 0;
#X connect 12 0 0 2;
#X connect 14 0 0 3;
#X connect 16 0 0 4;
#X connect 17 0 0 5;
#X connect 20 0 22 0;
#X connect 21 0 23 0;
#X connect 22 0 14 0;
#X connect 23 0 16 0;
#X restore 927 877 pd verb;
#X obj 859 879 ali.gain2;
#X obj 968 845 mo.r ui k3;
#X obj 1586 144 tgl 15 0 empty empty record 17 7 0 10 -262144 -1 -1
0 1;
#N canvas 98 138 1241 591 router 0;
#X obj 107 50 inlet;
#X obj 108 139 spigot;
#X obj 366 141 spigot;
#X obj 365 47 inlet;
#X msg 365 99 1;
#X msg 399 100 0;
#X obj 110 213 sel 1 0;
#X msg 63 318 0 record 1;
#X obj 166 271 t b b;
#X msg 159 317 0 record 0;
#X obj 366 483 outlet;
#X msg 238 222 0;
#X msg 269 222 1;
#X obj 366 210 sel 1 0;
#X obj 499 319 ali.counter 1 4;
#X obj 366 394 list prepend;
#X msg 366 319 record 1;
#X obj 366 267 t b b;
#X msg 436 319 record 0;
#X msg 438 101 1;
#X obj 107 88 t f f;
#X obj 839 59 inlet;
#X msg 839 196 sync 1 \, autosize 0 \, overdub 1;
#X obj 839 121 ali.uzi 4;
#X obj 839 361 list prepend;
#X obj 839 408 route list;
#X msg 770 296 play 0 \, clear;
#X obj 770 121 ali.uzi 4;
#X obj 1054 201 ali.uzi 5;
#X obj 1104 228 - 1;
#X msg 1038 275 play \$1;
#X obj 1038 403 list prepend;
#X obj 1054 149 tgl 15 0 empty empty empty 17 7 0 10 -262144 -1 -1
0 1;
#X obj 1054 169 t b f;
#X obj 1104 250 t b f;
#X obj 1038 246 f;
#X obj 1054 62 inlet;
#X text 1050 39 Play/Pause All;
#X obj 620 165 ali.uzi 5;
#X obj 670 192 - 1;
#X obj 604 367 list prepend;
#X obj 670 214 t b f;
#X text 614 107 Hard Reset;
#X msg 604 239 reset;
#X obj 619 133 t b;
#X obj 366 416 print;
#X msg 244 316 0 reset;
#X connect 0 0 20 0;
#X connect 1 0 6 0;
#X connect 2 0 13 0;
#X connect 3 0 4 0;
#X connect 3 0 5 0;
#X connect 3 0 19 0;
#X connect 3 0 27 0;
#X connect 3 0 46 0;
#X connect 4 0 1 1;
#X connect 5 0 2 1;
#X connect 6 0 7 0;
#X connect 6 1 8 0;
#X connect 7 0 10 0;
#X connect 8 0 9 0;
#X connect 8 1 11 0;
#X connect 8 1 12 0;
#X connect 9 0 10 0;
#X connect 11 0 1 1;
#X connect 12 0 2 1;
#X connect 13 0 17 0;
#X connect 13 1 18 0;
#X connect 14 0 15 1;
#X connect 15 0 10 0;
#X connect 15 0 45 0;
#X connect 16 0 15 0;
#X connect 17 0 16 0;
#X connect 17 1 14 0;
#X connect 18 0 15 0;
#X connect 19 0 14 2;
#X connect 20 0 1 0;
#X connect 20 1 2 0;
#X connect 21 0 23 0;
#X connect 22 0 24 0;
#X connect 23 0 22 0;
#X connect 23 2 24 1;
#X connect 24 0 25 0;
#X connect 25 0 10 0;
#X connect 26 0 24 0;
#X connect 27 0 26 0;
#X connect 27 2 24 1;
#X connect 28 2 29 0;
#X connect 29 0 34 0;
#X connect 30 0 31 0;
#X connect 31 0 10 0;
#X connect 32 0 33 0;
#X connect 33 0 28 0;
#X connect 33 1 35 1;
#X connect 34 0 35 0;
#X connect 34 1 31 1;
#X connect 35 0 30 0;
#X connect 36 0 32 0;
#X connect 38 2 39 0;
#X connect 39 0 41 0;
#X connect 40 0 10 0;
#X connect 41 0 43 0;
#X connect 41 1 40 1;
#X connect 43 0 40 0;
#X connect 44 0 38 0;
#X connect 46 0 10 0;
#X restore 1587 178 pd router;
#X obj 1653 145 bng 15 250 50 0 empty empty reset 17 7 0 10 -262144
-1 -1;
#X obj 1587 247 route 0 1 2 3 4;
#X obj 1712 399 ali.loop-pedal sound4;
#X obj 1276 399 ali.loop-pedal sound1;
#X obj 1275 128 ali.loop-pedal sound0;
#X obj 1422 399 ali.loop-pedal sound2;
#X obj 1567 399 ali.loop-pedal sound3;
#X obj 1341 342 send~ ali.loop-pedal-sync;
#X obj 1720 147 bng 15 250 50 0 empty empty init 17 7 0 10 -262144
-1 -1;
#X obj 1803 100 t b b;
#X obj 1803 75 loadbang;
#X obj 148 1058 * 127;
#X obj 290 1061 * 127;
#X obj 1726 240 print;
#X msg 1725 218 recording;
#X obj 1723 190 sel 1;
#X obj 119 521 adc~ 3 4 5 6 7 8 9 10, f 22;
#X obj 1772 147 tgl 15 0 empty empty play/pause 17 7 0 10 -262144 -1
-1 0 1;
#X obj 1848 290 loadbang;
#X msg 1848 312 sync 1 \, overdub 1;
#X obj 1357 722 mo.r ui k1;
#X obj 859 943 ali.gain2;
#X obj 950 925 mo.r ui k4, f 11;
#X obj 908 799 route /k2;
#X obj 868 655 resonators~ 480 0.5 1;
#X obj 1018 659 resonators~ 880 0.5 1;
#X floatatom 1700 965 5 0 0 0 - - -, f 5;
#X msg 1997 813 indian-roots_Chakoa-8.coll indian-roots_Chakoa-9.coll
indian-roots_Dhalki-2.coll indian-roots_Duggi-4.coll indian-roots_Hand-Dhal.coll
indian-roots_khol.coll indian-roots_Madal.coll indian-roots_Manjeera-1.coll
indian-roots_Mirdangam-1.coll indian-roots_Mirdangam-4.coll indian-roots_Mirdangam-15.coll
indian-roots_Mirdangam-low-1.coll indian-roots_Stick-Dhal-1.coll indian-roots_Stick-Dhal-8.coll
indian-swar_DH1LDGE.max indian-swar_DH1TIN.max indian-swar_NG1GE.max
indian-swar_NG1NA.max indian-swar_PK1DIN.max indian-swar_PK1GE.max
indian-swar_PK1LOWTA.max;
#X floatatom 1766 938 5 0 0 0 - - -, f 5;
#X obj 1705 996 ali.res-model-loader;
#X text 2022 977 list of resonance model collections (max style text
file) they should all be in the search path;
#X obj 1019 605 *~ 100;
#X obj 868 601 *~ 100;
#X text 187 838 Audio Send Toggle;
#X obj 793 647 loadbang;
#X msg 793 672 127;
#X obj 1443 764 loadbang;
#X msg 1459 789 30;
#X obj 1477 996 ali.res-model-loader;
#X floatatom 1459 958 5 0 0 0 - - -, f 5;
#X floatatom 1544 940 5 0 0 0 - - -, f 5;
#X obj 1766 890 ali.scale 0 127 1 18;
#X obj 1544 884 ali.scale 0 127 1 18;
#X obj 1544 854 mo.r s1 k2;
#X obj 1544 906 int;
#X obj 1766 912 int;
#X obj 1766 867 mo.r s2 k2;
#X obj 1018 511 mo.r s1 k1;
#X obj 1099 511 mo.r s2 k1;
#X obj 1544 962 t b f;
#X obj 1766 959 t b f;
#X connect 9 0 49 0;
#X connect 10 0 98 0;
#X connect 11 0 97 0;
#X connect 14 0 28 0;
#X connect 18 0 13 0;
#X connect 18 1 13 1;
#X connect 18 2 13 2;
#X connect 18 3 13 3;
#X connect 19 0 18 0;
#X connect 20 0 10 0;
#X connect 20 1 11 0;
#X connect 22 0 29 0;
#X connect 23 0 24 0;
#X connect 24 0 56 0;
#X connect 24 0 77 0;
#X connect 25 0 15 0;
#X connect 25 0 62 0;
#X connect 25 0 62 1;
#X connect 25 0 61 0;
#X connect 25 0 61 1;
#X connect 26 0 27 0;
#X connect 26 0 35 0;
#X connect 27 0 32 0;
#X connect 30 0 14 0;
#X connect 31 0 22 0;
#X connect 33 0 23 0;
#X connect 34 0 35 0;
#X connect 35 0 36 0;
#X connect 37 0 38 0;
#X connect 39 0 41 0;
#X connect 41 0 40 0;
#X connect 42 0 59 0;
#X connect 42 0 78 0;
#X connect 43 0 15 0;
#X connect 43 0 62 0;
#X connect 43 0 62 1;
#X connect 43 0 61 0;
#X connect 43 0 61 1;
#X connect 44 0 45 0;
#X connect 45 0 42 0;
#X connect 48 0 34 0;
#X connect 50 0 89 0;
#X connect 51 0 54 0;
#X connect 52 0 66 0;
#X connect 53 0 74 0;
#X connect 54 0 64 0;
#X connect 55 0 9 0;
#X connect 58 0 39 0;
#X connect 60 0 61 0;
#X connect 60 0 61 1;
#X connect 60 0 62 0;
#X connect 60 0 62 1;
#X connect 61 0 87 0;
#X connect 61 1 87 1;
#X connect 62 0 87 0;
#X connect 62 1 87 1;
#X connect 63 0 61 2;
#X connect 64 0 65 0;
#X connect 64 0 57 0;
#X connect 64 0 81 0;
#X connect 65 0 67 0;
#X connect 66 0 65 1;
#X connect 67 0 70 2;
#X connect 67 1 69 2;
#X connect 67 2 71 2;
#X connect 67 3 72 2;
#X connect 67 4 68 2;
#X connect 68 0 60 0;
#X connect 69 0 60 0;
#X connect 70 0 60 0;
#X connect 70 1 73 0;
#X connect 70 2 71 2;
#X connect 70 2 68 2;
#X connect 70 2 69 2;
#X connect 70 2 72 2;
#X connect 71 0 60 0;
#X connect 72 0 60 0;
#X connect 74 0 65 2;
#X connect 75 0 66 0;
#X connect 75 1 74 0;
#X connect 76 0 75 0;
#X connect 80 0 79 0;
#X connect 81 0 80 0;
#X connect 82 0 13 0;
#X connect 82 1 13 1;
#X connect 82 2 13 2;
#X connect 82 3 13 3;
#X connect 83 0 65 3;
#X connect 84 0 85 0;
#X connect 85 0 72 2;
#X connect 85 0 69 2;
#X connect 85 0 68 2;
#X connect 85 0 71 2;
#X connect 86 0 60 1;
#X connect 87 0 12 0;
#X connect 87 1 12 1;
#X connect 88 0 87 2;
#X connect 89 0 62 2;
#X connect 90 0 25 0;
#X connect 91 0 43 0;
#X connect 92 0 95 0;
#X connect 93 0 95 2;
#X connect 93 0 104 2;
#X connect 94 0 116 0;
#X connect 95 0 91 0;
#X connect 97 0 91 0;
#X connect 98 0 90 0;
#X connect 100 0 101 0;
#X connect 101 0 25 1;
#X connect 101 0 43 1;
#X connect 102 0 93 0;
#X connect 102 0 103 0;
#X connect 103 0 92 0;
#X connect 103 0 105 0;
#X connect 104 0 90 0;
#X connect 105 0 104 0;
#X connect 106 0 115 0;
#X connect 107 0 111 0;
#X connect 108 0 110 0;
#X connect 109 0 108 0;
#X connect 110 0 106 0;
#X connect 111 0 94 0;
#X connect 112 0 107 0;
#X connect 113 0 10 1;
#X connect 114 0 11 1;
#X connect 115 0 105 0;
#X connect 115 1 104 1;
#X connect 116 0 92 0;
#X connect 116 1 95 1;
