#N canvas 0 23 1440 828 10;
#X text 37 21 ===========;
#X text 133 8 . ____ ._____ _ .......___ .;
#X text 133 18 .| __ )| ____| |....../ _ |.;
#X text 133 38 .| |_) | |___| |___ / ___ |.;
#X text 133 48 .|____/|_____|_____/_/..._|.io;
#X text 133 58 ............................;
#X text 133 28 .| __ || __|.| |...../ _| |.;
#X text 39 11 Caress;
#X obj 42 101 mo.init;
#X obj 114 101 mo.ui;
#X obj 120 735 dac~ 27 28 29 30;
#X obj 527 101 mo.strip 1;
#X text 118 594 SCOPE ========, f 9;
#X obj 120 652 route /scope1 /scope2 /scope3 /scope4;
#X obj 120 625 r toScope;
#X obj 727 101 mo.strip 4;
#X obj 527 388 s mo.out.s1;
#X obj 727 387 s mo.out.s2;
#X obj 527 73 r mo.in.s1;
#X obj 727 72 r mo.in.s2;
#X obj 114 448 s mo.out.ui;
#X obj 115 77 r mo.in.ui;
#X obj 752 619 ali.gain;
#X obj 821 619 ali.gain;
#X obj 483 1123 dac~ 1 2;
#X text 479 1081 DAC ========, f 9;
#X obj 752 543 adc~ 1 2, f 12;
#X text 749 520 PIEZOS 1 \, 2;
#X obj 752 785 ali.gain;
#X obj 893 786 ali.gain;
#X obj 743 955 ali.gain2;
#X obj 752 731 resonators~ 480 0.5 1;
#X obj 902 735 resonators~ 880 0.5 1;
#X floatatom 1949 648 5 0 0 0 - - -, f 5;
#X msg 2166 438 indian-roots_Chakoa-8.coll indian-roots_Chakoa-9.coll
indian-roots_Dhalki-2.coll indian-roots_Duggi-4.coll indian-roots_Hand-Dhal.coll
indian-roots_khol.coll indian-roots_Madal.coll indian-roots_Manjeera-1.coll
indian-roots_Mirdangam-1.coll indian-roots_Mirdangam-4.coll indian-roots_Mirdangam-15.coll
indian-roots_Mirdangam-low-1.coll indian-roots_Stick-Dhal-1.coll indian-roots_Stick-Dhal-8.coll
indian-swar_DH1LDGE.max indian-swar_DH1TIN.max indian-swar_NG1GE.max
indian-swar_NG1NA.max indian-swar_PK1DIN.max indian-swar_PK1GE.max
indian-swar_PK1LOWTA.max;
#X floatatom 2015 563 5 0 0 0 - - -, f 5;
#X obj 1954 679 ali.res-model-loader;
#X text 2191 602 list of resonance model collections (max style text
file) they should all be in the search path;
#X obj 903 681 *~ 100;
#X obj 752 677 *~ 100;
#X obj 677 723 loadbang;
#X msg 677 748 127;
#X obj 1297 378 loadbang;
#X obj 1376 761 ali.res-model-loader;
#X floatatom 1432 555 5 0 0 0 - - -, f 5;
#X obj 2015 515 ali.scale 0 127 1 18;
#X obj 1433 509 ali.scale 0 127 1 18;
#X obj 1433 479 mo.r s1 k2;
#X obj 1433 531 int;
#X obj 2015 537 int;
#X obj 2015 492 mo.r s2 k2;
#X obj 1801 899 mo.r s1 k1;
#X msg 802 677 clear;
#X msg 956 681 clear;
#X obj 934 496 mo.r s1 s1;
#X obj 1017 497 mo.r s2 s1;
#X obj 934 569 mo.s s1 l1;
#X obj 873 900 loadbang;
#X msg 873 922 127;
#X obj 869 452 loadbang;
#X obj 934 547 tgl 15 0 empty empty empty 17 7 0 10 -262144 -1 -1 127
127;
#X obj 1017 547 tgl 15 0 empty empty empty 17 7 0 10 -262144 -1 -1
127 127;
#X obj 934 520 sel 0;
#X obj 1017 520 sel 0;
#X obj 1017 570 mo.s s2 l1;
#X obj 1089 497 loadbang;
#X msg 1089 522 127;
#X obj 1433 576 t 127 b f b 0, f 31;
#X obj 2015 594 t 127 b f b 0;
#X obj 1799 974 mo.s s1 st;
#X obj 281 550 adc~ 7 8 9 10, f 17;
#X msg 1349 414 30;
#X obj 962 108 mo.joy 1;
#X obj 1091 108 mo.joy 2;
#X msg 1377 1028 rate-scale \$1;
#X floatatom 1390 959 5 0 0 0 - - -, f 5;
#X floatatom 1552 998 5 0 0 0 - - -, f 5;
#X msg 1539 1027 frequency-scale \$1;
#X floatatom 1684 999 5 0 0 0 - - -, f 5;
#X msg 1671 1028 gain-scale \$1;
#X obj 1366 1143 ali.res-transform;
#X obj 1390 824 hsl 128 15 0 127 0 0 empty empty empty -2 -8 0 10 -262144
-1 -1 9800 1;
#X obj 1390 897 moses 64;
#X obj 1390 928 ali.scale 0 64 0 1;
#X obj 1508 929 ali.scale 64 127 1 5;
#X floatatom 1785 999 5 0 0 0 - - -, f 5;
#X msg 1772 1028 frequency-add \$1;
#X msg 2015 942 rate-scale \$1;
#X floatatom 2028 913 5 0 0 0 - - -, f 5;
#X floatatom 2140 913 5 0 0 0 - - -, f 5;
#X msg 2127 941 frequency-scale \$1;
#X floatatom 2272 913 5 0 0 0 - - -, f 5;
#X msg 2259 942 gain-scale \$1;
#X obj 1954 997 ali.res-transform;
#X obj 2037 728 hsl 128 15 0 127 0 0 empty empty empty -2 -8 0 10 -262144
-1 -1 10650 1;
#X obj 2037 841 moses 64;
#X obj 2037 872 ali.scale 0 64 0 1;
#X obj 2155 873 ali.scale 64 127 1 5;
#X floatatom 2370 914 5 0 0 0 - - -, f 5;
#X msg 2360 940 frequency-add \$1;
#X obj 962 345 s mo.out.j1;
#X obj 1091 347 s mo.out.j2;
#X obj 1390 801 mo.r j1 h;
#X obj 2037 704 mo.r j2 h;
#X obj 518 568 metro 600;
#X msg 518 599 0.5;
#X msg 588 599 0.5;
#X obj 588 568 metro 200;
#X obj 518 528 tgl 15 0 empty empty empty 17 7 0 10 -262144 -1 -1 0
1;
#X obj 1646 840 mo.r j1 v;
#X obj 1715 897 mo.r ui k1;
#X obj 794 923 mo.r ui k4, f 11;
#N canvas 495 23 450 300 Joy-Freq 0;
#X obj 128 96 hsl 128 15 0 127 0 0 empty empty empty -2 -8 0 10 -262144
-1 -1 7358 1;
#X obj 33 244 + 0;
#X obj 282 80 ali.scale 0 127 0.25 4;
#X obj 320 123 * 1.5;
#X obj 25 215 t b f;
#X obj 128 118 moses 64;
#X obj 128 169 ali.scale 0 64 0 0;
#X obj 267 169 ali.scale 64 127 0 0;
#X obj 267 192 - 0;
#X obj 274 122 * 0.5;
#X obj 128 191 - 0;
#X obj 128 73 inlet;
#X obj 282 58 inlet;
#X obj 38 280 outlet;
#X connect 0 0 5 0;
#X connect 1 0 13 0;
#X connect 2 0 3 0;
#X connect 2 0 4 0;
#X connect 2 0 6 4;
#X connect 2 0 7 3;
#X connect 2 0 8 1;
#X connect 2 0 9 0;
#X connect 2 0 10 1;
#X connect 3 0 7 4;
#X connect 4 0 1 0;
#X connect 4 1 1 1;
#X connect 5 0 6 0;
#X connect 5 1 7 0;
#X connect 6 0 10 0;
#X connect 7 0 8 0;
#X connect 8 0 1 0;
#X connect 9 0 6 3;
#X connect 10 0 1 0;
#X connect 11 0 0 0;
#X connect 12 0 2 0;
#X restore 1648 926 pd Joy-Freq;
#N canvas 495 23 450 300 Joy-Freq 0;
#X obj 128 96 hsl 128 15 0 127 0 0 empty empty empty -2 -8 0 10 -262144
-1 -1 0 1;
#X obj 33 244 + 0;
#X obj 282 80 ali.scale 0 127 0.25 4;
#X obj 320 123 * 1.5;
#X obj 25 215 t b f;
#X obj 128 118 moses 64;
#X obj 128 169 ali.scale 0 64 0 0;
#X obj 267 169 ali.scale 64 127 0 0;
#X obj 267 192 - 0;
#X obj 274 122 * 0.5;
#X obj 128 191 - 0;
#X obj 128 73 inlet;
#X obj 282 58 inlet;
#X obj 38 280 outlet;
#X connect 0 0 5 0;
#X connect 1 0 13 0;
#X connect 2 0 3 0;
#X connect 2 0 4 0;
#X connect 2 0 6 4;
#X connect 2 0 7 3;
#X connect 2 0 8 1;
#X connect 2 0 9 0;
#X connect 2 0 10 1;
#X connect 3 0 7 4;
#X connect 4 0 1 0;
#X connect 4 1 1 1;
#X connect 5 0 6 0;
#X connect 5 1 7 0;
#X connect 6 0 10 0;
#X connect 7 0 8 0;
#X connect 8 0 1 0;
#X connect 9 0 6 3;
#X connect 10 0 1 0;
#X connect 11 0 0 0;
#X connect 12 0 2 0;
#X restore 2304 837 pd Joy-Freq;
#X obj 2304 738 mo.r j2 v;
#X obj 2371 808 mo.r ui k3;
#X msg 869 477 127;
#X obj 1799 952 / 127;
#X obj 2471 868 / 127;
#X obj 2473 815 mo.r s2 k1;
#X obj 2471 890 mo.s s2 st;
#X obj 2411 847 ali.scale 1 127 0 20;
#X obj 1739 931 ali.scale 1 127 0 20;
#X obj 1390 865 spigot;
#X obj 1529 805 mo.r j1 s;
#X obj 1529 827 sel 0;
#X obj 1529 849 tgl 15 0 empty empty empty 17 7 0 10 -262144 -1 -1
1 1;
#X obj 1593 805 loadbang;
#X msg 1593 827 1;
#X obj 1648 893 spigot;
#X obj 2037 778 spigot;
#X obj 2178 729 sel 0;
#X obj 2178 751 tgl 15 0 empty empty empty 17 7 0 10 -262144 -1 -1
1 1;
#X obj 2242 707 loadbang;
#X msg 2242 729 1;
#X obj 2304 806 spigot;
#X obj 2178 707 mo.r j2 s;
#X text 517 505 DEBUG;
#X obj 1646 862 change;
#X obj 1390 844 change;
#X obj 2037 748 change;
#X obj 2304 760 change;
#X obj 1390 1002 line;
#X floatatom 1461 998 5 0 0 0 - - -, f 5;
#X msg 1390 980 \$1 80;
#X obj 981 1159 loadmess @defer 1;
#X msg 980 1038 set \$1 \$2 \$3 \$4 \$5 \$6 \$7 \$8 \$9 \$10 \$11 \$12
\$13 \$14 \$15 \$16 \$17 \$18 \$19 \$20 \$21 \$22 \$23 \$24 \$25 \$26
\$27 \$28 \$29 \$30 \$31 \$32 \$33 \$34 \$35 \$36 \$37 \$38 \$39 \$40
\$41 \$42 \$43 \$44 \$45 \$46 \$47 \$48 \$49 \$50 \$51 \$52 \$53 \$54
\$55 \$56 \$57 \$58 \$59 \$60 \$61 \$62 \$63 \$64 \$65 \$66 \$67 \$68
\$69 \$70 \$71 \$72 \$73 \$74 \$75 \$76 \$77 \$78 \$79 \$80 \$81 \$82
\$83 \$84 \$85 \$86 \$87 \$88 \$89 \$90;
#X obj 980 1134 t b a;
#X obj 1364 684 loadmess bang @defer 1;
#X obj 1348 718 loadmess @defer 1;
#X msg 1297 684 set 30;
#X connect 9 0 20 0;
#X connect 11 0 16 0;
#X connect 14 0 13 0;
#X connect 15 0 17 0;
#X connect 18 0 11 0;
#X connect 19 0 15 0;
#X connect 21 0 9 0;
#X connect 22 0 39 0;
#X connect 23 0 38 0;
#X connect 26 0 22 0;
#X connect 26 1 23 0;
#X connect 28 0 30 0;
#X connect 28 0 30 1;
#X connect 29 0 30 0;
#X connect 29 0 30 1;
#X connect 30 0 24 0;
#X connect 30 1 24 1;
#X connect 31 0 28 0;
#X connect 32 0 29 0;
#X connect 33 0 36 0;
#X connect 34 0 43 2;
#X connect 34 0 36 2;
#X connect 35 0 68 0;
#X connect 36 0 93 0;
#X connect 38 0 32 0;
#X connect 39 0 31 0;
#X connect 40 0 41 0;
#X connect 41 0 28 1;
#X connect 41 0 29 1;
#X connect 42 0 34 0;
#X connect 42 0 71 0;
#X connect 42 0 150 0;
#X connect 43 0 80 0;
#X connect 44 0 67 0;
#X connect 45 0 49 0;
#X connect 46 0 48 0;
#X connect 47 0 46 0;
#X connect 48 0 44 0;
#X connect 49 0 35 0;
#X connect 50 0 45 0;
#X connect 51 0 117 0;
#X connect 51 0 122 0;
#X connect 52 0 31 0;
#X connect 53 0 32 0;
#X connect 54 0 62 0;
#X connect 55 0 63 0;
#X connect 57 0 58 0;
#X connect 58 0 30 2;
#X connect 59 0 116 0;
#X connect 60 0 56 0;
#X connect 60 0 22 1;
#X connect 61 0 64 0;
#X connect 61 0 23 1;
#X connect 62 0 60 0;
#X connect 63 0 61 0;
#X connect 65 0 66 0;
#X connect 66 0 61 0;
#X connect 66 0 60 0;
#X connect 67 0 28 1;
#X connect 67 1 148 0;
#X connect 67 2 43 1;
#X connect 67 3 52 0;
#X connect 67 4 28 1;
#X connect 68 0 29 1;
#X connect 68 1 33 0;
#X connect 68 2 36 1;
#X connect 68 3 53 0;
#X connect 68 4 29 1;
#X connect 70 0 10 0;
#X connect 70 1 10 1;
#X connect 70 2 10 2;
#X connect 70 3 10 3;
#X connect 71 0 33 0;
#X connect 72 0 100 0;
#X connect 73 0 101 0;
#X connect 74 0 80 0;
#X connect 75 0 144 0;
#X connect 76 0 77 0;
#X connect 77 0 80 0;
#X connect 78 0 79 0;
#X connect 79 0 80 0;
#X connect 80 0 146 0;
#X connect 81 0 139 0;
#X connect 82 0 83 0;
#X connect 82 1 84 0;
#X connect 83 0 75 0;
#X connect 84 0 75 0;
#X connect 85 0 86 0;
#X connect 86 0 80 0;
#X connect 87 0 93 0;
#X connect 88 0 87 0;
#X connect 89 0 90 0;
#X connect 90 0 93 0;
#X connect 91 0 92 0;
#X connect 92 0 93 0;
#X connect 93 0 32 0;
#X connect 94 0 140 0;
#X connect 95 0 96 0;
#X connect 95 1 97 0;
#X connect 96 0 88 0;
#X connect 97 0 88 0;
#X connect 98 0 99 0;
#X connect 99 0 93 0;
#X connect 102 0 81 0;
#X connect 103 0 94 0;
#X connect 104 0 105 0;
#X connect 105 0 31 0;
#X connect 106 0 32 0;
#X connect 107 0 106 0;
#X connect 108 0 104 0;
#X connect 108 0 107 0;
#X connect 109 0 138 0;
#X connect 110 0 112 1;
#X connect 111 0 30 2;
#X connect 112 0 76 0;
#X connect 113 0 89 0;
#X connect 114 0 141 0;
#X connect 115 0 113 1;
#X connect 116 0 22 1;
#X connect 116 0 23 1;
#X connect 117 0 69 0;
#X connect 118 0 120 0;
#X connect 119 0 118 0;
#X connect 119 0 121 0;
#X connect 121 0 91 0;
#X connect 122 0 78 0;
#X connect 123 0 82 0;
#X connect 124 0 125 0;
#X connect 125 0 126 0;
#X connect 126 0 123 1;
#X connect 126 0 129 1;
#X connect 127 0 128 0;
#X connect 128 0 126 0;
#X connect 129 0 112 0;
#X connect 130 0 95 0;
#X connect 131 0 132 0;
#X connect 132 0 130 1;
#X connect 132 0 135 1;
#X connect 133 0 134 0;
#X connect 134 0 132 0;
#X connect 135 0 113 0;
#X connect 136 0 131 0;
#X connect 138 0 129 0;
#X connect 139 0 123 0;
#X connect 140 0 130 0;
#X connect 141 0 135 0;
#X connect 142 0 74 0;
#X connect 142 0 143 0;
#X connect 144 0 142 0;
#X connect 145 0 31 0;
#X connect 146 0 147 0;
#X connect 147 0 145 0;
#X connect 147 1 145 0;
#X connect 148 0 149 0;
#X connect 149 0 43 0;
#X connect 150 0 149 0;
