#N canvas 0 23 1440 828 10;
#X text 37 21 ===========;
#X text 133 8 . ____ ._____ _ .......___ .;
#X text 133 18 .| __ )| ____| |....../ _ |.;
#X text 133 38 .| |_) | |___| |___ / ___ |.;
#X text 133 48 .|____/|_____|_____/_/..._|.io;
#X text 133 58 ............................;
#X text 133 28 .| __ || __|.| |...../ _| |.;
#X text 39 11 Caress;
#X obj 42 101 mo.init;
#X obj 114 101 mo.ui;
#X obj 120 691 dac~ 27 28 29 30;
#X obj 527 101 mo.strip 1;
#X text 118 594 SCOPE ========, f 9;
#X obj 120 652 route /scope1 /scope2 /scope3 /scope4;
#X obj 120 625 r toScope;
#X obj 727 101 mo.strip 4;
#X obj 527 388 s mo.out.s1;
#X obj 727 387 s mo.out.s2;
#X obj 527 73 r mo.in.s1;
#X obj 727 72 r mo.in.s2;
#X text 1856 26 ===========;
#X obj 114 448 s mo.out.ui;
#X obj 115 77 r mo.in.ui;
#X obj 752 619 ali.gain;
#X obj 821 619 ali.gain;
#X obj 483 1123 dac~ 1 2;
#X obj 901 847 send~ ali.loop-pedal-audio;
#X text 479 1081 DAC ========, f 9;
#X obj 752 543 adc~ 1 2, f 12;
#X text 749 520 PIEZOS 1 \, 2;
#X obj 752 785 ali.gain;
#X obj 893 786 ali.gain;
#X obj 792 852 r mo.out.ui;
#X obj 555 830 ali.gain, f 16;
#X obj 743 955 ali.gain2;
#X obj 670 832 mo.r ui k1;
#X obj 743 1019 ali.gain2;
#X obj 834 1001 mo.r ui k4, f 11;
#X obj 792 875 route /k2;
#X obj 752 731 resonators~ 480 0.5 1;
#X obj 902 735 resonators~ 880 0.5 1;
#X floatatom 1579 944 5 0 0 0 - - -, f 5;
#X msg 1876 792 indian-roots_Chakoa-8.coll indian-roots_Chakoa-9.coll
indian-roots_Dhalki-2.coll indian-roots_Duggi-4.coll indian-roots_Hand-Dhal.coll
indian-roots_khol.coll indian-roots_Madal.coll indian-roots_Manjeera-1.coll
indian-roots_Mirdangam-1.coll indian-roots_Mirdangam-4.coll indian-roots_Mirdangam-15.coll
indian-roots_Mirdangam-low-1.coll indian-roots_Stick-Dhal-1.coll indian-roots_Stick-Dhal-8.coll
indian-swar_DH1LDGE.max indian-swar_DH1TIN.max indian-swar_NG1GE.max
indian-swar_NG1NA.max indian-swar_PK1DIN.max indian-swar_PK1GE.max
indian-swar_PK1LOWTA.max;
#X floatatom 1645 917 5 0 0 0 - - -, f 5;
#X obj 1584 975 ali.res-model-loader;
#X text 1901 956 list of resonance model collections (max style text
file) they should all be in the search path;
#X obj 903 681 *~ 100;
#X obj 752 677 *~ 100;
#X obj 677 723 loadbang;
#X msg 677 748 127;
#X obj 1322 743 loadbang;
#X obj 1356 975 ali.res-model-loader;
#X floatatom 1338 937 5 0 0 0 - - -, f 5;
#X floatatom 1423 919 5 0 0 0 - - -, f 5;
#X obj 1645 869 ali.scale 0 127 1 18;
#X obj 1423 863 ali.scale 0 127 1 18;
#X obj 1423 833 mo.r s1 k2;
#X obj 1423 885 int;
#X obj 1645 891 int;
#X obj 1645 846 mo.r s2 k2;
#X obj 902 587 mo.r s1 k1;
#X obj 983 587 mo.r s2 k1;
#X obj 1424 942 t b f b;
#X msg 969 685 clear;
#X msg 1032 687 clear;
#X obj 999 400 ml.dtree;
#X obj 1645 938 t b f b;
#X msg 1338 768 60;
#X connect 9 0 21 0;
#X connect 11 0 16 0;
#X connect 13 0 10 0;
#X connect 13 1 10 1;
#X connect 13 2 10 2;
#X connect 13 3 10 3;
#X connect 14 0 13 0;
#X connect 15 0 17 0;
#X connect 18 0 11 0;
#X connect 19 0 15 0;
#X connect 22 0 9 0;
#X connect 23 0 47 0;
#X connect 24 0 46 0;
#X connect 28 0 23 0;
#X connect 28 0 10 0;
#X connect 28 1 24 0;
#X connect 28 1 10 1;
#X connect 30 0 26 0;
#X connect 30 0 34 0;
#X connect 30 0 34 1;
#X connect 31 0 26 0;
#X connect 31 0 34 0;
#X connect 31 0 34 1;
#X connect 32 0 38 0;
#X connect 33 0 34 0;
#X connect 33 0 34 1;
#X connect 34 0 36 0;
#X connect 34 1 36 1;
#X connect 35 0 33 1;
#X connect 36 0 25 0;
#X connect 37 0 36 2;
#X connect 38 0 34 2;
#X connect 39 0 30 0;
#X connect 40 0 31 0;
#X connect 41 0 44 0;
#X connect 42 0 44 2;
#X connect 42 0 51 2;
#X connect 43 0 66 0;
#X connect 44 0 40 0;
#X connect 46 0 40 0;
#X connect 47 0 39 0;
#X connect 48 0 49 0;
#X connect 49 0 30 1;
#X connect 49 0 31 1;
#X connect 50 0 42 0;
#X connect 50 0 67 0;
#X connect 51 0 39 0;
#X connect 52 0 51 0;
#X connect 53 0 62 0;
#X connect 54 0 58 0;
#X connect 55 0 57 0;
#X connect 56 0 55 0;
#X connect 57 0 53 0;
#X connect 58 0 43 0;
#X connect 59 0 54 0;
#X connect 60 0 23 1;
#X connect 61 0 24 1;
#X connect 62 0 52 0;
#X connect 62 1 51 1;
#X connect 62 2 63 0;
#X connect 63 0 39 0;
#X connect 64 0 40 0;
#X connect 66 0 41 0;
#X connect 66 1 44 1;
#X connect 66 2 64 0;
#X connect 67 0 41 0;
#X connect 67 0 52 0;
