#N canvas 0 23 1440 828 10;
#X text 1173 -715 ===========;
#X obj 903 -620 sel 127;
#X obj 903 -597 tgl 15 0 empty empty record 17 7 0 10 -262144 -1 -1
0 1;
#N canvas 27 185 1241 614 router 0;
#X obj 107 50 inlet;
#X obj 108 139 spigot;
#X obj 366 141 spigot;
#X obj 365 47 inlet;
#X msg 365 99 1;
#X msg 399 100 0;
#X obj 110 213 sel 1 0;
#X msg 63 318 0 record 1;
#X obj 166 271 t b b;
#X msg 159 317 0 record 0;
#X obj 366 483 outlet;
#X msg 238 222 0;
#X msg 269 222 1;
#X obj 366 210 sel 1 0;
#X obj 499 319 ali.counter 1 4;
#X obj 366 394 list prepend;
#X msg 366 319 record 1;
#X obj 366 267 t b b;
#X msg 436 319 record 0;
#X msg 438 101 1;
#X obj 107 88 t f f;
#X obj 839 59 inlet;
#X msg 839 196 sync 1 \, autosize 0 \, overdub 1;
#X obj 839 121 ali.uzi 4;
#X obj 839 361 list prepend;
#X obj 839 408 route list;
#X msg 770 296 play 0 \, clear;
#X obj 770 121 ali.uzi 4;
#X obj 1054 201 ali.uzi 5;
#X obj 1104 228 - 1;
#X msg 1038 275 play \$1;
#X obj 1038 403 list prepend;
#X obj 1054 149 tgl 15 0 empty empty empty 17 7 0 10 -262144 -1 -1
0 1;
#X obj 1054 169 t b f;
#X obj 1104 250 t b f;
#X obj 1038 246 f;
#X obj 1054 62 inlet;
#X text 1050 39 Play/Pause All;
#X obj 620 165 ali.uzi 5;
#X obj 670 192 - 1;
#X obj 604 367 list prepend;
#X obj 670 214 t b f;
#X text 614 107 Hard Reset;
#X msg 604 239 reset;
#X obj 619 133 t b;
#X obj 366 416 print;
#X msg 244 316 0 reset;
#X connect 0 0 20 0;
#X connect 1 0 6 0;
#X connect 2 0 13 0;
#X connect 3 0 4 0;
#X connect 3 0 5 0;
#X connect 3 0 19 0;
#X connect 3 0 27 0;
#X connect 3 0 46 0;
#X connect 4 0 1 1;
#X connect 5 0 2 1;
#X connect 6 0 7 0;
#X connect 6 1 8 0;
#X connect 7 0 10 0;
#X connect 8 0 9 0;
#X connect 8 1 11 0;
#X connect 8 1 12 0;
#X connect 9 0 10 0;
#X connect 11 0 1 1;
#X connect 12 0 2 1;
#X connect 13 0 17 0;
#X connect 13 1 18 0;
#X connect 14 0 15 1;
#X connect 15 0 10 0;
#X connect 15 0 45 0;
#X connect 16 0 15 0;
#X connect 17 0 16 0;
#X connect 17 1 14 0;
#X connect 18 0 15 0;
#X connect 19 0 14 2;
#X connect 20 0 1 0;
#X connect 20 1 2 0;
#X connect 21 0 23 0;
#X connect 22 0 24 0;
#X connect 23 0 22 0;
#X connect 23 2 24 1;
#X connect 24 0 25 0;
#X connect 25 0 10 0;
#X connect 26 0 24 0;
#X connect 27 0 26 0;
#X connect 27 2 24 1;
#X connect 28 2 29 0;
#X connect 29 0 34 0;
#X connect 30 0 31 0;
#X connect 31 0 10 0;
#X connect 32 0 33 0;
#X connect 33 0 28 0;
#X connect 33 1 35 1;
#X connect 34 0 35 0;
#X connect 34 1 31 1;
#X connect 35 0 30 0;
#X connect 36 0 32 0;
#X connect 38 2 39 0;
#X connect 39 0 41 0;
#X connect 40 0 10 0;
#X connect 41 0 43 0;
#X connect 41 1 40 1;
#X connect 43 0 40 0;
#X connect 44 0 38 0;
#X connect 46 0 10 0;
#X restore 904 -563 pd router;
#X obj 973 -594 bng 15 250 50 0 empty empty reset 17 7 0 10 -262144
-1 -1;
#X obj 904 -494 route 0 1 2 3 4;
#X obj 1029 -342 ali.loop-pedal sound4;
#X obj 593 -342 ali.loop-pedal sound1;
#X obj 592 -613 ali.loop-pedal sound0;
#X obj 739 -342 ali.loop-pedal sound2;
#X obj 884 -342 ali.loop-pedal sound3;
#X obj 658 -399 send~ ali.loop-pedal-sync;
#X obj 1037 -594 bng 15 250 50 0 empty empty init 17 7 0 10 -262144
-1 -1;
#X obj 1120 -641 t b b;
#X obj 1120 -666 loadbang;
#X obj 1043 -501 print;
#X msg 1042 -523 recording;
#X obj 1040 -551 sel 1;
#X obj 1089 -594 tgl 15 0 empty empty play/pause 17 7 0 10 -262144
-1 -1 0 1;
#X obj 1165 -451 loadbang;
#X msg 1165 -429 sync 1 \, overdub 1;
#X obj 443 55 ali.gain, f 16;
#X obj 574 12 hsl 128 15 0 127 0 0 empty empty empty -2 -8 0 10 -262144
-1 -1 350 1;
#X obj 443 99 dac~;
#X obj 164 -650 tickler.in;
#X obj 164 -444 send~ ali.loop-pedal-audio;
#X connect 1 0 2 0;
#X connect 2 0 3 0;
#X connect 2 0 17 0;
#X connect 3 0 5 0;
#X connect 4 0 3 1;
#X connect 5 0 8 2;
#X connect 5 1 7 2;
#X connect 5 2 9 2;
#X connect 5 3 10 2;
#X connect 5 4 6 2;
#X connect 6 0 21 0;
#X connect 7 0 21 0;
#X connect 8 0 21 0;
#X connect 8 1 11 0;
#X connect 8 2 6 2;
#X connect 8 2 10 2;
#X connect 8 2 7 2;
#X connect 8 2 9 2;
#X connect 9 0 21 0;
#X connect 10 0 21 0;
#X connect 12 0 3 2;
#X connect 13 0 4 0;
#X connect 13 1 12 0;
#X connect 14 0 13 0;
#X connect 16 0 15 0;
#X connect 17 0 16 0;
#X connect 18 0 3 3;
#X connect 19 0 20 0;
#X connect 20 0 9 2;
#X connect 20 0 10 2;
#X connect 20 0 7 2;
#X connect 20 0 6 2;
#X connect 21 0 23 0;
#X connect 21 0 23 1;
#X connect 22 0 21 1;
#X connect 24 0 25 0;
