#N canvas 0 23 1440 828 10;
#X text 163 478 class;
#X obj 25 795 outlet;
#X msg 41 157 clear;
#X obj 77 362 hradio 15 1 0 8 empty empty empty 0 -8 0 10 -262144 -1
-1 0;
#X floatatom 139 502 5 0 0 0 - - -, f 5;
#X msg 40 205 normalise;
#X msg 295 155 train;
#X msg 141 637 add 3;
#X obj 77 502 t b float;
#X text 28 99 1 clear;
#X text 63 342 3 give examples;
#X text 112 100 2 training mode;
#X text 281 96 4 train;
#X text 472 96 5 mapping mode;
#X obj 486 366 list prepend map;
#X obj 77 548 list prepend;
#X obj 77 571 list prepend add;
#X obj 141 594 list prepend set;
#X obj 77 524 list append;
#X obj 486 276 spigot;
#X obj 237 474 spigot;
#X obj 486 156 bng 15 250 50 0 empty empty empty 17 7 0 10 -262144
-1 -1;
#X obj 127 158 bng 15 250 50 0 empty empty empty 17 7 0 10 -262144
-1 -1;
#X obj 486 387 list trim;
#X obj 77 595 list trim;
#X obj 141 616 list trim;
#X obj 77 480 + 1;
#X msg 237 543 -0.434814 -0.191467 -0.887222;
#X obj 237 500 list prepend set;
#X obj 237 522 list trim;
#X msg 513 342 -0.0467682 -0.483917 -0.848923;
#X obj 513 297 list prepend set;
#X obj 513 319 list trim;
#X obj 214 544 bng 15 250 50 0 empty empty empty 17 7 0 10 -262144
-1 -1;
#X obj 493 343 bng 15 250 50 0 empty empty empty 17 7 0 10 -262144
-1 -1;
#X msg 127 202 1;
#X msg 190 201 0;
#X obj 127 179 t bang bang;
#X obj 486 178 t bang bang;
#X msg 486 198 1;
#X msg 549 199 0;
#X obj 40 226 s \$0out;
#X obj 127 223 s \$0spig1;
#X obj 190 222 s \$0spig2;
#X obj 295 176 s \$0out;
#X obj 486 221 s \$0spig2;
#X obj 549 220 s \$0spig1;
#X obj 486 253 r \$0data;
#X obj 543 253 r \$0spig2;
#X obj 688 5 inlet;
#X obj 688 27 s \$0data;
#X obj 237 452 r \$0data;
#X obj 294 452 r \$0spig1;
#X obj 77 616 s \$0out;
#X obj 486 408 s \$0out;
#X obj 25 734 r \$0out;
#X obj 41 131 r \$0clear;
#X obj 127 131 r \$0trainMode;
#X obj 484 130 r \$0mapMode;
#X obj 294 129 r \$0train;
#X obj 66 319 r \$0example;
#X obj 195 307 spigot;
#X obj 255 282 r \$0listen;
#X obj 195 281 r \$0data;
#X obj 77 449 spigot;
#X obj 117 395 r \$0listen;
#X obj 117 417 == 0;
#X obj 202 392 f;
#X obj 195 333 t b b;
#X obj 41 178 s \$0out;
#X obj 26 -3 inlet;
#X obj 25 48 s \$0clear;
#X obj 87 48 s \$0trainMode;
#X obj 174 48 s \$0train;
#X obj 237 48 s \$0mapMode;
#X obj 312 49 s \$0example;
#X obj 390 49 s \$0listen;
#X obj 26 20 route /clear /trainMode /train /mapMode /example /listen
/mode, f 105;
#X obj 464 49 s \$0mode;
#X obj 765 642 hradio 15 0 0 5 empty empty /example 0 -10 0 10 -262144
-1 -1 0;
#X obj 714 640 bng 15 250 50 0 empty empty /train -7 -10 0 10 -262144
-1 -1;
#X obj 713 607 bng 15 250 50 0 empty empty /clear -7 -10 0 10 -262144
-1 -1;
#X obj 764 607 tgl 15 0 empty empty /trainMode 20 4 0 10 -262144 -1
-1 0 1;
#X obj 756 708 sel 0;
#X obj 783 805 s \$0trainMode;
#X obj 703 805 s \$0mapMode;
#X obj 883 515 r \$0mapMode;
#X obj 764 515 r \$0trainMode;
#X obj 976 516 r \$0example;
#X msg 976 538 set \$1;
#X text 998 622 inlet 1: control msgs;
#X text 998 644 inlet 2: data in;
#X obj 1013 746 s \$0example;
#X obj 622 627 s \$0clear;
#X obj 623 662 s \$0train;
#X msg 1058 547 number \$1;
#X obj 1058 511 f \$1;
#X obj 1058 485 loadbang;
#X obj 1143 535 == 0;
#X msg 1143 587 5;
#X obj 1143 557 sel 1;
#X obj 864 607 tgl 15 0 empty empty /listen -5 -10 0 10 -262144 -1
-1 0 1;
#X obj 1090 746 s \$0listen;
#X msg 1205 526 set \$1;
#X obj 1205 504 r \$0listen;
#X msg 796 745 label /mapMode;
#X msg 892 745 label /trainMode;
#X text 755 590 /mode;
#X obj 682 513 r \$0mode;
#X obj 682 535 sel 1;
#N canvas 495 23 211 159 train 0;
#X msg 42 97 set 1;
#X obj 42 57 t b b;
#X obj 42 33 inlet;
#X obj 42 123 outlet;
#X msg 86 97 label /trainMode;
#X connect 0 0 3 0;
#X connect 1 0 0 0;
#X connect 1 1 4 0;
#X connect 2 0 1 0;
#X connect 4 0 3 0;
#X restore 764 538 pd train;
#N canvas 495 23 211 159 map 0;
#X obj 21 46 t b b;
#X obj 21 22 inlet;
#X obj 21 112 outlet;
#X msg 65 86 label /mapMode;
#X msg 21 86 set 0;
#X connect 0 0 4 0;
#X connect 0 1 3 0;
#X connect 1 0 0 0;
#X connect 3 0 2 0;
#X connect 4 0 2 0;
#X restore 883 536 pd map;
#X connect 2 0 69 0;
#X connect 3 0 64 0;
#X connect 3 0 67 1;
#X connect 5 0 41 0;
#X connect 6 0 44 0;
#X connect 8 0 18 0;
#X connect 8 1 4 0;
#X connect 8 1 15 1;
#X connect 14 0 23 0;
#X connect 15 0 16 0;
#X connect 16 0 17 0;
#X connect 16 0 24 0;
#X connect 17 0 25 0;
#X connect 18 0 15 0;
#X connect 19 0 14 0;
#X connect 19 0 31 0;
#X connect 19 0 34 0;
#X connect 20 0 28 0;
#X connect 20 0 33 0;
#X connect 20 0 18 1;
#X connect 21 0 38 0;
#X connect 22 0 37 0;
#X connect 23 0 54 0;
#X connect 24 0 53 0;
#X connect 25 0 7 0;
#X connect 26 0 8 0;
#X connect 28 0 29 0;
#X connect 29 0 27 0;
#X connect 31 0 32 0;
#X connect 32 0 30 0;
#X connect 35 0 42 0;
#X connect 36 0 43 0;
#X connect 37 0 35 0;
#X connect 37 1 36 0;
#X connect 38 0 39 0;
#X connect 38 1 40 0;
#X connect 39 0 45 0;
#X connect 40 0 46 0;
#X connect 47 0 19 0;
#X connect 48 0 19 1;
#X connect 49 0 50 0;
#X connect 51 0 20 0;
#X connect 52 0 20 1;
#X connect 55 0 1 0;
#X connect 56 0 2 0;
#X connect 57 0 22 0;
#X connect 58 0 21 0;
#X connect 59 0 6 0;
#X connect 60 0 3 0;
#X connect 61 0 68 0;
#X connect 62 0 61 1;
#X connect 63 0 61 0;
#X connect 64 0 26 0;
#X connect 65 0 66 0;
#X connect 66 0 64 1;
#X connect 67 0 26 0;
#X connect 68 0 67 0;
#X connect 68 1 3 0;
#X connect 70 0 77 0;
#X connect 77 0 71 0;
#X connect 77 1 72 0;
#X connect 77 2 73 0;
#X connect 77 3 74 0;
#X connect 77 4 75 0;
#X connect 77 5 76 0;
#X connect 77 6 78 0;
#X connect 79 0 92 0;
#X connect 80 0 94 0;
#X connect 81 0 93 0;
#X connect 82 0 83 0;
#X connect 83 0 105 0;
#X connect 83 0 85 0;
#X connect 83 1 106 0;
#X connect 83 1 84 0;
#X connect 86 0 111 0;
#X connect 87 0 110 0;
#X connect 88 0 89 0;
#X connect 89 0 79 0;
#X connect 95 0 79 0;
#X connect 96 0 95 0;
#X connect 96 0 98 0;
#X connect 97 0 96 0;
#X connect 98 0 100 0;
#X connect 99 0 95 0;
#X connect 100 0 99 0;
#X connect 101 0 102 0;
#X connect 103 0 101 0;
#X connect 104 0 103 0;
#X connect 105 0 82 0;
#X connect 106 0 82 0;
#X connect 108 0 109 0;
#X connect 109 0 110 0;
#X connect 109 1 111 0;
#X connect 110 0 82 0;
#X connect 111 0 82 0;
#X coords 0 -1 1 1 220 100 1 698 570;
