#N canvas 0 23 1440 828 10;
#X text 567 290 class;
#X obj 25 795 outlet;
#X msg 31 167 clear;
#X obj 481 174 hradio 15 1 0 8 empty empty empty 0 -8 0 10 -262144
-1 -1 3;
#X floatatom 543 314 5 0 0 0 - - -, f 5;
#X msg 335 155 train;
#X msg 545 449 add 4 69;
#X obj 481 314 t b float;
#X text 49 99 1 clear;
#X text 481 98 3 give examples;
#X text 168 100 2 training mode;
#X text 331 96 4 train;
#X text 814 94 5 mapping mode;
#X obj 828 364 list prepend map;
#X obj 481 360 list prepend;
#X obj 481 383 list prepend add;
#X obj 545 406 list prepend set;
#X obj 481 336 list append;
#X obj 828 274 spigot;
#X obj 611 286 spigot;
#X obj 828 154 bng 15 250 50 0 empty empty empty 17 7 0 10 -262144
-1 -1;
#X obj 168 158 bng 15 250 50 0 empty empty empty 17 7 0 10 -262144
-1 -1;
#X obj 828 385 list trim;
#X obj 481 407 list trim;
#X obj 545 428 list trim;
#X obj 481 292 + 1;
#X msg 611 355 69;
#X obj 611 312 list prepend set;
#X obj 611 334 list trim;
#X msg 855 340 34;
#X obj 855 295 list prepend set;
#X obj 855 317 list trim;
#X obj 588 356 bng 15 250 50 0 empty empty empty 17 7 0 10 -262144
-1 -1;
#X obj 835 341 bng 15 250 50 0 empty empty empty 17 7 0 10 -262144
-1 -1;
#X msg 168 202 1;
#X msg 231 201 0;
#X obj 168 179 t bang bang;
#X obj 828 176 t bang bang;
#X msg 828 196 1;
#X msg 891 197 0;
#X obj 168 223 s \$0spig1;
#X obj 231 222 s \$0spig2;
#X obj 335 176 s \$0out;
#X obj 828 219 s \$0spig2;
#X obj 891 218 s \$0spig1;
#X obj 828 251 r \$0data;
#X obj 885 251 r \$0spig2;
#X obj 688 23 inlet;
#X obj 688 45 s \$0data;
#X obj 611 264 r \$0data;
#X obj 668 264 r \$0spig1;
#X obj 481 428 s \$0out;
#X obj 828 406 s \$0out;
#X obj 25 664 r \$0out;
#X obj 51 131 r \$0clear;
#X obj 168 131 r \$0trainMode;
#X obj 825 127 r \$0mapMode;
#X obj 334 129 r \$0train;
#X obj 481 146 r \$0example;
#X obj 606 120 spigot;
#X obj 662 94 r \$0listen;
#X obj 606 94 r \$0data;
#X obj 481 261 spigot;
#X obj 521 207 r \$0listen;
#X obj 521 229 == 0;
#X obj 606 204 f;
#X obj 606 146 t b b;
#X obj 31 198 s \$0out;
#X obj 26 -108 inlet;
#X obj 25 66 s \$0clear;
#X obj 87 66 s \$0trainMode;
#X obj 174 66 s \$0train;
#X obj 237 66 s \$0mapMode;
#X obj 312 67 s \$0example;
#X obj 390 67 s \$0listen;
#X obj 464 67 s \$0mode;
#X obj 765 642 hradio 15 0 0 5 empty empty /example 0 -10 0 10 -262144
-1 -1 3;
#X obj 714 640 bng 15 250 50 0 empty empty /train -7 -10 0 10 -262144
-1 -1;
#X obj 713 607 bng 15 250 50 0 empty empty /clear -7 -10 0 10 -262144
-1 -1;
#X obj 764 607 tgl 15 0 empty empty /trainMode 20 4 0 10 -262144 -1
-1 1 1;
#X obj 756 708 sel 0;
#X obj 783 805 s \$0trainMode;
#X obj 703 805 s \$0mapMode;
#X obj 883 515 r \$0mapMode;
#X obj 764 515 r \$0trainMode;
#X obj 976 516 r \$0example;
#X msg 976 538 set \$1;
#X text 1008 622 inlet 1: control msgs;
#X text 1008 644 inlet 2: data in;
#X obj 1013 746 s \$0example;
#X obj 622 627 s \$0clear;
#X obj 623 662 s \$0train;
#X msg 1058 547 number \$1;
#X obj 1058 511 f \$1;
#X obj 1058 485 loadbang;
#X obj 1143 535 == 0;
#X msg 1143 587 5;
#X obj 1143 557 sel 1;
#X obj 864 607 tgl 15 0 empty empty /listen -5 -10 0 10 -262144 -1
-1 0 1;
#X obj 1090 746 s \$0listen;
#X msg 1205 526 set \$1;
#X obj 1205 504 r \$0listen;
#X msg 796 745 label /mapMode;
#X msg 892 745 label /trainMode;
#X text 755 590 /mode;
#X obj 682 513 r \$0mode;
#X obj 682 535 sel 1;
#N canvas 495 23 211 159 train 0;
#X msg 42 97 set 1;
#X obj 42 57 t b b;
#X obj 42 33 inlet;
#X obj 42 123 outlet;
#X msg 86 97 label /trainMode;
#X connect 0 0 3 0;
#X connect 1 0 0 0;
#X connect 1 1 4 0;
#X connect 2 0 1 0;
#X connect 4 0 3 0;
#X restore 764 538 pd train;
#N canvas 495 23 211 159 map 0;
#X obj 21 46 t b b;
#X obj 21 22 inlet;
#X obj 21 112 outlet;
#X msg 65 86 label /mapMode;
#X msg 21 86 set 0;
#X connect 0 0 4 0;
#X connect 0 1 3 0;
#X connect 1 0 0 0;
#X connect 3 0 2 0;
#X connect 4 0 2 0;
#X restore 883 536 pd map;
#X msg 1177 671 record \$1;
#X obj 1177 693 s \$0out;
#X obj 1177 650 r \$0listen;
#X msg 124 757 disconnect;
#X obj 279 766 list trim;
#X msg 117 736 connect 192.168.7.2 3001;
#X obj 279 721 oscformat;
#X obj 279 745 list prepend send;
#X obj 117 791 netsend -u -b;
#X text 115 666 Local sender;
#X obj 542 67 s \$0remote;
#X obj 920 607 tgl 15 0 empty empty /remote -5 -10 0 10 -262144 -1
-1 1 1;
#X obj 1159 745 s \$0remote;
#X msg 1279 525 set \$1;
#X obj 1279 503 r \$0remote;
#X obj 116 692 r \$0remote;
#X obj 116 714 sel 1;
#X msg 73 167 /clear;
#X obj 83 198 s \$0osc;
#X msg 246 153 /trainMode;
#X msg 437 207 /example \$1;
#X msg 385 155 /train;
#X msg 762 177 /mapMode;
#X text 1012 99 6 listen;
#X obj 1012 120 r \$0listen;
#X msg 1012 142 /listen \$1;
#X text 1079 99 For continuous data training;
#X obj 71 -43 netreceive -u -b;
#X obj 71 -91 loadbang;
#X msg 71 -67 listen 3001;
#X obj 71 -19 oscparse;
#X obj 71 2 list trim;
#X text 69 -111 Bela Receiver;
#X obj 246 178 s \$0osc;
#X obj 385 176 s \$0osc;
#X obj 437 228 s \$0osc;
#X obj 1012 164 s \$0osc;
#X obj 762 202 s \$0osc;
#X obj 281 580 unpack s 0;
#X obj 327 687 f;
#X msg 277 687 set \$1;
#X obj 277 664 symbol;
#X obj 281 614 t 0 b b s;
#X obj 281 551 r \$0osc;
#X obj 1204 558 loadbang;
#X msg 1204 580 0;
#X obj 26 38 route clear trainMode train mapMode example listen mode
remote, f 105;
#X msg 141 273 Training mode;
#X obj 141 299 print ml.train;
#X obj 965 254 print ml.train;
#X msg 965 228 Mapping mode;
#X connect 2 0 67 0;
#X connect 3 0 62 0;
#X connect 3 0 65 1;
#X connect 3 0 129 0;
#X connect 5 0 42 0;
#X connect 7 0 17 0;
#X connect 7 1 4 0;
#X connect 7 1 14 1;
#X connect 13 0 22 0;
#X connect 14 0 15 0;
#X connect 15 0 16 0;
#X connect 15 0 23 0;
#X connect 16 0 24 0;
#X connect 17 0 14 0;
#X connect 18 0 13 0;
#X connect 18 0 30 0;
#X connect 18 0 33 0;
#X connect 19 0 27 0;
#X connect 19 0 32 0;
#X connect 19 0 17 1;
#X connect 20 0 37 0;
#X connect 21 0 36 0;
#X connect 22 0 52 0;
#X connect 23 0 51 0;
#X connect 24 0 6 0;
#X connect 25 0 7 0;
#X connect 27 0 28 0;
#X connect 28 0 26 0;
#X connect 30 0 31 0;
#X connect 31 0 29 0;
#X connect 34 0 40 0;
#X connect 35 0 41 0;
#X connect 36 0 34 0;
#X connect 36 1 35 0;
#X connect 37 0 38 0;
#X connect 37 1 39 0;
#X connect 38 0 43 0;
#X connect 39 0 44 0;
#X connect 45 0 18 0;
#X connect 46 0 18 1;
#X connect 47 0 48 0;
#X connect 49 0 19 0;
#X connect 50 0 19 1;
#X connect 53 0 1 0;
#X connect 54 0 2 0;
#X connect 54 0 126 0;
#X connect 55 0 21 0;
#X connect 55 0 128 0;
#X connect 55 0 156 0;
#X connect 56 0 20 0;
#X connect 56 0 131 0;
#X connect 56 0 159 0;
#X connect 57 0 5 0;
#X connect 57 0 130 0;
#X connect 58 0 3 0;
#X connect 59 0 66 0;
#X connect 60 0 59 1;
#X connect 61 0 59 0;
#X connect 62 0 25 0;
#X connect 63 0 64 0;
#X connect 64 0 62 1;
#X connect 65 0 25 0;
#X connect 66 0 65 0;
#X connect 66 1 3 0;
#X connect 68 0 155 0;
#X connect 76 0 89 0;
#X connect 77 0 91 0;
#X connect 78 0 90 0;
#X connect 79 0 80 0;
#X connect 80 0 102 0;
#X connect 80 0 82 0;
#X connect 80 1 103 0;
#X connect 80 1 81 0;
#X connect 83 0 108 0;
#X connect 84 0 107 0;
#X connect 85 0 86 0;
#X connect 86 0 76 0;
#X connect 92 0 76 0;
#X connect 93 0 92 0;
#X connect 93 0 95 0;
#X connect 94 0 93 0;
#X connect 95 0 97 0;
#X connect 96 0 92 0;
#X connect 97 0 96 0;
#X connect 98 0 99 0;
#X connect 100 0 98 0;
#X connect 101 0 100 0;
#X connect 102 0 79 0;
#X connect 103 0 79 0;
#X connect 105 0 106 0;
#X connect 106 0 107 0;
#X connect 106 1 108 0;
#X connect 107 0 79 0;
#X connect 108 0 79 0;
#X connect 109 0 110 0;
#X connect 111 0 109 0;
#X connect 112 0 117 0;
#X connect 113 0 117 0;
#X connect 114 0 117 0;
#X connect 115 0 116 0;
#X connect 116 0 113 0;
#X connect 120 0 121 0;
#X connect 122 0 120 0;
#X connect 123 0 122 0;
#X connect 124 0 125 0;
#X connect 125 0 114 0;
#X connect 125 1 112 0;
#X connect 126 0 127 0;
#X connect 128 0 142 0;
#X connect 129 0 144 0;
#X connect 130 0 143 0;
#X connect 131 0 146 0;
#X connect 133 0 134 0;
#X connect 134 0 145 0;
#X connect 136 0 139 0;
#X connect 137 0 138 0;
#X connect 138 0 136 0;
#X connect 139 0 140 0;
#X connect 140 0 155 0;
#X connect 147 0 151 0;
#X connect 147 1 148 1;
#X connect 148 0 115 0;
#X connect 149 0 115 0;
#X connect 150 0 149 0;
#X connect 151 0 148 1;
#X connect 151 1 148 0;
#X connect 151 2 150 0;
#X connect 151 3 150 1;
#X connect 152 0 147 0;
#X connect 153 0 154 0;
#X connect 154 0 98 0;
#X connect 155 0 69 0;
#X connect 155 1 70 0;
#X connect 155 2 71 0;
#X connect 155 3 72 0;
#X connect 155 4 73 0;
#X connect 155 5 74 0;
#X connect 155 6 75 0;
#X connect 155 7 119 0;
#X connect 156 0 157 0;
#X connect 159 0 158 0;
#X coords 0 -1 1 1 275 100 1 698 570;
