#N canvas 425 380 608 447 10;
#X obj 20 21 inlet;
#X obj 123 348 outlet;
#X obj 20 73 route /s1 /s2 /s3 /s4, f 40;
#X obj 346 207 route /v;
#X obj 250 324 ali.gate2;
#X obj 123 320 ali.gate2;
#X obj 183 349 outlet;
#X obj 250 349 outlet;
#X obj 310 349 outlet;
#X obj 346 72 mo.an \$1;
#X obj 20 110 sel 127;
#X msg 66 259 0;
#X msg 228 258 0;
#X obj 89 111 sel 127;
#X obj 158 111 sel 127;
#X obj 227 112 sel 127;
#X msg 20 157 1;
#X msg 89 158 2;
#X msg 158 158 1;
#X msg 227 159 2;
#X text 179 240 close gate;
#X text 18 238 close gate;
#X obj 379 270 ali.scale \$1 \$2 0 127;
#X connect 0 0 2 0;
#X connect 2 0 10 0;
#X connect 2 1 13 0;
#X connect 2 2 14 0;
#X connect 2 3 15 0;
#X connect 3 0 22 0;
#X connect 4 0 7 0;
#X connect 4 1 8 0;
#X connect 5 0 1 0;
#X connect 5 1 6 0;
#X connect 9 0 3 0;
#X connect 10 0 16 0;
#X connect 10 1 11 0;
#X connect 11 0 5 0;
#X connect 12 0 4 0;
#X connect 13 0 17 0;
#X connect 13 1 11 0;
#X connect 14 0 18 0;
#X connect 14 1 12 0;
#X connect 15 0 19 0;
#X connect 15 1 12 0;
#X connect 16 0 5 0;
#X connect 17 0 5 0;
#X connect 18 0 4 0;
#X connect 19 0 4 0;
#X connect 22 0 5 1;
#X connect 22 0 4 1;
