#N canvas 190 175 363 356 10;
#X obj 127 124 vsl 15 64 0 127 0 0 empty empty empty 0 -9 0 10 -262144
-1 -1 446 1;
#X obj 237 39 loadbang;
#X obj 237 67 f \$1;
#X obj 198 270 route 0;
#X obj 198 178 ctlin;
#X obj 198 208 pack 0 0;
#X floatatom 251 159 5 0 0 0 - - -, f 5;
#X obj 237 94 - 1;
#X text 131 191 V;
#X obj 64 286 outlet;
#X msg 65 242 /v \$1;
#X msg 65 63 set \$1;
#X text 120 203 [/v];
#X obj 177 39 r reset;
#X msg 198 230 \$2 \$1;
#X obj 198 300 s \$0anA;
#X obj 65 41 r \$0anA;
#X obj 237 129 array get POTS 0 1;
#X connect 0 0 10 0;
#X connect 1 0 2 0;
#X connect 2 0 7 0;
#X connect 3 0 15 0;
#X connect 4 0 5 0;
#X connect 4 1 5 1;
#X connect 5 0 14 0;
#X connect 7 0 17 0;
#X connect 10 0 9 0;
#X connect 11 0 0 0;
#X connect 13 0 2 0;
#X connect 14 0 3 0;
#X connect 16 0 10 0;
#X connect 16 0 11 0;
#X connect 17 0 3 1;
#X connect 17 0 6 0;
#X coords 0 -1 1 1 65 130 1 100 100;
