#N canvas 401 335 890 478 10;
#X obj 116 120 vsl 15 64 0 127 0 0 empty empty empty 0 -9 0 10 -262144
-1 -1 4800 1;
#X obj 212 245 tgl 15 0 empty empty Motor2_Dir -17 23 0 10 -262144
-1 -1 0 1;
#X obj 31 26 inlet;
#X obj 157 120 vsl 15 64 0 127 0 0 empty empty empty 0 -9 0 10 -262144
-1 -1 2976 1;
#X obj 205 120 vsl 15 64 0 127 0 0 empty empty empty 0 -9 0 10 -262144
-1 -1 4600 1;
#X obj 249 120 vsl 15 64 0 127 0 0 empty empty empty 0 -9 0 10 -262144
-1 -1 4600 1;
#X obj 147 245 tgl 15 0 empty empty Motor1_Dir -17 23 0 10 -262144
-1 -1 0 1;
#X obj 631 159 noteout;
#X obj 631 124 f;
#X obj 631 98 t b f;
#X obj 441 159 noteout;
#X obj 441 124 f;
#X obj 441 98 t b f;
#X floatatom 672 120 5 0 0 0 - - -, f 5;
#X floatatom 482 120 5 0 0 0 - - -, f 5;
#X text 382 108 OUTPUTS:;
#X obj 85 366 s \$0s1;
#X obj 130 366 s \$0s2;
#X obj 185 366 s \$0m1;
#X obj 230 366 s \$0m2;
#X obj 185 396 s \$0i1;
#X obj 230 396 s \$0i2;
#X obj 482 98 array get MOTORINS 0 1;
#X obj 672 98 array get MOTORINS 0 1;
#X msg 482 48 0;
#X msg 513 47 1;
#X obj 631 68 r \$0i2;
#X obj 441 68 r \$0i1;
#X floatatom 484 230 5 0 0 0 - - -, f 5;
#X obj 441 269 ctlout;
#X obj 484 208 array get MOTORPWMS 0 1;
#X obj 441 208 r \$0m1;
#X floatatom 674 230 5 0 0 0 - - -, f 5;
#X obj 631 269 ctlout;
#X obj 674 208 array get MOTORPWMS 0 1;
#X obj 631 208 r \$0m2;
#X floatatom 484 350 5 0 0 0 - - -, f 5;
#X obj 441 389 ctlout;
#X floatatom 674 350 5 0 0 0 - - -, f 5;
#X obj 631 389 ctlout;
#X obj 441 328 r \$0s1;
#X obj 631 328 r \$0s2;
#X obj 484 328 array get SERVOS 0 1;
#X obj 674 328 array get SERVOS 0 1;
#X text 104 188 Servo1;
#X text 147 188 Servo2;
#X obj 31 48 route /s1 /s2 /m1 /m2 /i1 /i2, f 50;
#X text 107 202 [/s1];
#X text 147 202 [/s2];
#X text 194 202 [/m1];
#X text 239 202 [/m2];
#X text 140 224 Motor Direction:;
#X text 136 274 [/i1];
#X text 201 274 [/i2];
#X text 193 188 Motor1;
#X text 237 188 Motor2;
#X obj 482 23 t b;
#X obj 482 2 loadbang;
#X obj 430 2 r reset;
#X obj 420 358 change;
#X obj 620 358 change;
#X connect 0 0 16 0;
#X connect 1 0 21 0;
#X connect 2 0 46 0;
#X connect 3 0 17 0;
#X connect 4 0 18 0;
#X connect 5 0 19 0;
#X connect 6 0 20 0;
#X connect 8 0 7 0;
#X connect 9 0 8 0;
#X connect 9 1 7 1;
#X connect 11 0 10 0;
#X connect 12 0 11 0;
#X connect 12 1 10 1;
#X connect 22 0 11 1;
#X connect 22 0 14 0;
#X connect 23 0 8 1;
#X connect 23 0 13 0;
#X connect 24 0 22 0;
#X connect 24 0 30 0;
#X connect 24 0 42 0;
#X connect 25 0 23 0;
#X connect 25 0 34 0;
#X connect 25 0 43 0;
#X connect 26 0 9 0;
#X connect 27 0 12 0;
#X connect 30 0 28 0;
#X connect 30 0 29 1;
#X connect 31 0 29 0;
#X connect 34 0 32 0;
#X connect 34 0 33 1;
#X connect 35 0 33 0;
#X connect 40 0 59 0;
#X connect 41 0 60 0;
#X connect 42 0 36 0;
#X connect 42 0 37 1;
#X connect 43 0 38 0;
#X connect 43 0 39 1;
#X connect 46 0 0 0;
#X connect 46 1 3 0;
#X connect 46 2 4 0;
#X connect 46 3 5 0;
#X connect 46 4 6 0;
#X connect 46 5 1 0;
#X connect 56 0 24 0;
#X connect 56 0 25 0;
#X connect 57 0 56 0;
#X connect 58 0 56 0;
#X connect 59 0 37 0;
#X connect 60 0 39 0;
#X coords 0 -1 1 1 180 200 1 100 100;
