#N canvas 405 181 215 219 10;
#X obj 127 107 + 1;
#X obj 28 117 f 0;
#X obj 28 9 inlet;
#X obj 28 190 outlet;
#X obj 28 59 route bang reset;
#X msg 74 83 0;
#X obj 72 27 bng 15 250 50 0 empty empty empty 17 7 0 10 -262144 -1
-1;
#X msg 94 26 reset;
#X obj 148 9 inlet;
#X obj 127 131 % \$1;
#X obj 148 36 + 1;
#X connect 0 0 9 0;
#X connect 1 0 0 0;
#X connect 1 0 3 0;
#X connect 2 0 4 0;
#X connect 4 0 1 0;
#X connect 4 1 5 0;
#X connect 5 0 1 1;
#X connect 6 0 4 0;
#X connect 7 0 4 0;
#X connect 8 0 10 0;
#X connect 9 0 1 1;
#X connect 10 0 9 1;
