#N canvas 495 23 450 300 10;
#X obj 272 182 noise~;
#X obj 272 230 ali.gain;
#X obj 328 133 bng 15 250 50 0 empty empty empty 17 7 0 10 -262144
-1 -1;
#X obj 375 180 bng 15 250 50 0 empty empty empty 17 7 0 10 -262144
-1 -1;
#X msg 315 189 127;
#X msg 375 200 0;
#X obj 325 74 tgl 15 0 empty empty empty 17 7 0 10 -262144 -1 -1 0
1;
#X obj 328 153 del 10;
#X obj 328 111 metro 500;
#X obj 169 258 tgl 15 0 empty empty empty 17 7 0 10 -262144 -1 -1 0
1;
#X msg 146 216 1;
#X obj 182 215 0;
#X floatatom 82 237 5 0 0 0 - - -, f 5;
#X obj 179 184 sel 1 5;
#X obj 179 162 ali.counter 1 50;
#X msg 224 120 0;
#X obj 272 252 outlet~;
#X obj 293 29 inlet;
#X obj 376 33 inlet;
#X connect 0 0 1 0;
#X connect 1 0 16 0;
#X connect 2 0 4 0;
#X connect 2 0 7 0;
#X connect 2 0 14 0;
#X connect 3 0 5 0;
#X connect 4 0 1 1;
#X connect 5 0 1 1;
#X connect 6 0 8 0;
#X connect 7 0 3 0;
#X connect 8 0 2 0;
#X connect 10 0 9 0;
#X connect 11 0 9 0;
#X connect 13 0 10 0;
#X connect 13 1 11 0;
#X connect 14 0 12 0;
#X connect 14 0 13 0;
#X connect 15 0 14 2;
#X connect 17 0 6 0;
#X connect 18 0 8 1;
