#N canvas 2034 221 450 300 10;
#X obj 171 100 bng 15 250 50 0 empty empty empty 17 7 0 10 -262144
-1 -1;
#X obj 48 75 key;
#X floatatom 55 145 5 0 0 0 - - -, f 5;
#X obj 63 196 sel 49;
#X obj 175 191 bng 15 250 50 0 empty empty empty 17 7 0 10 -262144
-1 -1;
#X obj 248 187 bng 15 250 50 0 empty empty empty 17 7 0 10 -262144
-1 -1;
#X text 234 207 double;
#X text 148 211 single;
#X obj 175 143 mo.dclick 300;
#X connect 0 0 8 0;
#X connect 1 0 2 0;
#X connect 2 0 3 0;
#X connect 3 0 0 0;
#X connect 8 0 4 0;
#X connect 8 1 5 0;
