#N canvas 2516 176 1107 795 10;
#X obj 114 46 inlet;
#X obj 218 386 sel 1;
#X obj 226 235 timer;
#X floatatom 226 290 5 0 0 0 - - -, f 5;
#X obj 231 128 bng 15 250 50 0 empty empty empty 17 7 0 10 -262144
-1 -1;
#X obj 201 482 int;
#X msg 218 426 2;
#X msg 338 356 1;
#X floatatom 198 519 5 0 0 0 - - -, f 5;
#X obj 267 374 tgl 15 0 empty empty empty 17 7 0 10 -262144 -1 -1 0
1;
#X obj 271 423 bng 15 250 50 0 empty empty empty 17 7 0 10 -262144
-1 -1;
#X obj 314 421 spigot;
#X msg 391 357 1;
#X obj 386 388 tgl 15 0 empty empty empty 17 7 0 10 -262144 -1 -1 1
1;
#X msg 446 355 0;
#X obj 221 336 < \$1;
#X obj 211 603 sel 1 2;
#X obj 205 657 outlet;
#X obj 296 657 outlet;
#X obj 166 237 del \$1;
#X connect 0 0 4 0;
#X connect 1 0 6 0;
#X connect 1 0 10 0;
#X connect 2 0 3 0;
#X connect 3 0 15 0;
#X connect 4 0 2 1;
#X connect 4 0 2 0;
#X connect 4 0 7 0;
#X connect 4 0 19 0;
#X connect 5 0 8 0;
#X connect 6 0 5 1;
#X connect 7 0 11 0;
#X connect 8 0 16 0;
#X connect 10 0 14 0;
#X connect 11 0 5 1;
#X connect 12 0 13 0;
#X connect 13 0 11 1;
#X connect 14 0 13 0;
#X connect 15 0 1 0;
#X connect 15 0 9 0;
#X connect 16 0 17 0;
#X connect 16 1 18 0;
#X connect 19 0 5 0;
#X connect 19 0 12 0;
