#N canvas 265 152 671 588 10;
#X obj 43 28 inlet;
#X obj 15 263 ali.gate2;
#X obj 116 201 mo.dclick 300;
#X obj 116 174 sel 127;
#X obj 379 28 loadbang;
#X msg 116 223 1;
#X msg 204 226 2;
#X obj 15 296 outlet;
#X obj 75 296 outlet;
#X obj 173 320 tgl 15 0 empty empty empty 17 7 0 10 -262144 -1 -1 0
1;
#X msg 217 398 0;
#X obj 173 346 metro 400;
#X obj 217 376 del 200;
#X msg 173 397 127;
#X obj 326 525 outlet;
#X obj 173 270 sel 2, f 13;
#X msg 173 293 1;
#X msg 261 296 0;
#X obj 326 468 pack f s;
#X msg 326 490 \$2 \$1;
#X obj 402 368 snapshot~;
#X msg 399 296 1;
#X msg 487 299 0;
#X obj 399 273 sel 1, f 13;
#X obj 487 337 metro 33;
#X obj 402 409 ali.scale -1 1 0 127;
#X obj 402 336 osc~ 0.25;
#X obj 379 71 symbol \$3;
#X obj 43 126 route \$1;
#X obj 116 127 route \$2;
#X connect 0 0 28 0;
#X connect 0 0 29 0;
#X connect 1 0 7 0;
#X connect 1 1 8 0;
#X connect 2 0 5 0;
#X connect 2 1 6 0;
#X connect 3 0 2 0;
#X connect 4 0 5 0;
#X connect 4 0 27 0;
#X connect 5 0 1 0;
#X connect 5 0 15 0;
#X connect 5 0 23 0;
#X connect 6 0 1 0;
#X connect 6 0 15 0;
#X connect 6 0 23 0;
#X connect 9 0 11 0;
#X connect 10 0 18 0;
#X connect 11 0 12 0;
#X connect 11 0 13 0;
#X connect 12 0 10 0;
#X connect 13 0 18 0;
#X connect 15 0 16 0;
#X connect 15 1 17 0;
#X connect 16 0 9 0;
#X connect 17 0 9 0;
#X connect 18 0 19 0;
#X connect 19 0 14 0;
#X connect 20 0 25 0;
#X connect 21 0 24 0;
#X connect 22 0 24 0;
#X connect 23 0 21 0;
#X connect 23 1 22 0;
#X connect 24 0 20 0;
#X connect 25 0 18 0;
#X connect 26 0 20 0;
#X connect 27 0 18 1;
#X connect 28 0 1 1;
#X connect 29 0 3 0;
