#N canvas 495 23 450 300 10;
#X obj 153 202 == 1;
#X obj 153 224 tgl 15 0 empty empty empty 17 7 0 10 -262144 -1 -1 0
1;
#X obj 152 63 loadbang;
#X msg 152 125 1;
#X obj 152 149 s loopIn;
#X obj 153 179 r loopIn;
#X obj 216 100 sel 0;
#X msg 216 122 1;
#X obj 216 148 s loopIn;
#X obj 80 151 r loopIn;
#X floatatom 80 173 5 0 0 0 - - -, f 5;
#X obj 294 100 sel 0;
#X obj 294 148 s loopIn;
#X msg 294 122 2;
#X obj 294 225 tgl 15 0 empty empty empty 17 7 0 10 -262144 -1 -1 0
1;
#X obj 294 180 r loopIn;
#X obj 294 203 == 2;
#X text 21 170 LOOP OUT:;
#X obj 216 64 mo.r s1 s1;
#X obj 155 255 mo.s s1 l1 127;
#X obj 294 64 mo.r s1 s2;
#X obj 294 257 mo.s s1 l2 127;
#X obj 113 255 * 127;
#X obj 255 258 * 127;
#X text 152 35 Audio Send Toggle;
#X connect 0 0 1 0;
#X connect 1 0 19 0;
#X connect 1 0 22 0;
#X connect 2 0 3 0;
#X connect 2 0 7 0;
#X connect 3 0 4 0;
#X connect 5 0 0 0;
#X connect 6 0 7 0;
#X connect 7 0 8 0;
#X connect 9 0 10 0;
#X connect 11 0 13 0;
#X connect 13 0 12 0;
#X connect 14 0 21 0;
#X connect 14 0 23 0;
#X connect 15 0 16 0;
#X connect 16 0 14 0;
#X connect 18 0 6 0;
#X connect 20 0 11 0;
