#N canvas 504 115 928 488 10;
#X obj 139 31 vu 15 80 empty empty -1 -8 0 8 -66577 -1 1 0;
#X obj 627 193 vu 15 80 empty empty -1 -8 0 8 -66577 -1 1 0;
#X obj 61 13 adc~ 1;
#X obj 61 56 *~ 1;
#X floatatom 81 35 5 0 0 0 - - -, f 5;
#X obj 475 288 dac~;
#N canvas 0 22 1299 704 (subpatch) 0;
#X array hanning 256 float 1;
#A 0 0 0.000150591 0.000602275 0.00135478 0.00240764 0.00376022 0.00541174
0.00736117 0.00960734 0.0121489 0.0149843 0.0181119 0.0215298 0.0252359
0.0292279 0.0335035 0.0380601 0.042895 0.0480052 0.0533877 0.0590392
0.0649563 0.0711355 0.077573 0.084265 0.0912073 0.0983959 0.105826
0.113494 0.121395 0.129524 0.137876 0.146446 0.155229 0.16422 0.173413
0.182803 0.192384 0.20215 0.212095 0.222214 0.2325 0.242948 0.25355
0.264301 0.275194 0.286222 0.297379 0.308658 0.320052 0.331555 0.343159
0.354857 0.366643 0.378509 0.390449 0.402454 0.414519 0.426634 0.438794
0.450991 0.463218 0.475466 0.487729 0.5 0.512271 0.524534 0.536782
0.549009 0.561205 0.573365 0.585481 0.597545 0.609551 0.62149 0.633357
0.645143 0.656841 0.668445 0.679948 0.691342 0.702621 0.713778 0.724806
0.735699 0.74645 0.757052 0.767499 0.777786 0.787905 0.79785 0.807616
0.817197 0.826587 0.83578 0.844771 0.853554 0.862124 0.870476 0.878605
0.886506 0.894174 0.901605 0.908793 0.915736 0.922428 0.928865 0.935044
0.940961 0.946613 0.951995 0.957106 0.96194 0.966497 0.970773 0.974765
0.978471 0.981889 0.985016 0.987852 0.990393 0.992639 0.994589 0.99624
0.997593 0.998645 0.999398 0.999849 1 0.999849 0.999398 0.998645 0.997592
0.996239 0.994588 0.992638 0.990392 0.987851 0.985015 0.981887 0.978469
0.974763 0.970771 0.966495 0.961939 0.957104 0.951993 0.946611 0.940959
0.935042 0.928863 0.922425 0.915733 0.766667 0.901602 0.894171 0.886503
0.878602 0.870473 0.862121 0.853551 0.844768 0.835777 0.826584 0.817194
0.807613 0.797847 0.787901 0.777782 0.767496 0.757048 0.746446 0.735695
0.724802 0.713774 0.702617 0.691338 0.679944 0.668441 0.656837 0.645139
0.633353 0.621486 0.609547 0.597541 0.585477 0.573361 0.561201 0.549004
0.536778 0.52453 0.512266 0.499996 0.487725 0.475462 0.463213 0.450987
0.43879 0.42663 0.414515 0.40245 0.390445 0.378505 0.366639 0.354853
0.343155 0.331551 0.320048 0.308654 0.297375 0.286218 0.27519 0.264297
0.253547 0.242944 0.232497 0.222211 0.212092 0.202146 0.19238 0.182799
0.17341 0.164217 0.155226 0.146443 0.137873 0.129521 0.121392 0.113491
0.105823 0.0983929 0.0912044 0.0842621 0.0775702 0.0711328 0.0649537
0.0590367 0.0533853 0.0480029 0.0428928 0.038058 0.0335015 0.029226
0.025234 0.0215281 0.0181104 0.0149829 0.0121476 0.00960615 0.0073601
0.00541082 0.00375944 0.00240701 0.00135431 0.000601947 0.000150442
;
#X coords 0 1 256 0 40 30 1;
#X restore 386 92 graph;
#N canvas 85 226 1238 628 setup 0;
#X obj 60 41 loadbang;
#X msg 35 175 \; pd dsp 1;
#X obj 63 96 del 2000;
#X msg 169 101 \; record resize 882000;
#X msg 152 146 \; pd midi-dialog 1 0 0 0 0 0 0 0 0 1 0 0 0 0 0 0 0
0 0 0;
#X msg 103 233 \; pd midi-properties;
#X msg 230 232 \; pd audio-properties;
#X obj 663 260 noteout;
#X obj 885 78 r pd-dsp-stopped;
#X obj 872 136 bng 15 250 50 0 empty empty empty 17 7 0 10 -262144
-1 -1;
#X obj 777 126 bng 15 250 50 0 empty empty empty 17 7 0 10 -262144
-1 -1;
#X obj 773 80 r pd-dsp-started;
#X msg 785 160 63 120;
#X msg 869 161 63 0;
#X obj 583 109 snapshot~;
#X obj 591 149 expr ($f1 * 0.5 + 0.5) * 127;
#X msg 588 190 63 \$1;
#X obj 614 68 osc~ 0.3;
#X obj 91 348 samplerate~;
#X obj 91 321 r pd-dsp-started;
#X obj 92 383 s samp-rate;
#X obj 63 324 bng 15 250 50 0 empty empty empty 17 7 0 10 -262144 -1
-1;
#X obj 545 70 metro 33;
#X obj 529 0 loadbang;
#X msg 535 31 1;
#X obj 218 325 loadbang;
#X obj 211 351 del 2500;
#X msg 127 181 \; pd audio-dialog 5 0 0 0 1 0 0 0 5 0 0 0 2 0 0 0 44100
25 0 64;
#X connect 0 0 3 0;
#X connect 0 0 2 0;
#X connect 2 0 1 0;
#X connect 2 0 4 0;
#X connect 2 0 27 0;
#X connect 8 0 9 0;
#X connect 9 0 13 0;
#X connect 10 0 12 0;
#X connect 11 0 10 0;
#X connect 12 0 7 0;
#X connect 13 0 7 0;
#X connect 14 0 15 0;
#X connect 15 0 16 0;
#X connect 16 0 7 0;
#X connect 17 0 14 0;
#X connect 18 0 20 0;
#X connect 19 0 18 0;
#X connect 21 0 18 0;
#X connect 22 0 14 0;
#X connect 23 0 24 0;
#X connect 24 0 22 0;
#X connect 25 0 26 0;
#X connect 26 0 18 0;
#X restore 235 19 pd setup;
#N canvas 0 22 1440 777 controls 0;
#X obj 156 711 s pitch;
#X obj 107 217 vsl 15 128 0 127 0 0 empty empty empty 0 -9 0 10 -262144
-1 -1 0 1;
#X obj 273 454 s grain-size;
#X obj 274 229 vsl 15 128 0 127 0 0 empty empty empty 0 -9 0 10 -262144
-1 -1 12700 1;
#X obj 434 236 vsl 15 128 0 127 0 0 empty empty empty 0 -9 0 10 -262144
-1 -1 7900 1;
#X obj 436 476 s speed;
#X obj 683 624 tgl 15 0 empty empty empty 17 7 0 10 -262144 -1 -1 0
1;
#N canvas 239 52 1029 719 record-controls 0;
#X obj 332 497 outlet;
#X obj 150 116 key;
#X obj 149 220 t 1;
#X obj 195 220 t 0;
#X obj 151 150 change;
#X text 96 69 type "1" to start;
#X text 104 85 type "2" to stop;
#X obj 318 123 ctlin;
#X obj 318 188 spigot, f 11;
#X obj 130 311 spigot;
#X obj 196 282 tgl 15 0 empty empty empty 17 7 0 10 -262144 -1 -1 0
1;
#X obj 316 152 swap;
#X text 395 188 only non-zero ctl data;
#X obj 148 187 sel 49 50;
#X floatatom 355 227 5 0 0 0 - - -, f 5;
#X obj 284 226 sel 45 41;
#X obj 282 371 spigot;
#X obj 644 465 tgl 15 0 empty empty empty 17 7 0 10 -262144 -1 -1 1
1;
#X obj 643 412 loadbang;
#X msg 648 439 1;
#X text 333 96 nanokontrol 2 record/play;
#X obj 270 270 bng 15 250 50 0 empty empty empty 17 7 0 10 -262144
-1 -1;
#X msg 293 274 1;
#X msg 332 275 0;
#X obj 539 132 notein;
#X obj 545 196 swap;
#X obj 571 230 == 61;
#X obj 543 260 spigot;
#X obj 546 298 > 0;
#X obj 550 338 tgl 15 0 empty empty empty 17 7 0 10 -262144 -1 -1 0
1;
#X obj 573 415 spigot;
#X obj 715 66 notein;
#X obj 721 130 swap;
#X obj 719 194 spigot;
#X obj 722 232 > 0;
#X text 534 91 momentary record button;
#X obj 747 164 == 62;
#X obj 723 261 sel 1;
#X obj 727 316 del 1000;
#X obj 724 290 t b b;
#X msg 724 344 1;
#X obj 784 346 0;
#X obj 789 319 del 20000;
#X obj 785 235 bng 15 250 50 0 empty empty empty 17 7 0 10 -262144
-1 -1;
#X text 770 77 wait 1 second then record 19 seconds;
#X obj 432 265 ctlin 61;
#X obj 431 345 change;
#X obj 830 215 > 0;
#X obj 831 242 change;
#X obj 829 271 sel 0 1;
#X obj 832 166 ctlin 62;
#X obj 430 314 == 0;
#X connect 1 0 4 0;
#X connect 2 0 9 0;
#X connect 3 0 9 0;
#X connect 4 0 13 0;
#X connect 7 0 11 0;
#X connect 7 1 11 1;
#X connect 8 0 14 0;
#X connect 8 0 15 0;
#X connect 9 0 0 0;
#X connect 10 0 9 1;
#X connect 11 0 8 0;
#X connect 11 1 8 1;
#X connect 13 0 2 0;
#X connect 13 1 3 0;
#X connect 15 0 21 0;
#X connect 15 0 22 0;
#X connect 15 1 23 0;
#X connect 16 0 0 0;
#X connect 17 0 30 1;
#X connect 18 0 19 0;
#X connect 19 0 17 0;
#X connect 22 0 16 0;
#X connect 23 0 16 0;
#X connect 24 0 25 0;
#X connect 24 1 25 1;
#X connect 25 0 27 0;
#X connect 25 1 26 0;
#X connect 26 0 27 1;
#X connect 27 0 28 0;
#X connect 28 0 29 0;
#X connect 29 0 30 0;
#X connect 30 0 0 0;
#X connect 31 0 32 0;
#X connect 31 1 32 1;
#X connect 32 0 33 0;
#X connect 32 1 36 0;
#X connect 33 0 34 0;
#X connect 34 0 37 0;
#X connect 36 0 33 1;
#X connect 37 0 39 0;
#X connect 38 0 40 0;
#X connect 39 0 38 0;
#X connect 39 1 42 0;
#X connect 40 0 30 0;
#X connect 41 0 30 0;
#X connect 42 0 41 0;
#X connect 43 0 39 0;
#X connect 45 0 51 0;
#X connect 46 0 30 0;
#X connect 47 0 48 0;
#X connect 48 0 49 0;
#X connect 49 0 43 0;
#X connect 50 0 47 0;
#X connect 51 0 46 0;
#X restore 682 587 pd record-controls;
#X obj 201 568 loadbang;
#X msg 200 627 100;
#X floatatom 434 450 5 0 0 0 - - -, f 5;
#N canvas 0 23 587 310 out 0;
#X obj 112 112 sel 0 1;
#X obj 93 190 s stoprec;
#X obj 173 189 s startrec;
#X msg 264 187 \; record const 0;
#X obj 191 150 t b b;
#X obj 222 20 inlet;
#X obj 375 178 noteout;
#X obj 375 111 t b f;
#X obj 424 109 * 127;
#X obj 381 154 pack 60 0;
#X obj 208 116 s record-start-stop;
#X connect 0 0 1 0;
#X connect 0 1 4 0;
#X connect 4 0 2 0;
#X connect 4 1 3 0;
#X connect 5 0 0 0;
#X connect 5 0 7 0;
#X connect 5 0 10 0;
#X connect 7 0 9 0;
#X connect 7 1 8 0;
#X connect 8 0 9 1;
#X connect 9 0 6 0;
#X restore 683 658 pd out;
#X obj 607 240 vsl 15 128 0 127 0 0 empty empty empty 0 -9 0 10 -262144
-1 -1 0 1;
#X floatatom 607 449 5 0 0 0 - - -, f 5;
#X obj 606 395 expr $f1/127 * 1000;
#X obj 609 475 s ran-pos;
#X obj 764 238 vsl 15 128 0 127 0 0 empty empty empty 0 -9 0 10 -262144
-1 -1 0 1;
#X floatatom 764 452 5 0 0 0 - - -, f 5;
#X obj 766 478 s ran-size;
#X obj 938 237 vsl 15 128 0 127 0 0 empty empty empty 0 -9 0 10 -262144
-1 -1 0 1;
#X floatatom 938 451 5 0 0 0 - - -, f 5;
#X obj 200 592 del 2000;
#X obj 69 150 ctlin 20;
#X obj 52 522 expr $f1 / 2.2;
#X obj 186 146 ctlin 17;
#X obj 396 153 ctlin 16;
#X obj 560 159 ctlin 15;
#X obj 135 605 tgl 15 0 empty empty empty 17 7 0 10 -262144 -1 -1 0
1;
#N canvas 585 57 660 537 scale 0;
#X obj 96 19 inlet;
#X obj 107 407 outlet;
#X floatatom 105 123 5 0 0 0 - - -, f 5;
#X obj 219 106 loadbang;
#X obj 203 133 del 2000;
#X obj 105 81 expr pow(($f1) \, 2)/16129;
#X msg 203 168 1;
#X obj 285 138 r rec-dur;
#X obj 287 171 t b f;
#X msg 352 202 100;
#X obj 360 116 loadbang;
#X obj 110 255 expr $f1 * ($f2 * 0.9 - 50) + 50;
#X connect 0 0 5 0;
#X connect 2 0 11 0;
#X connect 3 0 4 0;
#X connect 4 0 6 0;
#X connect 5 0 2 0;
#X connect 6 0 2 0;
#X connect 7 0 8 0;
#X connect 8 0 11 0;
#X connect 8 1 11 1;
#X connect 9 0 11 1;
#X connect 10 0 9 0;
#X connect 11 0 1 0;
#X restore 275 388 pd scale;
#X floatatom 274 418 12 0 0 0 - - -, f 12;
#X obj 433 396 expr $f1/127 * 2 - 1;
#X obj 741 166 ctlin 14;
#X obj 940 477 s vol;
#X obj 900 154 ctlin 19;
#X obj 763 398 expr $f1/127 * 50;
#N canvas 0 22 1003 600 change-audio-settings 0;
#X obj 239 48 ctlin 19;
#X obj 290 117 == 0;
#X obj 253 224 spigot;
#X obj 151 46 notein;
#X obj 157 110 swap;
#X obj 155 174 spigot;
#X obj 252 257 > 0;
#X obj 252 295 sel 1;
#X obj 318 295 bng 15 250 50 0 empty empty empty 17 7 0 10 -262144
-1 -1;
#X obj 309 342 i;
#X obj 363 344 + 1;
#X obj 389 317 >= 8;
#X obj 392 356 sel 1;
#X msg 390 383 0;
#X msg 393 446 \; pd audio-dialog \$1 0 0 0 1 0 0 0 \$1 0 0 0 2 0 0
0 44100 25 0 64;
#X floatatom 327 95 5 0 0 0 - - -, f 5;
#X msg 147 491 \; pd dsp 1;
#X obj 157 443 del 30;
#X obj 226 439 makenote 100 50;
#X obj 221 381 t b b f;
#X msg 234 416 60;
#X obj 234 500 noteout;
#X obj 183 144 == 65;
#X connect 0 0 1 0;
#X connect 0 0 15 0;
#X connect 1 0 2 1;
#X connect 2 0 6 0;
#X connect 3 0 4 0;
#X connect 3 1 4 1;
#X connect 4 0 5 0;
#X connect 4 1 22 0;
#X connect 5 0 2 0;
#X connect 6 0 7 0;
#X connect 7 0 9 0;
#X connect 8 0 9 0;
#X connect 9 0 10 0;
#X connect 9 0 11 0;
#X connect 9 0 19 0;
#X connect 10 0 9 1;
#X connect 11 0 12 0;
#X connect 12 0 13 0;
#X connect 13 0 9 1;
#X connect 17 0 16 0;
#X connect 18 0 21 0;
#X connect 18 1 21 1;
#X connect 19 0 17 0;
#X connect 19 1 20 0;
#X connect 19 2 14 0;
#X connect 20 0 18 0;
#X connect 22 0 5 1;
#X restore 864 585 pd change-audio-settings;
#X obj 25 442 mtof;
#X floatatom 24 477 5 0 0 0 - - -, f 5;
#N canvas 772 309 735 428 read-sounds 0;
#X obj 278 84 notein;
#X obj 284 148 swap;
#X obj 282 212 spigot;
#X obj 285 250 > 0;
#X obj 285 276 sel 1;
#X obj 402 221 bng 15 250 50 0 empty empty empty 17 7 0 10 -262144
-1 -1;
#X obj 404 246 s read-sounds;
#X obj 310 182 == 66;
#X obj 385 97 ctlin 23;
#X obj 395 148 < 2;
#X obj 397 180 sel 1;
#X connect 0 0 1 0;
#X connect 0 1 1 1;
#X connect 1 0 2 0;
#X connect 1 1 7 0;
#X connect 2 0 3 0;
#X connect 3 0 4 0;
#X connect 5 0 6 0;
#X connect 7 0 2 1;
#X connect 8 0 9 0;
#X connect 9 0 10 0;
#X connect 10 0 5 0;
#X restore 856 633 pd read-sounds;
#X obj 510 597 ctlin 21;
#X obj 508 622 < 2;
#X obj 512 650 sel 1;
#X msg 500 711 \; record const 0;
#X text 477 574 erase the buffer;
#X obj 937 397 expr $f1/127 * 4;
#X floatatom 159 677 5 0 0 0 - - -, f 5;
#X obj 252 135 chipd-loadmess 127;
#X obj 1142 245 vsl 15 128 0 127 0 0 empty empty empty 0 -9 0 10 -262144
-1 -1 0 1;
#X floatatom 1142 459 5 0 0 0 - - -, f 5;
#X obj 1144 485 s dry-wet;
#X obj 1141 405 expr $f1/127;
#X obj 1104 162 ctlin 18;
#X obj 88 634 spigot;
#X obj 1325 252 vsl 15 128 0 127 0 0 empty empty empty 0 -9 0 10 -262144
-1 -1 9600 1;
#X obj 1287 169 ctlin 22;
#N canvas 0 22 496 621 audio-test 0;
#X obj 146 189 ctlin 23;
#X obj 119 338 change;
#X obj 61 433 s test-start-stop;
#X obj 182 497 noteout;
#X obj 182 430 t b f;
#X obj 231 428 * 127;
#X obj 188 473 pack 60 0;
#X obj 96 294 spigot;
#X obj 82 52 notein;
#X obj 88 116 swap;
#X obj 86 180 spigot;
#X obj 89 218 > 0;
#X obj 154 364 t f b;
#X msg 283 417 \; record const 0;
#X obj 114 150 == 65;
#X obj 143 242 expr if($f1 > 125 \, 1 \, 0);
#X connect 0 0 15 0;
#X connect 1 0 12 0;
#X connect 4 0 6 0;
#X connect 4 1 5 0;
#X connect 5 0 6 1;
#X connect 6 0 3 0;
#X connect 7 0 1 0;
#X connect 8 0 9 0;
#X connect 8 1 9 1;
#X connect 9 0 10 0;
#X connect 9 1 14 0;
#X connect 10 0 11 0;
#X connect 11 0 7 1;
#X connect 12 0 2 0;
#X connect 12 0 4 0;
#X connect 12 1 13 0;
#X connect 14 0 10 1;
#X connect 15 0 7 0;
#X restore 1063 592 pd audio-test;
#X obj 1431 708 s lp;
#X obj 1322 441 expr ($f1 / 127) * 87 + 40;
#X floatatom 1321 479 5 0 0 0 - - -, f 5;
#X obj 1471 544 loadbang;
#X obj 1470 568 del 2000;
#X obj 1405 581 tgl 15 0 empty empty empty 17 7 0 10 -262144 -1 -1
0 1;
#X floatatom 1429 653 5 0 0 0 - - -, f 5;
#X obj 1358 610 spigot;
#X msg 1470 603 127;
#N canvas 293 139 775 884 gating 0;
#X obj 152 504 outlet;
#X obj 279 509 outlet;
#X obj 168 36 notein;
#X obj 174 100 swap;
#X obj 172 164 spigot;
#X obj 175 202 > 0;
#X obj 175 228 sel 1;
#X obj 200 134 == 66;
#X obj 177 267 bng 15 250 50 0 empty empty empty 17 7 0 10 -262144
-1 -1;
#X obj 156 342 tgl 15 0 empty empty empty 17 7 0 10 -262144 -1 -1 0
1;
#X obj 304 339 chipd-double-click;
#X obj 290 377 t b b;
#X msg 317 413 0;
#X obj 301 215 r read-sounds;
#X connect 2 0 3 0;
#X connect 2 1 3 1;
#X connect 3 0 4 0;
#X connect 3 1 7 0;
#X connect 4 0 5 0;
#X connect 5 0 6 0;
#X connect 6 0 8 0;
#X connect 7 0 4 1;
#X connect 8 0 9 0;
#X connect 8 0 10 0;
#X connect 9 0 0 0;
#X connect 10 0 11 0;
#X connect 11 0 1 0;
#X connect 11 1 12 0;
#X connect 12 0 9 0;
#X connect 13 0 11 0;
#X restore 1407 527 pd gating;
#N canvas 293 139 775 884 gating 0;
#X obj 152 504 outlet;
#X obj 279 509 outlet;
#X obj 168 36 notein;
#X obj 174 100 swap;
#X obj 172 164 spigot;
#X obj 175 202 > 0;
#X obj 175 228 sel 1;
#X obj 177 267 bng 15 250 50 0 empty empty empty 17 7 0 10 -262144
-1 -1;
#X obj 156 342 tgl 15 0 empty empty empty 17 7 0 10 -262144 -1 -1 0
1;
#X obj 304 339 chipd-double-click;
#X obj 290 377 t b b;
#X msg 317 413 0;
#X obj 200 134 == 65;
#X obj 301 215 r read-sounds;
#X connect 2 0 3 0;
#X connect 2 1 3 1;
#X connect 3 0 4 0;
#X connect 3 1 12 0;
#X connect 4 0 5 0;
#X connect 5 0 6 0;
#X connect 6 0 7 0;
#X connect 7 0 8 0;
#X connect 7 0 9 0;
#X connect 8 0 0 0;
#X connect 9 0 10 0;
#X connect 10 0 1 0;
#X connect 10 1 11 0;
#X connect 11 0 8 0;
#X connect 12 0 4 1;
#X connect 13 0 10 0;
#X restore 122 558 pd gating;
#X obj 981 162 chipd-loadmess 31;
#X obj 441 192 chipd-loadmess 79;
#X obj 1170 169 chipd-loadmess 0;
#X obj 1353 175 chipd-loadmess 96;
#X obj 251 105 r read-sounds;
#X obj 458 123 r read-sounds;
#X msg 458 149 127;
#X obj 631 142 r read-sounds;
#X msg 631 168 0;
#X floatatom 19 581 5 0 0 0 - - -, f 5;
#X floatatom 25 412 5 0 0 0 - - -, f 5;
#X obj 28 379 expr ($f1/128) * 60 + 27;
#X connect 1 0 78 0;
#X connect 3 0 28 0;
#X connect 4 0 30 0;
#X connect 6 0 11 0;
#X connect 7 0 6 0;
#X connect 8 0 21 0;
#X connect 9 0 45 0;
#X connect 10 0 5 0;
#X connect 12 0 14 0;
#X connect 13 0 15 0;
#X connect 14 0 13 0;
#X connect 16 0 34 0;
#X connect 17 0 18 0;
#X connect 19 0 44 0;
#X connect 20 0 32 0;
#X connect 21 0 9 0;
#X connect 22 0 1 0;
#X connect 23 0 52 0;
#X connect 23 0 76 0;
#X connect 24 0 3 0;
#X connect 25 0 4 0;
#X connect 26 0 12 0;
#X connect 27 0 52 1;
#X connect 28 0 29 0;
#X connect 29 0 2 0;
#X connect 30 0 10 0;
#X connect 31 0 16 0;
#X connect 33 0 19 0;
#X connect 34 0 17 0;
#X connect 36 0 37 0;
#X connect 37 0 23 0;
#X connect 39 0 40 0;
#X connect 40 0 41 0;
#X connect 41 0 42 0;
#X connect 44 0 20 0;
#X connect 45 0 0 0;
#X connect 46 0 3 0;
#X connect 47 0 50 0;
#X connect 48 0 49 0;
#X connect 50 0 48 0;
#X connect 51 0 47 0;
#X connect 52 0 45 0;
#X connect 53 0 57 0;
#X connect 54 0 53 0;
#X connect 57 0 58 0;
#X connect 58 0 63 0;
#X connect 59 0 60 0;
#X connect 60 0 64 0;
#X connect 61 0 63 1;
#X connect 62 0 56 0;
#X connect 63 0 62 0;
#X connect 64 0 62 0;
#X connect 65 0 61 0;
#X connect 65 1 64 0;
#X connect 66 0 27 0;
#X connect 66 1 9 0;
#X connect 68 0 4 0;
#X connect 69 0 47 0;
#X connect 70 0 53 0;
#X connect 71 0 46 0;
#X connect 72 0 73 0;
#X connect 74 0 75 0;
#X connect 75 0 12 0;
#X connect 77 0 36 0;
#X connect 78 0 77 0;
#X restore 302 18 pd controls;
#X obj 477 222 *~ 1;
#X floatatom 563 194 5 0 0 0 - - -, f 5;
#N canvas 526 23 1069 719 master-phasor 0;
#X floatatom 62 591 5 0 0 0 - - -, f 5;
#X obj 57 619 / 100;
#X obj 139 473 expr 1000/$f1;
#X obj 134 426 r grain-size;
#X obj 163 558 samphold~;
#X obj 165 692 *~ 1;
#X obj 380 385 phasor~ 6;
#X msg 512 212 0;
#X text 593 155 temporarily set the phasor frequency to 1 so the phasor
doesn't get stuck at zero \, thereby never triggering the samphold
;
#X obj 52 543 r pitch;
#X msg 472 359 0;
#X obj 545 291 r pd-dsp-started;
#X obj 418 285 r reset-phase;
#X obj 158 754 delwrite~ \$0-rate 1;
#X obj 324 96 delread~ \$0-rate;
#X obj 428 547 s~ grain-phase;
#X obj 201 346 s~ grain-phase-freq;
#X obj 342 262 +~ 1;
#X obj 512 173 r rec-dur;
#X connect 0 0 1 0;
#X connect 1 0 5 1;
#X connect 2 0 4 0;
#X connect 3 0 2 0;
#X connect 4 0 5 0;
#X connect 5 0 13 0;
#X connect 6 0 4 1;
#X connect 6 0 15 0;
#X connect 7 0 17 1;
#X connect 9 0 0 0;
#X connect 10 0 6 1;
#X connect 11 0 10 0;
#X connect 12 0 10 0;
#X connect 14 0 17 0;
#X connect 17 0 6 0;
#X connect 17 0 16 0;
#X connect 18 0 7 0;
#X restore 234 46 pd master-phasor;
#X obj 567 170 r vol;
#X obj 544 222 *~ 1;
#X obj 19 228 grain-phasor 0;
#X obj 126 229 grain-phasor 1;
#X obj 230 230 grain-phasor 2;
#X obj 334 230 grain-phasor 3;
#X obj 21 253 grain-phasor 4;
#X obj 127 253 grain-phasor 5;
#X obj 230 253 grain-phasor 6;
#X obj 333 253 grain-phasor 7;
#N canvas 0 22 786 377 grain-management 0;
#X obj 252 206 s rec-dur;
#X obj 351 157 phasor~ 0.5;
#X obj 298 24 r rec-dur;
#X floatatom 293 98 5 0 0 0 - - -, f 5;
#X obj 360 126 * 1;
#X obj 389 99 t b f;
#X obj 433 65 r speed;
#X obj 125 203 s reset-phase;
#X obj 166 164 t b f;
#X obj 500 72 r reset-phase;
#X msg 496 104 0;
#X obj 164 102 realtime;
#X obj 117 55 r startrec;
#X obj 193 54 r stoprec;
#X floatatom 164 130 5 0 0 0 - - -, f 5;
#X obj 294 67 expr 1000 / $f1;
#X obj 378 246 s~ grain-offset;
#X obj 435 168 r rec-dur;
#X obj 383 206 *~ 1000;
#X connect 1 0 18 0;
#X connect 2 0 15 0;
#X connect 3 0 4 0;
#X connect 4 0 1 0;
#X connect 5 0 4 0;
#X connect 5 1 4 1;
#X connect 6 0 5 0;
#X connect 8 0 7 0;
#X connect 8 1 0 0;
#X connect 9 0 10 0;
#X connect 10 0 1 1;
#X connect 11 0 14 0;
#X connect 12 0 11 0;
#X connect 13 0 11 1;
#X connect 14 0 8 0;
#X connect 15 0 3 0;
#X connect 17 0 18 1;
#X connect 18 0 16 0;
#X restore 342 46 pd grain-management;
#N canvas 438 43 843 616 load-samples 0;
#X obj 227 312 soundfiler;
#X obj 240 233 openpanel;
#X obj 237 163 bng 15 250 50 0 empty empty empty 17 7 0 10 -262144
-1 -1;
#X msg 231 275 read \$1 record;
#X obj 332 311 r samp-rate;
#X obj 237 347 expr $f1 / $f2 * 1000;
#X obj 236 410 s rec-dur;
#X msg 326 230 \; record const 0;
#X obj 245 196 t b b;
#X obj 232 119 inlet;
#X msg 80 490 read room.wav record;
#X msg 89 523 read kalimba.aif record;
#X obj 491 99 bng 15 250 50 0 empty empty empty 17 7 0 10 -262144 -1
-1;
#X obj 482 146 i;
#X obj 536 148 + 1;
#X obj 565 160 sel 1;
#X floatatom 477 181 5 0 0 0 - - -, f 5;
#X msg 563 187 1;
#X obj 616 159 loadbang;
#X msg 464 486 read \$1 record;
#X obj 491 37 r read-sounds;
#X obj 468 245 % 10;
#X obj 517 245 / 10;
#X obj 562 121 >= 13;
#X obj 518 279 i;
#X msg 524 371 set \$1;
#X floatatom 482 374 5 0 0 0 - - -, f 5;
#X obj 475 214 t f f;
#X obj 471 419 makefilename;
#X obj 513 335 makefilename snd00%d%%d.wav;
#X obj 655 196 loadbang;
#X obj 651 260 random 10;
#X text 711 193 load a random sample on startup;
#X obj 654 225 del 5000;
#X connect 0 0 5 0;
#X connect 1 0 3 0;
#X connect 2 0 8 0;
#X connect 3 0 0 0;
#X connect 4 0 5 1;
#X connect 5 0 6 0;
#X connect 8 0 1 0;
#X connect 8 1 7 0;
#X connect 9 0 2 0;
#X connect 10 0 0 0;
#X connect 11 0 0 0;
#X connect 12 0 13 0;
#X connect 13 0 14 0;
#X connect 13 0 16 0;
#X connect 13 0 23 0;
#X connect 14 0 13 1;
#X connect 15 0 17 0;
#X connect 16 0 27 0;
#X connect 17 0 13 1;
#X connect 18 0 17 0;
#X connect 19 0 0 0;
#X connect 20 0 12 0;
#X connect 21 0 26 0;
#X connect 22 0 24 0;
#X connect 23 0 15 0;
#X connect 24 0 29 0;
#X connect 25 0 28 0;
#X connect 26 0 28 0;
#X connect 27 0 21 0;
#X connect 27 1 22 0;
#X connect 28 0 19 0;
#X connect 29 0 25 0;
#X connect 30 0 33 0;
#X connect 31 0 16 0;
#X connect 33 0 31 0;
#X restore 232 113 pd load-samples;
#N canvas 0 22 450 300 tables 0;
#X obj 79 25 inlet~;
#X obj 124 135 tabwrite~ record;
#X msg 199 60 bang;
#X msg 241 88 stop;
#X obj 246 136 table record;
#X obj 199 32 r startrec;
#X obj 239 60 r stoprec;
#X connect 0 0 1 0;
#X connect 2 0 1 0;
#X connect 3 0 1 0;
#X connect 5 0 2 0;
#X connect 6 0 3 0;
#X restore 61 88 pd tables;
#N canvas 121 35 306 303 meterin 0;
#X obj 107 98 inlet~;
#X floatatom 104 175 5 0 0 0 - - -, f 5;
#X obj 104 129 env~;
#X obj 104 152 - 101;
#X obj 18 194 noteout;
#X obj 24 170 pack 62 0;
#X obj 24 137 t b f;
#X obj 27 68 dbtorms;
#X obj 25 104 * 500;
#X obj 102 202 outlet;
#X connect 0 0 2 0;
#X connect 1 0 9 0;
#X connect 2 0 3 0;
#X connect 2 0 7 0;
#X connect 3 0 1 0;
#X connect 5 0 4 0;
#X connect 6 0 5 0;
#X connect 6 1 5 1;
#X connect 7 0 8 0;
#X connect 8 0 6 0;
#X restore 139 8 pd meterin;
#N canvas 0 22 781 667 meterout 0;
#X floatatom 217 251 5 0 0 0 - - -, f 5;
#X obj 217 205 env~;
#X obj 217 228 - 101;
#X obj 124 360 noteout;
#X obj 130 303 t b f;
#X obj 133 234 dbtorms;
#X obj 131 270 * 500;
#X obj 130 336 pack 61 0;
#X obj 208 176 *~ 0.5;
#X obj 218 137 inlet~;
#X obj 237 296 outlet;
#X connect 0 0 10 0;
#X connect 1 0 2 0;
#X connect 1 0 5 0;
#X connect 2 0 0 0;
#X connect 4 0 7 0;
#X connect 4 1 7 1;
#X connect 5 0 6 0;
#X connect 6 0 4 0;
#X connect 7 0 3 0;
#X connect 8 0 1 0;
#X connect 9 0 8 0;
#X restore 550 254 pd meterout;
#X msg 234 85 load a sample;
#N canvas 499 58 1059 719 mixer 0;
#X obj 76 554 outlet~;
#X obj 185 557 outlet~;
#X obj 75 480 *~;
#N canvas 0 22 381 280 mute 0;
#X obj 65 67 r startrec;
#X obj 63 122 line~;
#X obj 157 57 r rec-dur;
#X msg 61 92 0 10;
#X msg 160 99 1 1000;
#X obj 65 151 outlet~;
#X connect 0 0 3 0;
#X connect 1 0 5 0;
#X connect 2 0 4 0;
#X connect 3 0 1 0;
#X connect 4 0 1 0;
#X restore 235 492 pd mute;
#X obj 183 485 *~;
#X obj 68 113 catch~ grains-l;
#X obj 181 109 catch~ grains-r;
#X obj 270 366 rev3~ 100 95 3000 0;
#X obj 74 287 *~;
#X obj 182 292 *~;
#X obj 387 290 r dry-wet;
#X obj 274 280 *~;
#X obj 316 283 *~;
#X obj 292 228 expr 1 - $f1;
#X obj 261 315 *~ 2;
#X obj 302 315 *~ 2;
#X floatatom 344 93 5 0 0 0 - - -, f 5;
#X obj 333 123 mtof;
#X obj 327 40 r lp;
#X obj 81 178 lop~;
#X obj 201 177 lop~;
#X connect 2 0 0 0;
#X connect 3 0 2 1;
#X connect 3 0 4 1;
#X connect 4 0 1 0;
#X connect 5 0 19 0;
#X connect 6 0 20 0;
#X connect 7 0 2 0;
#X connect 7 1 4 0;
#X connect 8 0 2 0;
#X connect 9 0 4 0;
#X connect 10 0 13 0;
#X connect 10 0 12 1;
#X connect 10 0 11 1;
#X connect 11 0 14 0;
#X connect 12 0 15 0;
#X connect 13 0 8 1;
#X connect 13 0 9 1;
#X connect 14 0 7 0;
#X connect 15 0 7 1;
#X connect 16 0 17 0;
#X connect 17 0 19 1;
#X connect 17 0 20 1;
#X connect 18 0 16 0;
#X connect 19 0 8 0;
#X connect 19 0 11 0;
#X connect 20 0 9 0;
#X connect 20 0 12 0;
#X restore 478 166 pd mixer;
#N canvas 385 250 959 577 test-in-out 0;
#X obj 77 135 adc~ 1;
#X obj 320 356 delwrite~ testadc 8000;
#X obj 494 217 delread~ testadc;
#X obj 571 288 *~ 0;
#X obj 277 20 tgl 15 0 empty empty empty 17 7 0 10 -262144 -1 -1 0
1;
#X obj 469 63 sel 0 1;
#X obj 496 117 realtime;
#X floatatom 494 152 5 0 0 0 - - -, f 5;
#X obj 565 343 dac~;
#X obj 466 26 r test-start-stop;
#X obj 270 78 s test-start-stop;
#X obj 131 184 r test-start-stop;
#X obj 621 171 r test-start-stop;
#X obj 620 217 expr 1 - $f1;
#X obj 321 293 *~;
#X obj 113 225 *~, f 1;
#X obj 249 115 r test-start-stop;
#X obj 249 154 expr if($f1 == 0 \, 1 \, 0);
#X obj 351 217 del 1000;
#X msg 353 242 0;
#X obj 420 176 * 3;
#X connect 0 0 15 0;
#X connect 2 0 3 0;
#X connect 2 0 14 0;
#X connect 3 0 8 0;
#X connect 3 0 8 1;
#X connect 4 0 10 0;
#X connect 5 0 6 1;
#X connect 5 1 6 0;
#X connect 6 0 7 0;
#X connect 7 0 2 0;
#X connect 7 0 20 0;
#X connect 9 0 5 0;
#X connect 11 0 15 1;
#X connect 12 0 13 0;
#X connect 13 0 3 1;
#X connect 14 0 1 0;
#X connect 15 0 1 0;
#X connect 16 0 17 0;
#X connect 17 0 14 1;
#X connect 18 0 19 0;
#X connect 19 0 14 1;
#X connect 20 0 18 0;
#X restore 387 15 pd test-in-out;
#N canvas 0 22 450 300 limiter 0;
#X obj 76 312 *~;
#X obj 111 70 env~;
#X obj 111 92 dbtorms;
#X obj 76 47 inlet~;
#X obj 73 338 outlet~;
#X obj 220 310 *~;
#X obj 220 45 inlet~;
#X obj 217 336 outlet~;
#X msg 120 168 1 \$1;
#X obj 122 195 /;
#X obj 111 228 min 1;
#X obj 114 131 + 0.5;
#X obj 107 262 lop~ 5;
#X connect 0 0 4 0;
#X connect 1 0 2 0;
#X connect 2 0 11 0;
#X connect 3 0 1 0;
#X connect 3 0 0 0;
#X connect 5 0 7 0;
#X connect 6 0 5 0;
#X connect 6 0 1 0;
#X connect 8 0 9 0;
#X connect 9 0 10 0;
#X connect 10 0 12 0;
#X connect 11 0 8 0;
#X connect 12 0 0 1;
#X connect 12 0 5 1;
#X restore 476 255 pd limiter;
#X connect 2 0 3 0;
#X connect 3 0 25 0;
#X connect 3 0 24 0;
#X connect 4 0 3 1;
#X connect 9 0 26 0;
#X connect 9 0 30 0;
#X connect 10 0 9 1;
#X connect 10 0 13 1;
#X connect 12 0 10 0;
#X connect 13 0 26 0;
#X connect 13 0 30 1;
#X connect 25 0 0 0;
#X connect 26 0 1 0;
#X connect 27 0 23 0;
#X connect 28 0 9 0;
#X connect 28 1 13 0;
#X connect 30 0 5 0;
#X connect 30 1 5 1;
