#N canvas 79 106 1145 581 10;
#X obj 164 76 ctlin 0;
#X obj 163 121 vsl 15 128 0 127 0 0 empty empty empty 0 -9 0 10 -262144
-1 -1 1600 1;
#X obj 215 121 vsl 15 128 0 127 0 0 empty empty empty 0 -9 0 10 -262144
-1 -1 9200 1;
#X obj 268 120 vsl 15 128 0 127 0 0 empty empty empty 0 -9 0 10 -262144
-1 -1 7400 1;
#X obj 324 121 vsl 15 128 0 127 0 0 empty empty empty 0 -9 0 10 -262144
-1 -1 8600 1;
#X obj 381 121 vsl 15 128 0 127 0 0 empty empty empty 0 -9 0 10 -262144
-1 -1 9700 1;
#X obj 433 121 vsl 15 128 0 127 0 0 empty empty empty 0 -9 0 10 -262144
-1 -1 5700 1;
#X obj 486 120 vsl 15 128 0 127 0 0 empty empty empty 0 -9 0 10 -262144
-1 -1 8200 1;
#X obj 542 121 vsl 15 128 0 127 0 0 empty empty empty 0 -9 0 10 -262144
-1 -1 6800 1;
#X obj 216 76 ctlin 1;
#X obj 269 75 ctlin 2;
#X obj 325 76 ctlin 3;
#X obj 382 76 ctlin 4;
#X obj 434 76 ctlin 5;
#X obj 487 75 ctlin 6;
#X obj 543 76 ctlin 7;
#X obj 166 315 vsl 15 128 0 127 0 0 empty empty empty 0 -9 0 10 -262144
-1 -1 3600 1;
#X obj 218 315 vsl 15 128 0 127 0 0 empty empty empty 0 -9 0 10 -262144
-1 -1 0 1;
#X obj 271 314 vsl 15 128 0 127 0 0 empty empty empty 0 -9 0 10 -262144
-1 -1 0 1;
#X obj 327 315 vsl 15 128 0 127 0 0 empty empty empty 0 -9 0 10 -262144
-1 -1 0 1;
#X obj 384 315 vsl 15 128 0 127 0 0 empty empty empty 0 -9 0 10 -262144
-1 -1 0 1;
#X obj 436 315 vsl 15 128 0 127 0 0 empty empty empty 0 -9 0 10 -262144
-1 -1 0 1;
#X obj 489 314 vsl 15 128 0 127 0 0 empty empty empty 0 -9 0 10 -262144
-1 -1 0 1;
#X obj 545 315 vsl 15 128 0 127 0 0 empty empty empty 0 -9 0 10 -262144
-1 -1 0 1;
#X obj 167 270 ctlin 16;
#X obj 219 270 ctlin 17;
#X obj 272 269 ctlin 18;
#X obj 328 270 ctlin 19;
#X obj 385 270 ctlin 20;
#X obj 437 270 ctlin 21;
#X obj 490 269 ctlin 22;
#X obj 546 270 ctlin 23;
#X connect 0 0 1 0;
#X connect 9 0 2 0;
#X connect 10 0 3 0;
#X connect 11 0 4 0;
#X connect 12 0 5 0;
#X connect 13 0 6 0;
#X connect 14 0 7 0;
#X connect 15 0 8 0;
#X connect 24 0 16 0;
#X connect 25 0 17 0;
#X connect 26 0 18 0;
#X connect 27 0 19 0;
#X connect 28 0 20 0;
#X connect 29 0 21 0;
#X connect 30 0 22 0;
#X connect 31 0 23 0;
