#N canvas 59 189 1136 580 10;
#X obj 215 323 dac~;
#X obj 211 199 osc~;
#X obj 217 244 *~ 0.2;
#X obj 202 51 osc~ 0.1;
#X obj 203 94 *~ 40;
#X obj 208 124 +~ 40;
#X obj 303 63 loadbang;
#X obj 301 96 del 4000;
#X msg 303 126 \; pd dsp 1;
#X connect 1 0 2 0;
#X connect 2 0 0 0;
#X connect 2 0 0 1;
#X connect 3 0 4 0;
#X connect 4 0 5 0;
#X connect 5 0 1 0;
#X connect 6 0 7 0;
#X connect 7 0 8 0;
