#N canvas 1069 299 1536 1119 10;
#X obj 448 602 tabread4~ record;
#X obj 419 473 *~;
#X obj 504 267 r grain-size;
#X obj 651 269 r samp-rate;
#X obj 428 554 +~;
#X obj 535 460 expr $f1 * $f2 / 1000;
#X obj 712 411 r samp-rate;
#X obj 541 409 r grain-offset;
#X obj 293 603 tabread~ hanning;
#X obj 283 547 *~ 256;
#X obj 423 688 *~;
#X obj 436 393 samphold~;
#X obj 448 513 samphold~;
#X obj 494 333 expr $f1 * $f2 / 1000;
#X obj 598 734 vu 15 80 empty empty -1 -8 0 8 -66577 -1 1 0;
#X floatatom 541 797 5 0 0 0 - - -, f 5;
#X obj 541 751 env~;
#X obj 541 774 - 101;
#X obj 419 787 throw~ grains;
#X obj 496 363 r~ \$1-grain-phase;
#X obj 533 506 r~ \$1-grain-phase;
#X obj 292 422 r~ \$1-grain-phase;
#X obj 237 497 r~ \$1-grain-phase;
#X obj 527 103 delwrite~ \$1-phase 10000;
#X obj 523 59 r~ grain-phase;
#X obj 210 39 r~ grain-phase-freq;
#X obj 398 50 loadbang;
#X obj 391 78 f \$1;
#X obj 207 145 expr~ (1000/$v1) * $f2;
#X floatatom 408 117 5 0 0 0 - - -, f 5;
#X obj 212 236 delread4~ \$1-phase;
#X obj 196 277 s~ \$1-grain-phase;
#X connect 0 0 10 1;
#X connect 1 0 4 0;
#X connect 2 0 13 0;
#X connect 3 0 13 1;
#X connect 4 0 0 0;
#X connect 5 0 12 0;
#X connect 6 0 5 1;
#X connect 7 0 5 0;
#X connect 8 0 10 0;
#X connect 9 0 8 0;
#X connect 10 0 16 0;
#X connect 10 0 18 0;
#X connect 11 0 1 1;
#X connect 12 0 4 1;
#X connect 13 0 11 0;
#X connect 15 0 14 0;
#X connect 16 0 17 0;
#X connect 17 0 15 0;
#X connect 19 0 11 1;
#X connect 20 0 12 1;
#X connect 21 0 1 0;
#X connect 22 0 9 0;
#X connect 24 0 23 0;
#X connect 25 0 28 0;
#X connect 26 0 27 0;
#X connect 27 0 29 0;
#X connect 28 0 30 0;
#X connect 29 0 28 1;
#X connect 30 0 31 0;
