#N canvas 826 179 1536 1119 10;
#X obj 448 602 tabread4~ record;
#X obj 419 473 *~;
#X obj 504 267 r grain-size;
#X obj 651 269 r samp-rate;
#X obj 428 554 +~;
#X obj 535 460 expr $f1 * $f2 / 1000;
#X obj 712 411 r samp-rate;
#X obj 541 409 r grain-offset;
#X obj 293 603 tabread~ hanning;
#X obj 283 547 *~ 256;
#X obj 423 688 *~;
#X obj 436 393 samphold~;
#X obj 448 513 samphold~;
#X obj 494 333 expr $f1 * $f2 / 1000;
#N canvas 976 463 1156 863 grain-phasor 0;
#X floatatom 62 591 5 0 0 0 - - -, f 5;
#X obj 57 619 / 100;
#X obj 157 488 expr 1000/$f1;
#X obj 152 441 r grain-size;
#X obj 163 558 samphold~;
#X obj 165 692 *~ 1;
#X obj 380 385 phasor~ 6;
#X obj 342 262 +~;
#X obj 469 106 loadbang;
#X obj 512 173 del 3000;
#X msg 457 198 1;
#X msg 512 212 0;
#X obj 472 137 t b b;
#X obj 477 274 r rec-dur;
#X obj 472 307 t b;
#X obj 414 564 outlet~;
#X obj 401 476 wrap~;
#X text 593 155 temporarily set the phasor frequency to 1 so the phasor
doesn't get stuck at zero \, thereby never triggering the samphold
;
#X obj 534 373 loadbang;
#X obj 52 543 r pitch;
#X obj 527 401 f \$1;
#X msg 476 340 0;
#X obj 402 439 +~;
#X obj 572 508 snapshot~;
#X obj 608 451 metro 33;
#X obj 705 559 print \$1-phase;
#X obj 642 372 loadbang;
#X msg 642 403 1;
#X obj 717 456 loadbang;
#X msg 717 487 \$0;
#X obj 158 754 delwrite~ \$1-rate 1;
#X obj 325 96 delread~ \$1-rate;
#X connect 0 0 1 0;
#X connect 1 0 5 1;
#X connect 2 0 4 0;
#X connect 3 0 2 0;
#X connect 4 0 5 0;
#X connect 5 0 30 0;
#X connect 6 0 22 0;
#X connect 7 0 6 0;
#X connect 8 0 12 0;
#X connect 9 0 11 0;
#X connect 10 0 7 1;
#X connect 11 0 7 1;
#X connect 12 0 10 0;
#X connect 12 1 9 0;
#X connect 13 0 14 0;
#X connect 14 0 21 0;
#X connect 16 0 15 0;
#X connect 16 0 4 1;
#X connect 16 0 23 0;
#X connect 18 0 20 0;
#X connect 19 0 0 0;
#X connect 20 0 22 1;
#X connect 20 0 25 0;
#X connect 21 0 6 1;
#X connect 22 0 16 0;
#X connect 23 0 25 0;
#X connect 24 0 23 0;
#X connect 26 0 27 0;
#X connect 28 0 29 0;
#X connect 31 0 7 0;
#X restore 259 227 pd grain-phasor \$1;
#X obj 598 734 vu 15 80 empty empty -1 -8 0 8 -66577 -1 1 0;
#X floatatom 541 797 5 0 0 0 - - -, f 5;
#X obj 541 751 env~;
#X obj 541 774 - 101;
#X obj 419 787 throw~ grains;
#X connect 0 0 10 1;
#X connect 1 0 4 0;
#X connect 2 0 13 0;
#X connect 3 0 13 1;
#X connect 4 0 0 0;
#X connect 5 0 12 0;
#X connect 6 0 5 1;
#X connect 7 0 5 0;
#X connect 8 0 10 0;
#X connect 9 0 8 0;
#X connect 10 0 17 0;
#X connect 10 0 19 0;
#X connect 11 0 1 1;
#X connect 12 0 4 1;
#X connect 13 0 11 0;
#X connect 14 0 11 1;
#X connect 14 0 1 0;
#X connect 14 0 9 0;
#X connect 14 0 12 1;
#X connect 16 0 15 0;
#X connect 17 0 18 0;
#X connect 18 0 16 0;
