#N canvas 357 130 972 653 10;
#X obj 434 356 netsend;
#X floatatom 430 391 5 0 0 0 - - -, f 5;
#X obj 263 357 netsend;
#X floatatom 259 392 5 0 0 0 - - -, f 5;
#X obj 596 357 netsend;
#X floatatom 592 392 5 0 0 0 - - -, f 5;
#X msg 268 301 connect 192.168.1.2 3001;
#X msg 439 300 connect 192.168.1.3 3001;
#X msg 601 301 connect 192.168.1.4 3001;
#X obj 247 522 netsend;
#X floatatom 249 558 5 0 0 0 - - -, f 5;
#X msg 252 466 connect 192.168.1.5 3001;
#X obj 431 533 netsend;
#X floatatom 427 568 5 0 0 0 - - -, f 5;
#X msg 436 477 connect 192.168.1.6 3001;
#X obj 591 537 netsend;
#X floatatom 587 572 5 0 0 0 - - -, f 5;
#X msg 596 481 connect 192.168.1.7 3001;
#X obj 68 302 inlet;
#X obj 785 179 spigot;
#X obj 754 105 sel 1;
#X obj 781 381 noteout;
#X msg 816 231 65 127;
#X obj 752 52 ctlin 20;
#X obj 750 77 < 5;
#X obj 816 56 ctlin 22;
#X obj 826 107 > 120;
#X connect 0 0 1 0;
#X connect 2 0 3 0;
#X connect 4 0 5 0;
#X connect 6 0 2 0;
#X connect 7 0 0 0;
#X connect 8 0 4 0;
#X connect 9 0 10 0;
#X connect 11 0 9 0;
#X connect 12 0 13 0;
#X connect 14 0 12 0;
#X connect 15 0 16 0;
#X connect 17 0 15 0;
#X connect 18 0 2 0;
#X connect 18 0 0 0;
#X connect 18 0 4 0;
#X connect 18 0 9 0;
#X connect 18 0 12 0;
#X connect 18 0 15 0;
#X connect 19 0 6 0;
#X connect 19 0 7 0;
#X connect 19 0 8 0;
#X connect 19 0 11 0;
#X connect 19 0 14 0;
#X connect 19 0 17 0;
#X connect 19 0 22 0;
#X connect 20 0 19 0;
#X connect 22 0 21 0;
#X connect 23 0 24 0;
#X connect 24 0 20 0;
#X connect 25 0 26 0;
#X connect 26 0 19 1;
