#N canvas 43 275 1090 599 10;
#X obj 223 52 ctlin 13;
#X floatatom 224 76 5 0 0 0 - - -, f 5;
#X obj 259 292 mtof;
#X obj 239 104 moses 42;
#X floatatom 262 207 5 0 0 0 - - -, f 5;
#X obj 258 540 throw~ ther;
#X obj 62 291 noise~;
#X obj 235 410 lop~;
#X obj 263 240 expr ($f1-42)/50*127;
#X obj 143 343 *~;
#X obj 165 286 osc~ 22;
#X obj 162 201 osc~ 0.1;
#X obj 299 399 r theron;
#X obj 260 491 *~ 0;
#X obj 375 405 tgl 15 0 empty empty empty 17 7 0 10 -262144 -1 -1 0
1;
#X obj 60 242 expr~ ($v1 * 0.5 + 0.5) * 88;
#X obj 295 446 * 0.15;
#X connect 0 0 1 0;
#X connect 1 0 3 0;
#X connect 2 0 7 1;
#X connect 3 1 4 0;
#X connect 4 0 8 0;
#X connect 6 0 9 0;
#X connect 7 0 13 0;
#X connect 8 0 2 0;
#X connect 9 0 7 0;
#X connect 10 0 9 1;
#X connect 11 0 15 0;
#X connect 12 0 16 0;
#X connect 13 0 5 0;
#X connect 14 0 16 0;
#X connect 15 0 10 0;
#X connect 16 0 13 1;
