#N canvas 249 238 726 420 10;
#X obj 135 253 spigot;
#X obj 224 255 spigot;
#X obj 313 164 inlet;
#X obj 140 28 inlet;
#X msg 108 162 1;
#X msg 137 162 0;
#X msg 176 163 0;
#X msg 205 163 1;
#X obj 162 333 outlet;
#X obj 239 336 outlet;
#X obj 220 65 float \$1;
#X obj 220 9 loadbang;
#X obj 194 104 bng 15 250 50 0 empty empty empty 17 7 0 10 -262144
-1 -1;
#X obj 140 65 sel 1 2 0;
#X connect 0 0 8 0;
#X connect 1 0 9 0;
#X connect 2 0 0 0;
#X connect 2 0 1 0;
#X connect 3 0 13 0;
#X connect 4 0 0 1;
#X connect 5 0 1 1;
#X connect 6 0 0 1;
#X connect 7 0 1 1;
#X connect 10 0 13 0;
#X connect 11 0 10 0;
#X connect 12 0 7 0;
#X connect 12 0 6 0;
#X connect 13 0 4 0;
#X connect 13 0 5 0;
#X connect 13 1 6 0;
#X connect 13 1 7 0;
#X connect 13 2 5 0;
#X connect 13 2 6 0;
#X connect 13 3 12 0;
