#N canvas 11 28 1366 667 10;
#X obj 215 138 tabwrite~ record;
#X msg 290 63 bang;
#X msg 319 91 stop;
#X obj 141 96 vu 15 80 empty empty -1 -8 0 8 -66577 -1 1 0;
#X floatatom 84 159 5 0 0 0 - - -, f 5;
#X obj 84 113 env~;
#X obj 84 136 - 101;
#X obj 213 166 table record;
#X obj 977 152 tgl 15 0 empty empty empty 17 7 0 10 -262144 -1 -1 0
1;
#X obj 929 207 sel 0 1;
#X obj 895 243 bng 15 250 50 0 empty empty empty 17 7 0 10 -262144
-1 -1;
#X obj 963 238 bng 15 250 50 0 empty empty empty 17 7 0 10 -262144
-1 -1;
#X obj 1024 206 metro 1;
#X obj 1024 311 i;
#X floatatom 1021 350 5 0 0 0 - - -, f 5;
#X obj 1060 311 + 1;
#X obj 1052 272 t 0;
#X obj 884 275 s stoprec;
#X obj 964 274 s startrec;
#X obj 1036 237 r stoprec;
#X obj 351 26 r startrec;
#X obj 367 61 r stoprec;
#X obj 941 355 i;
#X obj 936 303 r stoprec;
#X obj 950 405 s rec-dur;
#X obj 465 232 r startrec;
#X obj 564 325 r stoprec;
#X obj 357 528 vu 15 80 empty empty -1 -8 0 8 -66577 -1 1 0;
#X floatatom 300 591 5 0 0 0 - - -, f 5;
#X obj 300 545 env~;
#X obj 300 568 - 101;
#X obj 474 395 line~;
#X obj 467 339 pack 0 10;
#X obj 201 414 *~;
#X obj 562 357 1;
#X msg 465 298 0;
#X obj 206 13 adc~ 1;
#X obj 216 43 *~ 1;
#X floatatom 261 11 5 0 0 0 - - -, f 5;
#X obj 174 565 lop~ 22000;
#X obj 173 597 dac~;
#X floatatom 244 535 5 0 0 0 - - -, f 5;
#X floatatom 1166 338 5 0 0 0 - - -, f 5;
#X obj 1166 364 s grain-size;
#X obj 1161 255 loadbang;
#X msg 1160 314 150;
#X obj 497 69 samplerate~;
#X obj 497 42 r pd-dsp-started;
#X obj 498 104 s samp-rate;
#X floatatom 1323 299 5 0 0 0 - - -, f 5;
#X obj 1317 323 s grain-offset;
#N canvas 0 22 450 300 (subpatch) 0;
#X array hanning 256 float 1;
#A 0 0 0.000150591 0.000602275 0.00135478 0.00240764 0.00376022 0.00541174
0.00736117 0.00960734 0.0121489 0.0149843 0.0181119 0.0215298 0.0252359
0.0292279 0.0335035 0.0380601 0.042895 0.0480052 0.0533877 0.0590392
0.0649563 0.0711355 0.077573 0.084265 0.0912073 0.0983959 0.105826
0.113494 0.121395 0.129524 0.137876 0.146446 0.155229 0.16422 0.173413
0.182803 0.192384 0.20215 0.212095 0.222214 0.2325 0.242948 0.25355
0.264301 0.275194 0.286222 0.297379 0.308658 0.320052 0.331555 0.343159
0.354857 0.366643 0.378509 0.390449 0.402454 0.414519 0.426634 0.438794
0.450991 0.463218 0.475466 0.487729 0.5 0.512271 0.524534 0.536782
0.549009 0.561205 0.573365 0.585481 0.597545 0.609551 0.62149 0.633357
0.645143 0.656841 0.668445 0.679948 0.691342 0.702621 0.713778 0.724806
0.735699 0.74645 0.757052 0.767499 0.777786 0.787905 0.79785 0.807616
0.817197 0.826587 0.83578 0.844771 0.853554 0.862124 0.870476 0.878605
0.886506 0.894174 0.901605 0.908793 0.915736 0.922428 0.928865 0.935044
0.940961 0.946613 0.951995 0.957106 0.96194 0.966497 0.970773 0.974765
0.978471 0.981889 0.985016 0.987852 0.990393 0.992639 0.994589 0.99624
0.997593 0.998645 0.999398 0.999849 1 0.999849 0.999398 0.998645 0.997592
0.996239 0.994588 0.992638 0.990392 0.987851 0.985015 0.981887 0.978469
0.974763 0.970771 0.966495 0.961939 0.957104 0.951993 0.946611 0.940959
0.935042 0.928863 0.922425 0.915733 0.908791 0.901602 0.894171 0.886503
0.878602 0.870473 0.862121 0.853551 0.844768 0.835777 0.826584 0.817194
0.807613 0.797847 0.787901 0.777782 0.767496 0.757048 0.746446 0.735695
0.724802 0.713774 0.702617 0.691338 0.679944 0.668441 0.656837 0.645139
0.633353 0.621486 0.609547 0.597541 0.585477 0.573361 0.561201 0.549004
0.536778 0.52453 0.512266 0.499996 0.487725 0.475462 0.463213 0.450987
0.43879 0.42663 0.414515 0.40245 0.390445 0.378505 0.366639 0.354853
0.343155 0.331551 0.320048 0.308654 0.297375 0.286218 0.27519 0.264297
0.253547 0.242944 0.232497 0.222211 0.212092 0.202146 0.19238 0.182799
0.17341 0.164217 0.155226 0.146443 0.137873 0.129521 0.121392 0.113491
0.105823 0.0983929 0.0912044 0.0842621 0.0775702 0.0711328 0.0649537
0.0590367 0.0533853 0.0480029 0.0428928 0.038058 0.0335015 0.029226
0.025234 0.0215281 0.0181104 0.0149829 0.0121476 0.00960615 0.0073601
0.00541082 0.00375944 0.00240701 0.00135431 0.000601947 0.000150442
;
#X coords 0 1 256 0 40 30 1;
#X restore 942 44 graph;
#X text 927 61 0;
#X text 927 38 1;
#X text 930 77 0;
#X text 966 77 256;
#X obj 1291 231 line;
#X obj 1303 -1 r rec-dur;
#X obj 1234 68 bng 15 250 50 0 empty empty empty 17 7 0 10 -262144
-1 -1;
#X obj 1288 128 pack 0 0 0;
#X floatatom 1322 88 5 0 0 0 - - -, f 5;
#X floatatom 1372 91 5 0 0 0 - - -, f 5;
#X msg 1296 166 \$1 \, \$2 \$3;
#N canvas 218 22 1341 667 grain 0;
#X obj 469 954 outlet~;
#X obj 490 814 tabread4~ record;
#X obj 461 685 *~;
#X obj 546 479 r grain-size;
#X obj 693 481 r samp-rate;
#X obj 470 766 +~;
#X obj 577 672 expr $f1 * $f2 / 1000;
#X obj 754 623 r samp-rate;
#X obj 583 621 r grain-offset;
#X obj 335 815 tabread~ hanning;
#X obj 325 759 *~ 256;
#X obj 465 900 *~;
#X obj 478 605 samphold~;
#X obj 490 725 samphold~;
#X obj 536 545 expr $f1 * $f2 / 1000;
#X obj 616 917 vu 15 80 empty empty -1 -8 0 8 -66577 -1 1 0;
#X floatatom 559 980 5 0 0 0 - - -, f 5;
#X obj 559 934 env~;
#X obj 559 957 - 101;
#X obj 377 517 r~ grain-phasor;
#X connect 1 0 11 1;
#X connect 2 0 5 0;
#X connect 3 0 14 0;
#X connect 4 0 14 1;
#X connect 5 0 1 0;
#X connect 6 0 13 0;
#X connect 7 0 6 1;
#X connect 8 0 6 0;
#X connect 9 0 11 0;
#X connect 10 0 9 0;
#X connect 11 0 0 0;
#X connect 11 0 17 0;
#X connect 12 0 2 1;
#X connect 13 0 5 1;
#X connect 14 0 12 0;
#X connect 16 0 15 0;
#X connect 17 0 18 0;
#X connect 18 0 16 0;
#X connect 19 0 2 0;
#X connect 19 0 10 0;
#X connect 19 0 12 1;
#X connect 19 0 13 1;
#X restore 95 284 pd grain;
#X obj 1505 153 >= 1000;
#X obj 1505 187 sel 1;
#X obj 1503 237 spigot 1;
#X obj 1576 196 tgl 15 0 empty empty empty 17 7 0 10 -262144 -1 -1
1 1;
#X obj 1611 140 loadbang;
#X obj 1551 105 r rec-dur;
#X msg 1600 168 1;
#N canvas 218 228 1341 1086 grain-phasor 0;
#X floatatom 56 583 5 0 0 0 - - -, f 5;
#X obj 57 619 / 100;
#X obj 46 524 loadbang;
#X msg 55 556 100;
#X obj 157 488 expr 1000/$f1;
#X obj 456 426 r stoprec;
#X obj 454 458 0;
#X obj 152 441 r grain-size;
#X obj 163 558 samphold~;
#X obj 165 692 *~ 1;
#X obj 158 754 delwrite~ rate 11;
#X obj 321 229 delread~ rate 11;
#X obj 377 517 phasor~ 6;
#X obj 339 394 +~;
#X obj 466 238 loadbang;
#X obj 509 305 del 3000;
#X msg 454 330 1;
#X msg 501 358 0;
#X obj 469 269 t b b;
#X obj 508 332 t b;
#X obj 385 578 send~ grain-phasor;
#X connect 0 0 1 0;
#X connect 1 0 9 1;
#X connect 2 0 3 0;
#X connect 3 0 0 0;
#X connect 4 0 8 0;
#X connect 5 0 6 0;
#X connect 6 0 12 1;
#X connect 7 0 4 0;
#X connect 8 0 9 0;
#X connect 9 0 10 0;
#X connect 11 0 13 0;
#X connect 12 0 8 1;
#X connect 12 0 20 0;
#X connect 13 0 12 0;
#X connect 14 0 18 0;
#X connect 15 0 19 0;
#X connect 16 0 13 1;
#X connect 17 0 13 1;
#X connect 18 0 16 0;
#X connect 18 1 15 0;
#X connect 19 0 17 0;
#X restore 236 211 pd grain-phasor;
#X obj 1160 279 del 3000;
#N canvas 218 228 1341 1086 grain 0;
#X obj 469 954 outlet~;
#X obj 490 814 tabread4~ record;
#X obj 461 685 *~;
#X obj 546 479 r grain-size;
#X obj 693 481 r samp-rate;
#X obj 470 766 +~;
#X obj 577 672 expr $f1 * $f2 / 1000;
#X obj 754 623 r samp-rate;
#X obj 583 621 r grain-offset;
#X obj 335 815 tabread~ hanning;
#X obj 325 759 *~ 256;
#X obj 465 900 *~;
#X obj 478 605 samphold~;
#X obj 490 725 samphold~;
#X obj 536 545 expr $f1 * $f2 / 1000;
#X obj 616 917 vu 15 80 empty empty -1 -8 0 8 -66577 -1 1 0;
#X floatatom 559 980 5 0 0 0 - - -, f 5;
#X obj 559 934 env~;
#X obj 559 957 - 101;
#X obj 309 346 r~ grain-phasor;
#X obj 323 476 wrap~;
#X obj 310 438 +~ 0.25;
#X connect 1 0 11 1;
#X connect 2 0 5 0;
#X connect 3 0 14 0;
#X connect 4 0 14 1;
#X connect 5 0 1 0;
#X connect 6 0 13 0;
#X connect 7 0 6 1;
#X connect 8 0 6 0;
#X connect 9 0 11 0;
#X connect 10 0 9 0;
#X connect 11 0 0 0;
#X connect 11 0 17 0;
#X connect 12 0 2 1;
#X connect 13 0 5 1;
#X connect 14 0 12 0;
#X connect 16 0 15 0;
#X connect 17 0 18 0;
#X connect 18 0 16 0;
#X connect 19 0 21 0;
#X connect 20 0 2 0;
#X connect 20 0 10 0;
#X connect 20 0 12 1;
#X connect 20 0 13 1;
#X connect 21 0 20 0;
#X restore 178 282 pd grain;
#N canvas 1052 268 1341 1086 grain 0;
#X obj 469 954 outlet~;
#X obj 490 814 tabread4~ record;
#X obj 461 685 *~;
#X obj 546 479 r grain-size;
#X obj 693 481 r samp-rate;
#X obj 470 766 +~;
#X obj 577 672 expr $f1 * $f2 / 1000;
#X obj 754 623 r samp-rate;
#X obj 583 621 r grain-offset;
#X obj 335 815 tabread~ hanning;
#X obj 325 759 *~ 256;
#X obj 465 900 *~;
#X obj 478 605 samphold~;
#X obj 490 725 samphold~;
#X obj 536 545 expr $f1 * $f2 / 1000;
#X obj 616 917 vu 15 80 empty empty -1 -8 0 8 -66577 -1 1 0;
#X floatatom 559 980 5 0 0 0 - - -, f 5;
#X obj 559 934 env~;
#X obj 559 957 - 101;
#X obj 377 517 wrap~;
#X obj 366 443 *~ 0.75;
#X obj 363 387 r~ grain-phasor;
#X connect 1 0 11 1;
#X connect 2 0 5 0;
#X connect 3 0 14 0;
#X connect 4 0 14 1;
#X connect 5 0 1 0;
#X connect 6 0 13 0;
#X connect 7 0 6 1;
#X connect 8 0 6 0;
#X connect 9 0 11 0;
#X connect 10 0 9 0;
#X connect 11 0 0 0;
#X connect 11 0 17 0;
#X connect 12 0 2 1;
#X connect 13 0 5 1;
#X connect 14 0 12 0;
#X connect 16 0 15 0;
#X connect 17 0 18 0;
#X connect 18 0 16 0;
#X connect 19 0 2 0;
#X connect 19 0 10 0;
#X connect 19 0 12 1;
#X connect 19 0 13 1;
#X connect 20 0 19 0;
#X connect 21 0 20 0;
#X restore 341 294 pd grain;
#N canvas 218 228 1341 1086 grain 0;
#X obj 469 954 outlet~;
#X obj 490 814 tabread4~ record;
#X obj 461 685 *~;
#X obj 546 479 r grain-size;
#X obj 693 481 r samp-rate;
#X obj 470 766 +~;
#X obj 577 672 expr $f1 * $f2 / 1000;
#X obj 754 623 r samp-rate;
#X obj 583 621 r grain-offset;
#X obj 335 815 tabread~ hanning;
#X obj 325 759 *~ 256;
#X obj 465 900 *~;
#X obj 478 605 samphold~;
#X obj 490 725 samphold~;
#X obj 536 545 expr $f1 * $f2 / 1000;
#X obj 616 917 vu 15 80 empty empty -1 -8 0 8 -66577 -1 1 0;
#X floatatom 559 980 5 0 0 0 - - -, f 5;
#X obj 559 934 env~;
#X obj 559 957 - 101;
#X obj 310 438 +~ 0.5;
#X obj 309 346 r~ grain-phasor;
#X obj 323 476 wrap~;
#X connect 1 0 11 1;
#X connect 2 0 5 0;
#X connect 3 0 14 0;
#X connect 4 0 14 1;
#X connect 5 0 1 0;
#X connect 6 0 13 0;
#X connect 7 0 6 1;
#X connect 8 0 6 0;
#X connect 9 0 11 0;
#X connect 10 0 9 0;
#X connect 11 0 0 0;
#X connect 11 0 17 0;
#X connect 12 0 2 1;
#X connect 13 0 5 1;
#X connect 14 0 12 0;
#X connect 16 0 15 0;
#X connect 17 0 18 0;
#X connect 18 0 16 0;
#X connect 19 0 21 0;
#X connect 20 0 19 0;
#X connect 21 0 2 0;
#X connect 21 0 10 0;
#X connect 21 0 12 1;
#X connect 21 0 13 1;
#X restore 258 283 pd grain;
#X obj 1305 36 t b f f;
#X floatatom 864 410 5 0 0 0 - - -, f 5;
#X obj 1375 64 * 4;
#N canvas 0 22 592 312 setup 0;
#X obj 60 41 loadbang;
#X msg 35 175 \; pd dsp 1;
#X msg 169 101 \; record resize 441000;
#X obj 63 96 del 2000;
#X msg 195 175 \; pd midi-dialog 1 0 0 0 0 0 0 0 0 0 0 0 0 0 0 0 0
0 0 0;
#X connect 0 0 2 0;
#X connect 0 0 3 0;
#X connect 3 0 1 0;
#X connect 3 0 4 0;
#X restore 633 37 pd setup;
#N canvas 66 32 1029 719 record-controls 1;
#X obj 218 433 outlet;
#X obj 150 116 key;
#X obj 149 220 t 1;
#X obj 195 220 t 0;
#X obj 151 150 change;
#X text 96 69 type "1" to start;
#X text 104 85 type "2" to stop;
#X obj 318 123 ctlin;
#X obj 318 188 spigot, f 11;
#X obj 130 311 spigot;
#X obj 196 282 tgl 15 0 empty empty empty 17 7 0 10 -262144 -1 -1 0
1;
#X obj 316 152 swap;
#X text 395 188 only non-zero ctl data;
#X obj 148 187 sel 49 50;
#X floatatom 355 227 5 0 0 0 - - -, f 5;
#X obj 284 226 sel 45 41;
#X obj 282 371 spigot;
#X obj 348 342 tgl 15 0 empty empty empty 17 7 0 10 -262144 -1 -1 1
1;
#X obj 416 268 loadbang;
#X msg 411 302 1;
#X text 333 96 nanokontrol 2 record/play;
#X obj 292 419 tgl 15 0 empty empty empty 17 7 0 10 -262144 -1 -1 0
1;
#X obj 270 270 bng 15 250 50 0 empty empty empty 17 7 0 10 -262144
-1 -1;
#X msg 293 274 1;
#X msg 332 275 0;
#X connect 1 0 4 0;
#X connect 2 0 9 0;
#X connect 3 0 9 0;
#X connect 4 0 13 0;
#X connect 7 0 11 0;
#X connect 7 1 11 1;
#X connect 8 0 14 0;
#X connect 8 0 15 0;
#X connect 9 0 0 0;
#X connect 10 0 9 1;
#X connect 11 0 8 0;
#X connect 11 1 8 1;
#X connect 13 0 2 0;
#X connect 13 1 3 0;
#X connect 15 0 22 0;
#X connect 15 0 23 0;
#X connect 15 1 24 0;
#X connect 16 0 21 0;
#X connect 17 0 16 1;
#X connect 18 0 19 0;
#X connect 19 0 17 0;
#X connect 23 0 16 0;
#X connect 24 0 16 0;
#X restore 1014 128 pd record-controls;
#X connect 1 0 0 0;
#X connect 2 0 0 0;
#X connect 4 0 3 0;
#X connect 5 0 6 0;
#X connect 6 0 4 0;
#X connect 8 0 9 0;
#X connect 8 0 12 0;
#X connect 9 0 10 0;
#X connect 9 1 11 0;
#X connect 10 0 17 0;
#X connect 11 0 18 0;
#X connect 12 0 13 0;
#X connect 13 0 14 0;
#X connect 13 0 15 0;
#X connect 13 0 22 1;
#X connect 15 0 13 1;
#X connect 16 0 13 1;
#X connect 19 0 16 0;
#X connect 20 0 1 0;
#X connect 21 0 2 0;
#X connect 22 0 24 0;
#X connect 22 0 77 0;
#X connect 23 0 22 0;
#X connect 25 0 35 0;
#X connect 26 0 34 0;
#X connect 28 0 27 0;
#X connect 29 0 30 0;
#X connect 30 0 28 0;
#X connect 31 0 33 1;
#X connect 32 0 31 0;
#X connect 33 0 29 0;
#X connect 33 0 39 0;
#X connect 34 0 32 0;
#X connect 35 0 32 0;
#X connect 36 0 37 0;
#X connect 37 0 0 0;
#X connect 37 0 5 0;
#X connect 38 0 37 1;
#X connect 39 0 40 0;
#X connect 39 0 40 1;
#X connect 41 0 39 1;
#X connect 42 0 43 0;
#X connect 44 0 72 0;
#X connect 45 0 42 0;
#X connect 46 0 48 0;
#X connect 47 0 46 0;
#X connect 49 0 50 0;
#X connect 56 0 49 0;
#X connect 56 0 64 0;
#X connect 57 0 76 0;
#X connect 58 0 59 0;
#X connect 59 0 62 0;
#X connect 60 0 59 1;
#X connect 61 0 59 2;
#X connect 62 0 56 0;
#X connect 63 0 33 0;
#X connect 64 0 65 0;
#X connect 65 0 66 0;
#X connect 66 0 59 0;
#X connect 67 0 66 1;
#X connect 68 0 70 0;
#X connect 69 0 64 1;
#X connect 70 0 67 0;
#X connect 72 0 45 0;
#X connect 75 0 33 0;
#X connect 76 0 59 0;
#X connect 76 1 60 0;
#X connect 76 2 78 0;
#X connect 78 0 61 0;
