#N canvas 61 97 1379 742 10;
#X obj 27 40 tickler.in;
#X obj 231 600 dac~;
#X obj 667 53 tgl 15 0 empty empty record 17 7 0 10 -262144 -1 -1 0
1;
#N canvas 225 154 1015 521 router 0;
#X obj 104 22 inlet;
#X obj 108 139 spigot;
#X obj 333 143 spigot;
#X obj 365 37 inlet;
#X msg 361 79 1;
#X msg 395 80 0;
#X obj 110 213 sel 1 0;
#X msg 63 318 0 record 1;
#X obj 166 271 t b b;
#X msg 159 317 0 record 0;
#X obj 373 473 outlet;
#X msg 258 252 0;
#X msg 292 247 1;
#X obj 389 204 sel 1 0;
#X obj 494 334 ali.counter 1 4;
#X obj 374 394 list prepend;
#X msg 330 319 record 1;
#X obj 341 276 t b b;
#X msg 400 319 record 0;
#X msg 434 81 1;
#X obj 147 88 t f f;
#X obj 750 33 inlet;
#X msg 752 194 sync 1 \, autosize 0 \, overdub 1;
#X obj 860 119 ali.uzi 4;
#X obj 714 359 list prepend;
#X obj 749 406 route list;
#X msg 566 189 play 0 \, clear;
#X obj 623 125 ali.uzi 4;
#X connect 0 0 20 0;
#X connect 1 0 6 0;
#X connect 2 0 13 0;
#X connect 3 0 4 0;
#X connect 3 0 5 0;
#X connect 3 0 19 0;
#X connect 3 0 27 0;
#X connect 4 0 1 1;
#X connect 5 0 2 1;
#X connect 6 0 7 0;
#X connect 6 1 8 0;
#X connect 7 0 10 0;
#X connect 8 0 9 0;
#X connect 8 1 11 0;
#X connect 8 1 12 0;
#X connect 9 0 10 0;
#X connect 11 0 1 1;
#X connect 12 0 2 1;
#X connect 13 0 17 0;
#X connect 13 1 18 0;
#X connect 14 0 15 1;
#X connect 15 0 10 0;
#X connect 16 0 15 0;
#X connect 17 0 16 0;
#X connect 17 1 14 0;
#X connect 18 0 15 0;
#X connect 19 0 14 2;
#X connect 20 0 1 0;
#X connect 20 1 2 0;
#X connect 21 0 23 0;
#X connect 22 0 24 0;
#X connect 23 0 22 0;
#X connect 23 2 24 1;
#X connect 24 0 25 0;
#X connect 25 0 10 0;
#X connect 26 0 24 0;
#X connect 27 0 26 0;
#X connect 27 2 24 1;
#X restore 668 87 pd router;
#X obj 734 54 bng 15 250 50 0 empty empty reset 17 7 0 10 -262144 -1
-1;
#X obj 668 116 route 0 1 2 3 4;
#X obj 793 308 ali.loop-pedal sound4;
#X obj 27 246 send~ ali.loop-pedal-audio;
#X obj 356 308 ali.loop-pedal sound1;
#X obj 356 37 ali.loop-pedal sound0;
#X obj 503 308 ali.loop-pedal sound2;
#X obj 648 308 ali.loop-pedal sound3;
#X obj 422 251 send~ ali.loop-pedal-sync;
#X obj 801 56 bng 15 250 50 0 empty empty init 17 7 0 10 -262144 -1
-1;
#X obj 963 43 mo.init;
#X obj 959 85 mo.ui;
#X obj 1037 44 r to-mo.ui;
#N canvas 2542 179 818 666 mapping 1;
#X obj 211 219 route /s1 /s2 /s3 /s4;
#X obj 224 306 bng 15 250 50 0 empty empty empty 17 7 0 10 -262144
-1 -1;
#X obj 231 358 tgl 15 0 empty empty empty 17 7 0 10 -262144 -1 -1 0
1;
#X obj 276 307 bng 15 250 50 0 empty empty empty 17 7 0 10 -262144
-1 -1;
#X msg 232 446 /l1 \$1;
#X obj 226 400 * 127;
#X obj 234 586 s to-mo.ui;
#X obj 329 388 bng 15 250 50 0 empty empty empty 17 7 0 10 -262144
-1 -1;
#X obj 358 311 bng 15 250 50 0 empty empty empty 17 7 0 10 -262144
-1 -1;
#X obj 411 392 bng 15 250 50 0 empty empty empty 17 7 0 10 -262144
-1 -1;
#X obj 233 111 inlet;
#X obj 43 376 outlet;
#X obj 53 386 outlet;
#X obj 63 396 outlet;
#X obj 414 520 mo.led-flash /l2 50;
#X obj 604 521 mo.led-flash /l4 50;
#X obj 404 135 print in;
#X obj 218 273 sel 0 127 1;
#X obj 325 274 sel 0 127 1;
#X obj 433 275 sel 0 127 1;
#X connect 0 0 17 0;
#X connect 0 1 18 0;
#X connect 0 3 19 0;
#X connect 1 0 2 0;
#X connect 2 0 5 0;
#X connect 2 0 11 0;
#X connect 3 0 7 0;
#X connect 3 0 12 0;
#X connect 4 0 6 0;
#X connect 5 0 4 0;
#X connect 7 0 14 0;
#X connect 8 0 9 0;
#X connect 8 0 13 0;
#X connect 9 0 15 0;
#X connect 10 0 0 0;
#X connect 10 0 16 0;
#X connect 14 0 6 0;
#X connect 15 0 6 0;
#X connect 17 1 1 0;
#X connect 17 2 1 0;
#X connect 18 1 3 0;
#X connect 18 2 3 0;
#X connect 19 1 8 0;
#X connect 19 2 8 0;
#X restore 962 430 pd mapping;
#X obj 37 37;
#X obj 1148 52 print;
#X connect 0 0 7 0;
#X connect 2 0 3 0;
#X connect 3 0 5 0;
#X connect 4 0 3 1;
#X connect 5 0 9 2;
#X connect 5 1 8 2;
#X connect 5 2 10 2;
#X connect 5 3 11 2;
#X connect 5 4 6 2;
#X connect 6 0 1 0;
#X connect 6 0 1 1;
#X connect 8 0 1 0;
#X connect 8 0 1 1;
#X connect 9 0 1 0;
#X connect 9 0 1 1;
#X connect 9 1 12 0;
#X connect 9 2 6 2;
#X connect 9 2 8 2;
#X connect 9 2 10 2;
#X connect 9 2 11 2;
#X connect 10 0 1 0;
#X connect 10 0 1 1;
#X connect 11 0 1 0;
#X connect 11 0 1 1;
#X connect 13 0 3 2;
#X connect 15 0 17 0;
#X connect 16 0 15 0;
#X connect 17 0 2 0;
#X connect 17 1 4 0;
#X connect 17 2 13 0;
