#N canvas 137 51 1425 886 10;
#X obj 20 64 tickler.in;
#X obj 581 814 dac~;
#X obj 659 96 tgl 15 0 empty empty record 17 7 0 10 -262144 -1 -1 0
1;
#N canvas 226 435 1334 515 router 0;
#X obj 104 52 inlet;
#X obj 104 119 spigot;
#X obj 360 123 spigot;
#X obj 365 47 inlet;
#X msg 365 83 1;
#X msg 399 83 0;
#X obj 104 153 sel 1 0;
#X msg 104 278 0 record 1;
#X obj 127 192 t b b;
#X msg 200 277 0 record 0;
#X obj 360 473 outlet;
#X msg 218 242 0;
#X msg 252 242 1;
#X obj 360 174 sel 1 0;
#X obj 504 259 ali.counter 1 4;
#X obj 360 304 list prepend;
#X msg 360 259 record 1;
#X msg 430 259 record 0;
#X msg 433 83 1;
#X obj 104 82 t f f;
#X obj 750 33 inlet;
#X msg 750 144 sync 1 \, autosize 0 \, overdub 1;
#X obj 750 72 ali.uzi 4;
#X obj 750 185 list prepend;
#X obj 750 246 route list;
#X msg 623 135 play 0 \, clear;
#X obj 623 95 ali.uzi 4;
#X obj 1073 30 inlet;
#X obj 1019 100 ali.uzi 5;
#X obj 1073 66 t b f;
#X obj 1079 135 - 1;
#X obj 1019 122 t b;
#X obj 1055 243 route list;
#X obj 1055 215 list append;
#X msg 1055 188 \$1 play;
#X obj 360 216 t b b;
#X connect 0 0 19 0;
#X connect 1 0 6 0;
#X connect 2 0 13 0;
#X connect 3 0 4 0;
#X connect 3 0 5 0;
#X connect 3 0 18 0;
#X connect 3 0 26 0;
#X connect 4 0 1 1;
#X connect 5 0 2 1;
#X connect 6 0 7 0;
#X connect 6 1 8 0;
#X connect 7 0 10 0;
#X connect 8 0 9 0;
#X connect 8 1 11 0;
#X connect 8 1 12 0;
#X connect 9 0 10 0;
#X connect 11 0 1 1;
#X connect 12 0 2 1;
#X connect 13 0 35 0;
#X connect 13 1 17 0;
#X connect 14 0 15 1;
#X connect 15 0 10 0;
#X connect 16 0 15 0;
#X connect 17 0 15 0;
#X connect 18 0 14 2;
#X connect 19 0 1 0;
#X connect 19 1 2 0;
#X connect 20 0 22 0;
#X connect 21 0 23 0;
#X connect 22 0 21 0;
#X connect 22 2 23 1;
#X connect 23 0 24 0;
#X connect 24 0 10 0;
#X connect 25 0 23 0;
#X connect 26 0 25 0;
#X connect 26 2 23 1;
#X connect 27 0 29 0;
#X connect 28 0 31 0;
#X connect 28 2 30 0;
#X connect 29 0 28 0;
#X connect 29 1 33 1;
#X connect 30 0 34 0;
#X connect 32 0 10 0;
#X connect 33 0 32 0;
#X connect 34 0 33 0;
#X connect 35 0 16 0;
#X connect 35 1 14 0;
#X restore 659 129 pd router;
#X obj 732 97 bng 15 250 50 0 empty empty reset 17 7 0 10 -262144 -1
-1;
#X obj 659 158 route 0 1 2 3 4;
#X obj 21 260 send~ ali.loop-pedal-audio;
#X obj 422 251 send~ ali.loop-pedal-sync;
#X obj 787 97 bng 15 250 50 0 empty empty init 17 7 0 10 -262144 -1
-1;
#X obj 101 9 mo.init;
#X obj 959 85 mo.ui;
#X obj 959 56 r to-mo.ui;
#N canvas 557 179 818 666 mapping 0;
#X obj 211 219 route /s1 /s2 /s3 /s4;
#X obj 224 306 bng 15 250 50 0 empty empty empty 17 7 0 10 -262144
-1 -1;
#X obj 224 338 tgl 15 0 empty empty empty 17 7 0 10 -262144 -1 -1 0
1;
#X obj 276 307 bng 15 250 50 0 empty empty empty 17 7 0 10 -262144
-1 -1;
#X msg 230 416 /l1 \$1;
#X obj 224 370 * 127;
#X obj 234 586 s to-mo.ui;
#X obj 276 348 bng 15 250 50 0 empty empty empty 17 7 0 10 -262144
-1 -1;
#X obj 358 311 bng 15 250 50 0 empty empty empty 17 7 0 10 -262144
-1 -1;
#X obj 358 352 bng 15 250 50 0 empty empty empty 17 7 0 10 -262144
-1 -1;
#X obj 211 177 inlet;
#X obj 147 367 outlet;
#X obj 323 381 outlet;
#X obj 420 383 outlet;
#X obj 414 520 mo.led-flash /l2 50;
#X obj 218 273 sel 0 127 1;
#X obj 325 274 sel 0 127 1;
#X obj 433 275 sel 0 127 1;
#X obj 604 521 mo.led-flash /l3 50;
#X connect 0 0 15 0;
#X connect 0 1 16 0;
#X connect 0 2 17 0;
#X connect 1 0 2 0;
#X connect 2 0 5 0;
#X connect 2 0 11 0;
#X connect 3 0 7 0;
#X connect 3 0 12 0;
#X connect 5 0 4 0;
#X connect 7 0 14 0;
#X connect 8 0 9 0;
#X connect 8 0 13 0;
#X connect 9 0 18 0;
#X connect 10 0 0 0;
#X connect 14 0 6 0;
#X connect 15 1 1 0;
#X connect 15 2 1 0;
#X connect 16 1 3 0;
#X connect 16 2 3 0;
#X connect 17 1 8 0;
#X connect 17 2 8 0;
#X connect 18 0 6 0;
#X restore 989 438 pd mapping;
#X obj 581 779 ali.gain;
#X obj 503 530 ali.gain;
#X obj 793 530 ali.gain;
#X obj 356 530 ali.gain;
#X obj 648 530 ali.gain;
#X obj 355 251 ali.gain;
#X obj 959 492 route /k1 /k2 /k3 /k4;
#X obj 29 389 mo.strip 1;
#X obj 29 746 route /k1 /k2;
#N canvas 386 239 1101 439 setup 0;
#X obj 60 41 loadbang;
#X msg 35 175 \; pd dsp 1;
#X obj 63 96 del 2000;
#X msg 152 146 \; pd midi-dialog 1 0 0 0 0 0 0 0 0 1 0 0 0 0 0 0 0
0 0 0;
#X msg 103 233 \; pd midi-properties;
#X msg 259 236 \; pd audio-properties;
#X obj 663 260 noteout;
#X obj 885 78 r pd-dsp-stopped;
#X obj 872 136 bng 15 250 50 0 empty empty empty 17 7 0 10 -262144
-1 -1;
#X obj 777 126 bng 15 250 50 0 empty empty empty 17 7 0 10 -262144
-1 -1;
#X obj 773 80 r pd-dsp-started;
#X msg 785 160 63 120;
#X msg 869 161 63 0;
#X obj 583 109 snapshot~;
#X obj 591 149 expr ($f1 * 0.5 + 0.5) * 127;
#X obj 614 68 osc~ 0.3;
#X obj 91 348 samplerate~;
#X obj 91 321 r pd-dsp-started;
#X obj 92 383 s samp-rate;
#X obj 63 324 bng 15 250 50 0 empty empty empty 17 7 0 10 -262144 -1
-1;
#X obj 545 70 metro 33;
#X obj 529 0 loadbang;
#X msg 535 31 1;
#X obj 218 325 loadbang;
#X obj 211 351 del 2500;
#X msg 588 191 73 \$1;
#X obj 453 385 outlet;
#X obj 453 327 del 2500;
#X msg 453 349 calib;
#X msg 127 181 \; pd audio-dialog \$1 0 0 0 1 0 0 0 \$1 0 0 0 2 0 0
0 44100 25 0 64;
#X msg 94 146 4;
#X connect 0 0 2 0;
#X connect 0 0 27 0;
#X connect 2 0 1 0;
#X connect 2 0 3 0;
#X connect 2 0 30 0;
#X connect 7 0 8 0;
#X connect 8 0 12 0;
#X connect 9 0 11 0;
#X connect 10 0 9 0;
#X connect 11 0 6 0;
#X connect 12 0 6 0;
#X connect 13 0 14 0;
#X connect 14 0 25 0;
#X connect 15 0 13 0;
#X connect 16 0 18 0;
#X connect 17 0 16 0;
#X connect 19 0 16 0;
#X connect 20 0 13 0;
#X connect 21 0 22 0;
#X connect 22 0 20 0;
#X connect 23 0 24 0;
#X connect 24 0 16 0;
#X connect 25 0 6 0;
#X connect 27 0 28 0;
#X connect 28 0 26 0;
#X connect 30 0 29 0;
#X restore 20 9 pd setup;
#X obj 732 18 loadbang;
#X obj 839 96 tgl 15 0 empty empty play 17 7 0 10 -262144 -1 -1 0 1
;
#N canvas 647 323 860 620 strip-map 0;
#X obj 79 271 bng 15 250 50 0 empty empty empty 17 7 0 10 -262144 -1
-1;
#X obj 79 303 tgl 15 0 empty empty empty 17 7 0 10 -262144 -1 -1 0
1;
#X msg 91 443 /l1 \$1;
#X obj 108 21 inlet;
#X obj 14 332 outlet;
#X obj 48 236 sel 0 127 1;
#X obj 108 64 route /s1 /s2;
#X obj 91 515 s to-mo.strip 1;
#X obj 222 272 bng 15 250 50 0 empty empty empty 17 7 0 10 -262144
-1 -1;
#X obj 222 294 tgl 15 0 empty empty empty 17 7 0 10 -262144 -1 -1 0
1;
#X obj 216 239 sel 0 127 1;
#X msg 222 443 /l2 \$1;
#X obj 169 323 outlet;
#X obj 222 324 * 127;
#X msg 123 404 0;
#X obj 79 349 metro 400;
#X obj 123 382 del 200;
#X msg 79 403 127;
#X obj 315 95 +;
#X obj 315 152 tgl 15 0 empty empty empty 17 7 0 10 -262144 -1 -1 0
1;
#X obj 48 208 ali.gate2;
#X obj 315 117 != 254;
#X obj 216 214 ali.gate2;
#X obj 315 182 sel 0;
#X obj 315 326 outlet;
#X obj 524 326 mo.led-flash /l2 50;
#X obj 381 326 mo.led-flash /l1 50;
#X obj 315 249 t b b b 0;
#X obj 410 47 metro 20;
#X connect 0 0 1 0;
#X connect 1 0 4 0;
#X connect 1 0 15 0;
#X connect 2 0 7 0;
#X connect 3 0 6 0;
#X connect 5 1 0 0;
#X connect 5 2 0 0;
#X connect 6 0 18 0;
#X connect 6 0 20 1;
#X connect 6 1 18 1;
#X connect 6 1 22 1;
#X connect 8 0 9 0;
#X connect 9 0 12 0;
#X connect 9 0 13 0;
#X connect 10 1 8 0;
#X connect 10 2 8 0;
#X connect 11 0 7 0;
#X connect 13 0 11 0;
#X connect 14 0 2 0;
#X connect 15 0 16 0;
#X connect 15 0 17 0;
#X connect 16 0 14 0;
#X connect 17 0 2 0;
#X connect 18 0 21 0;
#X connect 19 0 23 0;
#X connect 20 0 5 0;
#X connect 21 0 19 0;
#X connect 21 0 20 0;
#X connect 21 0 22 0;
#X connect 22 0 10 0;
#X connect 23 0 27 0;
#X connect 25 0 7 0;
#X connect 26 0 7 0;
#X connect 27 0 24 0;
#X connect 27 1 26 0;
#X connect 27 2 25 0;
#X connect 27 3 1 0;
#X restore 44 686 pd strip-map;
#X obj 29 352 r to-mo.strip 1;
#X obj 343 713 r~ ali.loop-pedal-audio;
#X obj 161 293 route thresh;
#X msg 177 326 /st \$1;
#X obj 732 43 t b 1 b;
#X obj 727 740 rev3~ 100 90 3000 30;
#X obj 958 638 mo.assign 3 36 108;
#N canvas 0 51 472 158 verb-sends 0;
#X obj 17 30 inlet~;
#X obj 72 31 inlet;
#X obj 16 64 ali.gain;
#X obj 124 31 inlet~;
#X obj 179 32 inlet;
#X obj 123 65 ali.gain;
#X obj 235 31 inlet~;
#X obj 290 32 inlet;
#X obj 234 65 ali.gain;
#X obj 337 33 inlet~;
#X obj 392 34 inlet;
#X obj 336 67 ali.gain;
#X obj 16 117 outlet~, f 27;
#X connect 0 0 2 0;
#X connect 1 0 2 1;
#X connect 2 0 12 0;
#X connect 3 0 5 0;
#X connect 4 0 5 1;
#X connect 5 0 12 0;
#X connect 6 0 8 0;
#X connect 7 0 8 1;
#X connect 8 0 12 0;
#X connect 9 0 11 0;
#X connect 10 0 11 1;
#X connect 11 0 12 0;
#X restore 727 713 pd verb-sends;
#X obj 793 308 ali.loop-pedal sound4;
#X obj 356 308 ali.loop-pedal sound1;
#X obj 356 37 ali.loop-pedal sound0;
#X obj 503 308 ali.loop-pedal sound2;
#X obj 648 308 ali.loop-pedal sound3;
#X obj 1163 473 mo.joy 1;
#X obj 1163 698 route /h;
#X msg 1163 720 speed \$1;
#X connect 0 0 6 0;
#X connect 0 1 28 0;
#X connect 2 0 3 0;
#X connect 3 0 5 0;
#X connect 4 0 3 1;
#X connect 5 0 36 2;
#X connect 5 1 35 2;
#X connect 5 2 37 2;
#X connect 5 3 38 2;
#X connect 5 4 34 2;
#X connect 8 0 3 2;
#X connect 10 0 12 0;
#X connect 10 0 19 0;
#X connect 10 0 32 0;
#X connect 11 0 10 0;
#X connect 13 0 1 0;
#X connect 13 0 1 1;
#X connect 14 0 13 0;
#X connect 14 0 33 2;
#X connect 15 0 13 0;
#X connect 15 0 33 6;
#X connect 16 0 13 0;
#X connect 16 0 33 0;
#X connect 17 0 13 0;
#X connect 17 0 33 4;
#X connect 18 0 13 0;
#X connect 19 0 16 1;
#X connect 19 1 14 1;
#X connect 19 2 17 1;
#X connect 19 3 15 1;
#X connect 20 0 21 0;
#X connect 20 0 25 0;
#X connect 21 0 18 1;
#X connect 21 1 13 1;
#X connect 22 0 0 0;
#X connect 23 0 30 0;
#X connect 24 0 3 3;
#X connect 25 0 2 0;
#X connect 25 1 24 0;
#X connect 25 2 4 0;
#X connect 26 0 20 0;
#X connect 27 0 13 0;
#X connect 28 0 29 0;
#X connect 29 0 20 0;
#X connect 30 0 4 0;
#X connect 30 1 24 0;
#X connect 30 2 8 0;
#X connect 31 0 13 0;
#X connect 32 0 33 1;
#X connect 32 1 33 3;
#X connect 32 2 33 5;
#X connect 32 3 33 7;
#X connect 33 0 31 0;
#X connect 34 0 15 0;
#X connect 35 0 16 0;
#X connect 36 0 18 0;
#X connect 36 1 7 0;
#X connect 36 2 34 2;
#X connect 36 2 35 2;
#X connect 36 2 37 2;
#X connect 36 2 38 2;
#X connect 37 0 14 0;
#X connect 38 0 17 0;
#X connect 39 0 40 0;
#X connect 40 0 41 0;
#X connect 41 0 36 2;
